<?xml version="1.0" standalone="no"?>
<!DOCTYPE svg PUBLIC "-//W3C//DTD SVG 20010904//EN"
 "http://www.w3.org/TR/2001/REC-SVG-20010904/DTD/svg10.dtd">
<svg version="1.0" xmlns="http://www.w3.org/2000/svg"
 width="512.000000pt" height="512.000000pt" viewBox="0 0 512.000000 512.000000"
 preserveAspectRatio="xMidYMid meet">

<g transform="translate(0.000000,512.000000) scale(0.100000,-0.100000)"
fill="#000000" stroke="none">
<path d="M627 4206 c-57 -21 -103 -61 -128 -113 l-24 -48 0 -770 0 -770 22
-42 c27 -50 86 -100 133 -113 48 -13 3812 -13 3860 0 47 13 106 63 133 113
l22 42 0 770 0 770 -24 48 c-25 52 -71 92 -128 113 -56 20 -3810 20 -3866 0z
m3873 -88 c18 -13 41 -39 51 -58 18 -32 19 -67 19 -507 l0 -473 -2010 0 -2010
0 0 473 c0 440 1 475 19 507 10 19 33 45 51 58 l33 22 1907 0 1907 0 33 -22z
m68 -1357 c-3 -236 -4 -251 -24 -278 -36 -47 -77 -65 -168 -70 l-84 -6 -12 59
c-24 115 -85 196 -188 246 l-67 33 -1465 0 -1465 0 -67 -33 c-103 -50 -175
-148 -193 -261 l-7 -44 -84 6 c-91 5 -132 23 -168 70 -20 27 -21 42 -24 278
l-3 249 2011 0 2011 0 -3 -249z m-510 -117 c29 -14 67 -44 86 -66 34 -39 66
-113 66 -150 0 -17 -60 -18 -1650 -18 -1590 0 -1650 1 -1650 18 0 37 32 111
66 150 19 22 57 52 86 66 l52 26 1446 0 1446 0 52 -26z"/>
<path d="M960 3971 c-49 -15 -86 -40 -126 -83 -57 -61 -77 -120 -72 -205 5
-79 27 -132 78 -183 52 -52 104 -74 187 -78 60 -3 80 0 125 20 62 29 110 73
141 132 17 33 22 58 22 126 0 75 -3 91 -27 132 -36 59 -98 113 -156 132 -48
17 -129 20 -172 7z m163 -85 c80 -34 133 -136 118 -223 -21 -115 -140 -193
-248 -164 -97 26 -156 102 -156 200 0 82 46 155 118 187 40 17 127 18 168 0z"/>
<path d="M3983 3964 c-54 -20 -128 -85 -156 -138 -31 -59 -31 -193 0 -252 52
-98 145 -154 253 -153 118 1 199 50 249 149 71 143 17 309 -124 382 -52 28
-164 34 -222 12z m209 -93 c169 -116 92 -374 -112 -375 -112 -1 -201 86 -201
197 0 88 37 149 116 192 45 24 152 17 197 -14z"/>
<path d="M1732 1994 c-17 -11 -22 -25 -22 -56 0 -27 -14 -72 -42 -132 -40 -86
-43 -96 -43 -181 0 -85 3 -95 44 -183 41 -89 43 -97 39 -170 -2 -62 -10 -90
-37 -146 -41 -85 -61 -187 -42 -210 16 -19 45 -21 59 -3 5 6 13 34 16 60 4 26
24 82 44 125 35 74 37 82 37 182 0 102 -1 108 -40 189 -35 74 -40 94 -40 155
0 62 5 81 39 151 48 100 62 206 29 223 -15 8 -25 7 -41 -4z"/>
<path d="M2301 2001 c-8 -5 -17 -34 -22 -64 -4 -30 -24 -93 -46 -139 -36 -78
-38 -89 -38 -178 1 -90 3 -99 40 -175 31 -65 40 -94 43 -152 4 -67 2 -77 -39
-164 -34 -75 -42 -105 -43 -152 -1 -46 3 -62 17 -71 29 -19 51 5 58 62 4 28
24 88 45 134 37 78 39 87 39 183 0 96 -2 103 -40 180 -36 72 -40 88 -40 155 0
67 4 86 38 158 48 101 61 197 32 219 -22 15 -25 16 -44 4z"/>
<path d="M2868 1998 c-9 -7 -18 -35 -21 -63 -3 -27 -23 -86 -44 -130 -36 -76
-38 -85 -38 -180 0 -96 2 -103 40 -185 36 -75 40 -92 40 -160 0 -67 -4 -84
-40 -159 -33 -69 -40 -96 -40 -144 0 -46 4 -62 18 -71 30 -19 51 4 58 65 4 31
23 88 45 134 37 76 39 85 39 175 0 90 -2 99 -40 179 -36 77 -40 92 -40 165 0
73 4 90 38 164 47 101 60 188 32 208 -23 17 -27 17 -47 2z"/>
<path d="M3438 1998 c-9 -7 -18 -35 -22 -63 -3 -27 -23 -84 -43 -125 -32 -67
-37 -86 -41 -172 l-4 -96 43 -94 c37 -81 43 -102 44 -164 0 -61 -5 -80 -40
-155 -31 -65 -40 -99 -43 -151 -4 -66 -4 -67 23 -74 36 -9 55 15 55 68 0 23
16 73 40 128 67 147 65 234 -10 392 -24 51 -30 76 -30 132 0 59 6 81 40 155
47 103 61 188 35 214 -20 20 -26 21 -47 5z"/>
<path d="M1156 1988 c-3 -7 -7 -34 -11 -59 -3 -26 -22 -80 -43 -120 -35 -71
-36 -78 -37 -179 0 -103 1 -108 40 -190 35 -74 40 -94 40 -156 0 -61 -5 -81
-40 -155 -30 -65 -40 -99 -43 -150 -4 -61 -2 -68 17 -74 32 -10 48 9 55 65 4
27 23 84 44 127 35 75 37 82 37 183 0 102 -1 108 -40 189 -35 74 -40 94 -40
155 0 62 5 82 40 155 34 72 40 95 40 150 0 65 -1 66 -28 69 -16 2 -29 -2 -31
-10z"/>
<path d="M3996 1988 c-3 -7 -7 -34 -11 -59 -3 -26 -22 -80 -42 -120 -32 -66
-37 -85 -41 -171 l-4 -96 43 -94 c37 -81 43 -102 44 -164 0 -61 -5 -80 -40
-155 -30 -65 -40 -99 -43 -150 -4 -61 -2 -68 17 -74 32 -10 48 9 55 66 4 28
24 86 44 128 35 73 37 80 37 181 0 102 -1 108 -40 189 -35 74 -40 94 -40 155
0 62 5 82 40 155 34 72 40 95 40 150 0 65 -1 66 -28 69 -16 2 -29 -2 -31 -10z"/>
</g>
</svg>
