<?xml version="1.0" standalone="no"?>
<!DOCTYPE svg PUBLIC "-//W3C//DTD SVG 20010904//EN"
 "http://www.w3.org/TR/2001/REC-SVG-20010904/DTD/svg10.dtd">
<svg version="1.0" xmlns="http://www.w3.org/2000/svg"
 width="512.000000pt" height="512.000000pt" viewBox="0 0 512.000000 512.000000"
 preserveAspectRatio="xMidYMid meet">

<g transform="translate(0.000000,512.000000) scale(0.100000,-0.100000)"
fill="#000000" stroke="none">
<path d="M825 4295 c-23 -22 -25 -32 -25 -120 l0 -95 -135 0 c-131 0 -137 -1
-160 -25 -24 -23 -25 -29 -25 -157 l0 -134 -30 -11 c-56 -21 -57 -30 -11 -400
27 -210 48 -346 57 -360 8 -13 25 -25 39 -29 l25 -6 0 -552 0 -551 -68 -205
-69 -205 -112 -5 c-161 -7 -151 15 -151 -322 l0 -269 25 -24 24 -25 2351 0
2351 0 24 25 c16 15 25 36 25 55 0 19 -9 40 -25 55 l-24 25 -456 0 -455 0 0
240 c0 210 2 240 15 240 9 0 27 11 40 25 25 24 25 26 25 215 0 189 0 191 -25
215 l-24 25 -1271 0 -1271 0 -24 -25 c-25 -24 -25 -24 -25 -240 l0 -216 -52 3
-51 3 -69 205 -68 205 0 551 0 552 25 6 c14 4 31 16 39 29 8 13 30 157 56 364
40 322 41 344 26 368 -9 13 -27 27 -41 31 l-25 6 0 135 c0 129 -1 135 -25 158
-23 24 -29 25 -160 25 l-135 0 0 95 c0 88 -2 98 -25 120 -15 16 -36 25 -55 25
-19 0 -40 -9 -55 -25z m295 -455 l0 -80 -240 0 -240 0 0 80 0 80 240 0 240 0
0 -80z m65 -272 c-5 -34 -55 -430 -55 -441 0 -4 -112 -7 -250 -7 -137 0 -250
3 -250 7 0 11 -50 407 -55 441 l-6 32 311 0 311 0 -6 -32z m-145 -1176 l0
-568 64 -192 65 -192 -289 0 -289 0 65 192 64 192 0 568 0 568 160 0 160 0 0
-568z m2880 -712 l0 -80 -1160 0 -1160 0 0 80 0 80 1160 0 1160 0 0 -80z
m-2000 -320 l0 -80 -160 0 -160 0 0 80 0 80 160 0 160 0 0 -80z m480 0 l0 -80
-160 0 -160 0 0 80 0 80 160 0 160 0 0 -80z m480 0 l0 -80 -160 0 -160 0 0 80
0 80 160 0 160 0 0 -80z m480 0 l0 -80 -160 0 -160 0 0 80 0 80 160 0 160 0 0
-80z m480 0 l0 -80 -160 0 -160 0 0 80 0 80 160 0 160 0 0 -80z m-2400 -240
l0 -160 -80 0 -80 0 0 55 c0 67 -29 105 -80 105 -51 0 -80 -38 -80 -105 l0
-55 -80 0 -80 0 0 55 c0 67 -29 105 -80 105 -51 0 -80 -38 -80 -105 l0 -55
-80 0 -80 0 0 55 c0 67 -29 105 -80 105 -51 0 -80 -38 -80 -105 l0 -55 -80 0
-80 0 0 160 0 160 560 0 560 0 0 -160z m480 -80 l0 -80 -160 0 -160 0 0 80 0
80 160 0 160 0 0 -80z m480 0 l0 -80 -160 0 -160 0 0 80 0 80 160 0 160 0 0
-80z m480 0 l0 -80 -160 0 -160 0 0 80 0 80 160 0 160 0 0 -80z m480 0 l0 -80
-160 0 -160 0 0 80 0 80 160 0 160 0 0 -80z m480 0 l0 -80 -160 0 -160 0 0 80
0 80 160 0 160 0 0 -80z"/>
<path d="M825 3415 c-22 -21 -25 -33 -25 -95 0 -62 3 -74 25 -95 15 -16 36
-25 55 -25 19 0 40 9 55 25 22 21 25 33 25 95 0 62 -3 74 -25 95 -15 16 -36
25 -55 25 -19 0 -40 -9 -55 -25z"/>
<path d="M2545 3831 c-71 -21 -156 -46 -188 -55 -32 -9 -67 -26 -77 -36 -27
-27 -26 -75 3 -103 12 -12 136 -87 275 -166 139 -79 251 -145 250 -147 -2 -1
-108 -32 -236 -69 l-233 -67 -192 138 c-106 75 -203 142 -217 147 -20 7 -63
-2 -200 -41 -265 -77 -265 -78 -76 -323 84 -109 138 -189 146 -214 50 -173 62
-206 83 -219 12 -8 148 -38 302 -66 l280 -52 1145 326 c630 180 1165 333 1189
342 59 23 110 69 137 129 44 94 27 182 -51 262 -44 45 -60 54 -135 77 -123 36
-190 46 -316 46 -144 0 -196 -11 -563 -115 l-304 -86 -417 165 c-229 92 -430
166 -446 165 -16 0 -87 -17 -159 -38z m642 -313 c266 -106 480 -195 476 -198
-5 -4 -83 -28 -174 -54 l-165 -46 -380 216 c-208 118 -383 219 -387 223 -4 4
25 17 65 28 40 11 75 21 77 22 2 0 222 -85 488 -191z m1358 53 c-6 -4 -32 -14
-60 -21 -27 -7 -60 -22 -72 -33 -42 -38 -23 -117 32 -131 16 -4 81 10 182 39
87 25 161 45 165 45 16 0 7 -47 -12 -68 -24 -25 87 8 -1241 -370 l-1085 -310
-230 44 c-126 24 -230 43 -231 44 -3 0 -32 104 -30 106 6 4 1037 294 1045 294
6 0 66 -32 134 -71 67 -39 134 -75 146 -80 19 -7 98 12 345 82 177 50 332 97
343 104 28 18 38 61 24 96 -9 22 -29 35 -88 60 -43 17 -81 34 -86 37 -10 6
311 101 424 126 70 15 310 22 295 7z m-2528 -348 l125 -88 -54 -16 c-29 -9
-85 -26 -125 -37 l-71 -20 -77 100 c-42 55 -75 102 -72 104 5 5 125 42 140 43
5 1 65 -38 134 -86z"/>
<path d="M2845 3082 c-84 -29 -99 -96 -33 -145 27 -20 28 -20 93 -2 98 26 131
80 84 139 -25 31 -68 34 -144 8z"/>
<path d="M2570 3006 c-87 -24 -118 -57 -104 -111 13 -54 54 -67 142 -46 84 21
120 92 70 138 -32 29 -56 33 -108 19z"/>
<path d="M4045 2805 c-503 -158 -525 -166 -525 -216 0 -33 22 -67 51 -79 25
-11 63 -1 341 85 172 53 399 123 503 156 202 62 225 76 225 131 0 38 -40 78
-77 77 -15 -1 -248 -70 -518 -154z"/>
<path d="M3118 2517 c-134 -44 -157 -61 -158 -110 0 -35 40 -77 74 -77 47 0
280 79 299 101 39 48 1 130 -60 128 -15 0 -85 -19 -155 -42z"/>
<path d="M1745 2395 c-286 -90 -305 -99 -305 -157 0 -35 39 -78 72 -78 44 0
560 168 581 189 30 29 27 79 -7 108 -15 12 -37 23 -49 22 -12 0 -143 -38 -292
-84z"/>
<path d="M2465 2314 c-286 -89 -305 -98 -305 -156 0 -35 39 -78 72 -78 45 0
560 167 581 188 30 30 27 80 -7 109 -15 12 -37 23 -49 22 -12 0 -143 -38 -292
-85z"/>
</g>
</svg>
