<?xml version="1.0" standalone="no"?>
<!DOCTYPE svg PUBLIC "-//W3C//DTD SVG 20010904//EN"
 "http://www.w3.org/TR/2001/REC-SVG-20010904/DTD/svg10.dtd">
<svg version="1.0" xmlns="http://www.w3.org/2000/svg"
 width="512.000000pt" height="512.000000pt" viewBox="0 0 512.000000 512.000000"
 preserveAspectRatio="xMidYMid meet">

<g transform="translate(0.000000,512.000000) scale(0.100000,-0.100000)"
fill="#000000" stroke="none">
<path d="M240 5027 c-49 -16 -133 -102 -148 -153 -28 -94 -8 -169 63 -239 68
-68 95 -75 309 -75 l176 0 0 -85 c0 -75 -2 -86 -21 -95 -29 -16 -59 -70 -59
-108 0 -46 -21 -92 -73 -155 -64 -78 -82 -133 -82 -244 0 -99 10 -123 69 -167
26 -20 41 -21 246 -21 205 0 220 1 246 21 59 44 69 68 69 167 0 111 -18 166
-82 244 -52 63 -73 109 -73 155 0 38 -30 92 -59 108 -19 9 -21 20 -21 95 l0
85 280 0 280 0 0 -85 c0 -75 -2 -86 -21 -95 -29 -16 -59 -70 -59 -108 0 -46
-21 -92 -73 -155 -64 -78 -82 -133 -82 -244 0 -99 10 -123 69 -167 26 -20 41
-21 246 -21 205 0 220 1 246 21 59 44 69 68 69 167 0 111 -18 166 -82 244 -52
63 -73 109 -73 155 0 38 -30 92 -59 108 -19 9 -21 20 -21 95 l0 85 280 0 280
0 0 -85 c0 -75 -2 -86 -21 -95 -29 -16 -59 -70 -59 -108 0 -46 -21 -92 -73
-155 -64 -78 -82 -133 -82 -244 0 -99 10 -123 69 -167 26 -20 41 -21 246 -21
205 0 220 1 246 21 59 44 69 68 69 167 0 111 -18 166 -82 244 -52 63 -73 109
-73 155 0 38 -30 92 -59 108 -19 9 -21 20 -21 95 l0 85 1296 0 c989 0 1306 3
1338 12 55 16 138 99 154 154 26 89 9 163 -55 234 -79 88 155 80 -2417 79
-1633 -1 -2291 -4 -2316 -12z m560 -227 l0 -80 -255 0 -256 0 -24 25 c-16 15
-25 36 -25 55 0 19 9 40 25 55 l24 25 256 0 255 0 0 -80z m320 0 l0 -80 -80 0
-80 0 0 80 0 80 80 0 80 0 0 -80z m2720 0 l0 -80 -1280 0 -1280 0 0 80 0 80
1280 0 1280 0 0 -80z m320 0 l0 -80 -80 0 -80 0 0 80 0 80 80 0 80 0 0 -80z
m695 55 c16 -15 25 -36 25 -55 0 -19 -9 -40 -25 -55 l-24 -25 -256 0 -255 0 0
80 0 80 255 0 256 0 24 -25z m-4125 -662 c1 -31 40 -106 81 -155 49 -58 69
-104 69 -158 l0 -40 -160 0 -160 0 0 40 c0 54 20 100 69 158 41 49 80 124 81
155 0 9 5 17 10 17 6 0 10 -8 10 -17z m720 0 c1 -31 40 -106 81 -155 49 -58
69 -104 69 -158 l0 -40 -160 0 -160 0 0 40 c0 54 20 100 69 158 41 49 80 124
81 155 0 9 5 17 10 17 6 0 10 -8 10 -17z m720 0 c1 -31 40 -106 81 -155 49
-58 69 -104 69 -158 l0 -40 -160 0 -160 0 0 40 c0 54 20 100 69 158 41 49 80
124 81 155 0 9 5 17 10 17 6 0 10 -8 10 -17z"/>
<path d="M3440 4227 c-49 -16 -133 -102 -148 -153 -7 -25 -12 -103 -12 -192 0
-145 -1 -153 -25 -188 -61 -90 -70 -216 -21 -312 l27 -52 -97 -225 -96 -225
-1390 0 c-1063 0 -1400 -3 -1432 -12 -86 -26 -166 -136 -166 -228 0 -81 62
-182 130 -210 l30 -12 0 -1025 0 -1024 25 -24 24 -25 231 0 c126 0 230 -1 230
-2 0 -2 -7 -28 -15 -58 -22 -83 -20 -126 10 -155 l24 -25 511 0 511 0 24 25
c30 29 32 72 10 155 -8 30 -15 56 -15 58 0 1 50 2 111 2 110 0 110 0 103 -22
-32 -100 -32 -161 1 -193 l24 -25 511 0 511 0 24 25 c30 29 32 72 10 155 -8
30 -15 56 -15 58 0 1 50 2 111 2 110 0 110 0 103 -22 -32 -100 -32 -161 1
-193 l24 -25 511 0 511 0 24 25 c30 29 32 72 10 155 -8 30 -15 56 -15 58 0 1
104 2 230 2 l231 0 24 25 25 24 0 1024 0 1025 30 12 c68 28 130 129 130 210 0
81 -62 182 -130 210 l-30 12 0 152 c0 174 -11 227 -65 303 -19 26 -47 66 -62
87 -27 38 -28 46 -33 179 -5 131 -6 140 -29 158 -16 13 -39 19 -77 19 l-54 0
0 111 0 112 -92 94 -92 93 -53 -52 c-29 -29 -53 -57 -53 -63 0 -7 29 -38 65
-71 l65 -59 0 -82 0 -83 -54 0 c-38 0 -61 -6 -77 -19 -23 -18 -24 -27 -29
-158 -5 -133 -6 -141 -33 -179 -15 -21 -43 -61 -62 -87 -53 -75 -65 -129 -65
-294 l0 -143 -54 0 -54 0 -96 224 -96 224 26 56 c48 105 40 220 -21 310 -24
35 -25 43 -25 188 0 178 -9 213 -67 278 -65 72 -158 97 -253 67z m135 -172
c23 -22 25 -31 25 -122 l0 -98 -80 0 -80 0 0 98 c0 91 2 100 25 122 15 16 36
25 55 25 19 0 40 -9 55 -25z m8 -389 c103 -43 128 -177 48 -257 -112 -113
-296 -12 -267 146 18 94 128 150 219 111z m980 -158 c6 -108 21 -150 83 -230
68 -87 74 -108 74 -263 l0 -135 -240 0 -240 0 0 135 c0 155 6 176 74 263 62
80 77 122 83 230 l6 92 77 0 77 0 6 -92z m-1043 -308 c20 0 58 6 84 14 43 13
48 13 54 -2 3 -9 36 -87 73 -172 l66 -155 -138 -3 c-77 -1 -201 -1 -278 0
l-138 3 66 155 c37 85 70 163 73 172 6 15 11 15 54 2 26 -8 64 -14 84 -14z
m1335 -505 c33 -32 33 -78 0 -110 l-24 -25 -2271 0 -2271 0 -24 25 c-16 15
-25 36 -25 55 0 19 9 40 25 55 l24 25 2271 0 2271 0 24 -25z m-135 -935 l0
-640 -200 0 -200 0 0 -80 0 -80 200 0 200 0 0 -80 0 -80 -200 0 -200 0 0 -80
0 -80 200 0 200 0 0 -80 0 -80 -242 0 -243 0 -47 35 c-26 19 -59 56 -75 82
l-28 48 -3 398 -3 397 136 0 c131 0 137 1 160 25 24 23 25 28 25 176 0 179 -8
214 -67 279 -71 79 -79 80 -491 80 -249 0 -367 -4 -396 -12 -55 -16 -138 -99
-154 -154 -7 -25 -12 -103 -12 -193 0 -148 1 -153 25 -176 23 -24 29 -25 160
-25 l136 0 -3 -397 -3 -398 -28 -48 c-16 -26 -49 -63 -75 -82 l-47 -35 -245 0
-245 0 -47 35 c-26 19 -59 56 -75 82 l-28 48 -3 398 -3 397 136 0 c131 0 137
1 160 25 24 23 25 28 25 176 0 179 -8 214 -67 279 -71 79 -79 80 -491 80 -249
0 -367 -4 -396 -12 -55 -16 -138 -99 -154 -154 -7 -25 -12 -103 -12 -193 0
-148 1 -153 25 -176 23 -24 29 -25 160 -25 l136 0 -3 -397 -3 -398 -28 -48
c-16 -26 -49 -63 -75 -82 l-47 -35 -245 0 -245 0 -47 35 c-26 19 -59 56 -75
82 l-28 48 -3 398 -3 397 136 0 c131 0 137 1 160 25 24 23 25 28 25 176 0 179
-8 214 -67 279 -71 79 -79 80 -491 80 -249 0 -367 -4 -396 -12 -55 -16 -138
-99 -154 -154 -7 -25 -12 -103 -12 -193 0 -148 1 -153 25 -176 23 -24 29 -25
160 -25 l136 0 -3 -397 -3 -398 -28 -48 c-16 -26 -49 -63 -75 -82 l-47 -35
-242 0 -243 0 0 80 0 80 200 0 200 0 0 80 0 80 -200 0 -200 0 0 80 0 80 200 0
200 0 0 80 0 80 -200 0 -200 0 0 640 0 640 2160 0 2160 0 0 -640z m-3065 55
c23 -22 25 -32 25 -120 l0 -95 -400 0 -400 0 0 95 c0 88 2 98 25 120 l24 25
351 0 351 0 24 -25z m1280 0 c23 -22 25 -32 25 -120 l0 -95 -400 0 -400 0 0
95 c0 88 2 98 25 120 l24 25 351 0 351 0 24 -25z m1280 0 c23 -22 25 -32 25
-120 l0 -95 -400 0 -400 0 0 95 c0 88 2 98 25 120 l24 25 351 0 351 0 24 -25z
m-2853 -782 c4 -526 -15 -470 242 -710 94 -87 110 -83 -324 -83 -435 0 -421
-4 -324 84 152 138 191 181 215 241 24 59 24 64 27 468 l3 407 79 0 79 0 3
-407z m1280 0 c4 -526 -15 -470 242 -710 94 -87 110 -83 -324 -83 -435 0 -421
-4 -324 84 152 138 191 181 215 241 24 59 24 64 27 468 l3 407 79 0 79 0 3
-407z m1280 0 c4 -526 -15 -470 242 -710 94 -87 110 -83 -324 -83 -435 0 -421
-4 -324 84 152 138 191 181 215 241 24 59 24 64 27 468 l3 407 79 0 79 0 3
-407z"/>
</g>
</svg>
