<?xml version="1.0" standalone="no"?>
<!DOCTYPE svg PUBLIC "-//W3C//DTD SVG 20010904//EN"
 "http://www.w3.org/TR/2001/REC-SVG-20010904/DTD/svg10.dtd">
<svg version="1.0" xmlns="http://www.w3.org/2000/svg"
 width="512.000000pt" height="512.000000pt" viewBox="0 0 512.000000 512.000000"
 preserveAspectRatio="xMidYMid meet">

<g transform="translate(0.000000,512.000000) scale(0.100000,-0.100000)"
fill="#000000" stroke="none">
<path d="M961 4834 c-19 -24 -21 -40 -21 -160 l0 -134 -112 0 c-98 0 -120 -3
-164 -24 -63 -29 -120 -95 -139 -160 -22 -74 -22 -1188 0 -1262 19 -65 72
-126 137 -158 l52 -26 393 0 393 0 0 -382 0 -382 -75 -138 -75 -139 2 -753 3
-753 27 -35 c53 -69 71 -73 363 -73 223 0 264 2 290 17 70 38 105 105 105 198
l0 60 34 0 c46 0 145 32 199 63 62 37 114 98 154 183 l35 74 303 0 303 0 32
-50 c51 -80 128 -138 208 -155 l32 -7 0 -172 c0 -163 1 -174 21 -192 20 -18
42 -19 456 -19 l435 0 19 24 c17 21 19 41 19 196 l0 173 28 10 c42 14 100 69
124 116 35 69 69 518 66 867 l-3 276 -30 49 c-57 92 -184 139 -275 102 -34
-14 -34 -14 -65 26 -18 24 -53 52 -85 69 l-55 28 -5 952 c-5 949 -5 952 -27
1005 -33 81 -84 136 -161 174 l-67 33 -727 3 c-700 2 -727 3 -733 21 -12 40
-66 101 -112 128 -44 26 -59 28 -173 33 l-125 5 -3 140 c-2 112 -6 143 -19
157 -14 16 -35 18 -184 18 -211 0 -199 11 -199 -182 l0 -138 -105 0 -105 0 0
131 c0 125 -7 163 -34 181 -6 4 -84 8 -173 8 l-162 0 -20 -26z m247 -281 l2
-173 -65 0 -65 0 0 168 c0 93 3 172 7 176 4 4 32 6 63 4 l55 -3 3 -172z m612
2 l0 -175 -60 0 -60 0 0 175 0 175 60 0 60 0 0 -175z m-878 -216 c7 -95 15
-99 205 -99 150 0 155 1 178 25 21 20 25 34 25 80 l0 55 105 0 105 0 0 -55 c0
-46 4 -60 25 -80 23 -24 28 -25 170 -25 192 0 205 6 205 103 l0 57 109 0 c103
0 111 -2 140 -26 35 -29 51 -76 51 -151 l0 -53 -805 0 -805 0 0 65 c0 73 15
112 56 144 23 18 40 21 129 21 l103 0 4 -61z m2894 -138 c49 -22 88 -70 103
-126 12 -43 16 -1905 5 -1905 -4 0 -23 19 -44 43 -21 23 -49 49 -64 56 l-26
14 0 729 c0 588 -3 735 -13 761 -19 44 -87 103 -134 116 -25 7 -250 11 -650
11 l-613 0 0 160 0 160 698 0 c659 0 699 -1 738 -19z m-1577 -603 c0 -308 -4
-443 -12 -468 -7 -19 -27 -44 -46 -57 l-34 -23 -717 0 c-712 0 -717 0 -744 21
-56 44 -56 40 -56 519 l0 440 805 0 805 0 -1 -432z m1375 151 c14 -7 30 -25
36 -42 6 -20 10 -263 10 -718 0 -670 -1 -689 -19 -699 -11 -5 -22 -10 -25 -10
-3 0 -6 139 -8 308 l-3 309 -30 49 c-19 30 -49 60 -79 79 -92 56 -222 35 -291
-47 -55 -65 -55 -63 -55 -534 0 -411 -1 -436 -17 -429 -10 4 -56 9 -103 12
-106 6 -155 -9 -187 -56 -23 -33 -23 -38 -23 -329 l0 -295 25 -44 26 -43 -373
2 -372 3 -12 80 c-19 129 -66 247 -153 383 l-53 81 13 55 c6 30 15 58 18 63 3
5 32 14 65 21 176 35 301 170 326 352 15 109 -1 169 -52 196 -20 11 -71 14
-208 14 l-180 0 0 200 0 200 133 0 c197 0 267 32 324 148 l28 57 3 323 3 322
604 0 c430 0 611 -3 629 -11z m-166 -864 l22 -26 0 -399 c0 -422 2 -445 46
-456 55 -14 85 9 99 79 12 57 72 89 126 67 43 -18 59 -56 59 -145 0 -86 18
-115 69 -115 35 0 71 40 71 77 0 14 13 37 29 54 37 37 79 38 120 3 29 -24 31
-30 31 -99 0 -89 22 -125 74 -125 38 0 59 20 76 72 22 69 93 90 147 44 l28
-24 3 -254 c4 -299 -27 -750 -54 -805 -16 -32 -42 -46 -101 -58 -58 -11 -63
-30 -63 -217 l0 -168 -334 0 -335 0 -3 176 c-3 171 -4 176 -27 195 -15 12 -39
19 -66 19 -52 0 -92 14 -124 43 -13 12 -104 142 -202 289 l-179 268 0 256 0
256 65 -4 c55 -3 70 -8 93 -31 l27 -27 5 -222 5 -221 27 -20 c23 -17 31 -18
57 -8 18 8 34 24 40 43 8 21 11 267 11 749 l0 717 32 27 c26 22 39 26 67 21
21 -3 45 -16 59 -31z m-1698 -173 l0 -197 -42 -23 c-24 -12 -53 -37 -65 -55
l-23 -32 0 253 0 252 65 0 65 0 0 -198z m445 -389 c-21 -142 -131 -243 -267
-243 -97 0 -101 -5 -143 -181 l-29 -117 68 -100 c117 -175 162 -306 160 -472
-1 -88 -7 -120 -32 -199 -28 -85 -30 -97 -17 -121 8 -15 25 -30 37 -34 13 -3
112 -6 221 -6 l197 0 -19 -38 c-24 -46 -81 -99 -130 -120 -20 -8 -78 -18 -128
-22 -129 -9 -133 -14 -133 -146 0 -141 13 -134 -258 -134 -128 0 -221 4 -233
10 -19 10 -19 29 -19 722 l0 712 146 268 146 268 219 0 220 0 -6 -47z m797
-1240 c14 -21 33 -50 42 -65 l18 -28 -476 0 c-409 0 -476 2 -476 15 0 7 5 37
11 65 l11 50 422 0 423 0 25 -37z"/>
<path d="M2675 4108 c-28 -16 -35 -28 -35 -65 0 -52 26 -63 157 -63 100 0 115
2 133 20 29 29 26 74 -6 99 -23 18 -40 21 -128 21 -56 0 -110 -6 -121 -12z"/>
<path d="M1722 3863 c-11 -10 -100 -121 -198 -248 -97 -126 -179 -232 -182
-235 -2 -3 -41 34 -88 83 -62 65 -90 87 -109 87 -31 0 -75 -41 -75 -69 0 -23
47 -79 162 -198 87 -89 115 -101 156 -65 11 9 115 139 231 289 183 236 211
276 211 307 0 58 -64 87 -108 49z"/>
</g>
</svg>
