<?xml version="1.0" standalone="no"?>
<!DOCTYPE svg PUBLIC "-//W3C//DTD SVG 20010904//EN"
 "http://www.w3.org/TR/2001/REC-SVG-20010904/DTD/svg10.dtd">
<svg version="1.0" xmlns="http://www.w3.org/2000/svg"
 width="512.000000pt" height="512.000000pt" viewBox="0 0 512.000000 512.000000"
 preserveAspectRatio="xMidYMid meet">

<g transform="translate(0.000000,512.000000) scale(0.100000,-0.100000)"
fill="#000000" stroke="none">
<path d="M1010 4819 c-53 -24 -83 -50 -113 -99 -22 -35 -22 -38 -27 -670 l-5
-635 -252 -5 c-235 -5 -253 -6 -280 -26 -78 -58 -89 -119 -80 -454 5 -194 8
-223 31 -296 14 -44 43 -107 64 -140 39 -60 138 -161 180 -183 22 -12 22 -14
22 -216 l0 -204 61 -53 61 -52 -61 -58 -61 -57 0 -79 0 -80 62 -57 62 -58 -40
-31 c-91 -72 -84 -46 -84 -310 l0 -235 108 -128 c59 -71 127 -153 152 -182 67
-80 118 -98 179 -66 16 8 96 95 180 195 l151 180 0 739 0 738 38 25 c55 37
132 119 170 181 77 127 95 243 90 567 -3 230 -7 248 -60 297 -42 39 -71 43
-314 43 l-234 0 0 616 0 616 29 29 29 29 1034 0 c964 0 1034 -2 1054 -18 32
-26 44 -55 44 -110 l0 -50 -52 -7 c-298 -41 -564 -272 -658 -570 -34 -107 -39
-301 -11 -417 39 -165 112 -290 239 -410 88 -83 180 -138 302 -180 90 -31 103
-32 240 -33 164 0 226 13 349 71 180 85 311 215 396 397 46 97 65 173 72 289
24 405 -251 764 -647 844 l-88 18 -4 70 c-5 81 -29 134 -80 183 -69 67 1 63
-1155 63 -1033 0 -1049 -1 -1093 -21z m2419 -454 c136 -32 285 -129 368 -239
162 -216 188 -478 72 -716 -55 -111 -178 -237 -286 -293 -387 -201 -869 15
-967 433 -20 83 -20 237 0 320 55 236 255 437 490 494 79 19 243 19 323 1z
m-1958 -1116 c8 -15 10 -94 7 -268 -4 -211 -8 -255 -25 -307 -53 -163 -190
-282 -358 -313 -76 -14 -245 -14 -321 0 -165 30 -298 146 -355 310 -20 58 -23
88 -27 310 -3 175 -1 252 7 267 l12 22 524 0 524 0 12 -21z m-536 -1034 c77 0
164 4 193 8 l52 9 0 -681 0 -681 -122 -145 c-95 -114 -125 -142 -134 -133 -6
7 -61 72 -123 145 l-111 132 0 183 1 183 71 55 c115 89 115 114 3 215 -76 68
-94 104 -60 122 8 5 44 37 80 72 48 47 65 70 65 90 0 34 -3 37 -87 105 l-73
58 0 140 0 140 53 -9 c28 -4 115 -8 192 -8z"/>
<path d="M3220 4340 c-16 -16 -20 -33 -20 -80 0 -70 21 -100 69 -100 43 0 71
40 71 100 0 86 -69 131 -120 80z"/>
<path d="M3378 3922 c-149 -148 -178 -182 -178 -206 0 -21 24 -62 86 -145 97
-130 108 -141 141 -141 29 0 73 42 73 69 0 10 -31 61 -69 113 l-70 93 150 151
c160 161 168 176 124 219 -48 49 -63 41 -257 -153z"/>
<path d="M2640 3760 c-20 -20 -26 -65 -12 -86 25 -39 124 -46 166 -13 32 25
35 70 6 99 -16 16 -33 20 -80 20 -47 0 -64 -4 -80 -20z"/>
<path d="M3742 3764 c-29 -20 -30 -76 -2 -104 28 -28 117 -28 154 1 33 26 34
68 3 97 -29 27 -120 31 -155 6z"/>
<path d="M3216 3238 c-24 -34 -21 -133 4 -158 29 -29 74 -26 99 6 29 37 29
126 1 154 -28 28 -84 27 -104 -2z"/>
<path d="M785 2965 c-14 -13 -25 -33 -25 -45 0 -11 11 -32 25 -45 23 -24 30
-25 150 -25 120 0 127 1 150 25 14 13 25 34 25 45 0 12 -11 32 -25 45 -23 24
-30 25 -150 25 -120 0 -127 -1 -150 -25z"/>
<path d="M2556 2660 c-59 -11 -129 -52 -168 -101 -16 -20 -71 -137 -122 -260
l-91 -224 -180 -5 c-167 -5 -183 -7 -218 -28 -83 -52 -111 -125 -106 -272 4
-91 4 -92 41 -126 21 -19 48 -34 60 -34 l23 0 -3 -339 c-2 -228 0 -353 8 -381
15 -57 72 -116 131 -137 l49 -18 0 -168 c0 -154 2 -173 21 -207 39 -69 73 -80
259 -80 147 0 166 2 200 21 66 37 80 77 80 228 0 72 3 131 8 131 4 0 168 -21
365 -47 l357 -47 358 47 c196 26 360 47 365 47 4 0 7 -62 7 -138 0 -129 1
-139 24 -173 42 -61 72 -69 259 -69 154 0 166 1 197 23 71 48 75 59 78 256 l3
178 39 12 c51 15 95 53 123 105 22 40 22 49 22 399 l0 357 24 0 c13 0 37 14
56 33 39 39 51 100 40 213 -5 60 -13 83 -38 121 -53 78 -83 87 -288 91 l-175
3 -89 217 c-96 236 -123 285 -182 323 -84 56 -55 54 -798 55 -379 1 -712 -2
-739 -6z m1441 -153 c18 -9 40 -28 49 -41 16 -26 281 -665 291 -704 5 -23 4
-23 -68 -20 l-73 3 -12 73 c-17 100 -56 175 -128 248 -263 262 -705 117 -767
-251 l-13 -75 -536 0 c-295 0 -539 2 -542 5 -10 11 283 710 309 737 14 15 42
31 62 36 22 6 297 10 716 9 630 -2 682 -3 712 -20z m-122 -480 c93 -47 160
-141 172 -238 l6 -49 -314 2 -314 3 2 40 c5 73 55 163 119 212 90 68 230 81
329 30z m-1765 -104 c0 -4 -16 -47 -37 -95 l-36 -89 -111 3 -111 3 -3 67 c-3
61 0 71 22 93 24 24 30 25 151 25 69 0 125 -3 125 -7z m2591 -12 c21 -17 24
-28 24 -93 0 -52 -4 -73 -12 -72 -7 1 -59 2 -115 3 l-103 1 -37 90 -37 90 129
0 c111 0 131 -3 151 -19z m-143 -312 c50 -17 54 -47 50 -381 -3 -282 -4 -298
-23 -317 -17 -17 -77 -28 -392 -70 -205 -28 -378 -51 -385 -51 -9 0 -29 46
-53 120 -44 134 -75 182 -139 211 -37 17 -71 19 -347 19 l-305 0 -50 -25 c-63
-32 -86 -67 -130 -201 -20 -60 -40 -113 -44 -118 -5 -4 -178 15 -387 43 -361
49 -379 53 -400 77 -23 25 -23 28 -23 337 0 337 2 350 53 360 12 2 589 5 1283
6 890 1 1270 -2 1292 -10z m-987 -625 c26 -23 85 -204 70 -214 -7 -3 -93 -17
-192 -30 l-180 -24 -186 24 c-119 16 -187 29 -190 37 -8 20 57 202 75 213 10
5 135 10 301 10 248 0 287 -2 302 -16z m-1301 -274 c145 -18 130 -1 130 -150
l0 -130 -140 0 -140 0 0 151 0 151 33 -5 c17 -4 70 -11 117 -17z m2148 -127
l-3 -148 -134 -3 c-101 -2 -136 1 -143 10 -4 7 -8 66 -8 130 l0 117 33 6 c43
8 218 32 240 34 16 1 17 -10 15 -146z"/>
<path d="M2310 1480 c-137 -47 -207 -217 -143 -345 22 -43 72 -94 118 -118 56
-30 164 -30 220 0 47 25 96 74 121 123 26 51 24 162 -3 216 -31 58 -93 110
-154 128 -67 20 -91 20 -159 -4z m161 -156 c56 -54 43 -146 -26 -178 -41 -20
-59 -20 -100 0 -42 19 -69 73 -61 118 6 31 45 77 76 89 29 12 83 -3 111 -29z"/>
<path d="M4085 1491 c-222 -54 -265 -356 -66 -464 66 -36 124 -43 192 -24 238
70 241 412 5 482 -53 16 -83 17 -131 6z m116 -154 c40 -27 60 -78 48 -121 -27
-95 -150 -114 -200 -32 -36 59 -15 136 44 161 45 20 69 18 108 -8z"/>
</g>
</svg>
