<?xml version="1.0" standalone="no"?>
<!DOCTYPE svg PUBLIC "-//W3C//DTD SVG 20010904//EN"
 "http://www.w3.org/TR/2001/REC-SVG-20010904/DTD/svg10.dtd">
<svg version="1.0" xmlns="http://www.w3.org/2000/svg"
 width="512.000000pt" height="512.000000pt" viewBox="0 0 512.000000 512.000000"
 preserveAspectRatio="xMidYMid meet">

<g transform="translate(0.000000,512.000000) scale(0.100000,-0.100000)"
fill="#000000" stroke="none">
<path d="M946 4780 c-57 -22 -118 -78 -149 -135 -20 -36 -22 -58 -25 -227 -3
-181 -3 -190 21 -240 82 -181 299 -223 440 -87 45 44 49 51 43 81 -7 39 -38
68 -72 68 -13 0 -38 -13 -56 -29 -66 -56 -110 -65 -165 -31 -55 33 -63 62 -63
225 0 163 8 192 63 225 55 34 99 25 165 -31 18 -16 43 -29 56 -29 34 0 65 29
72 68 6 30 2 37 -42 80 -81 78 -188 101 -288 62z"/>
<path d="M1554 4780 c-64 -26 -120 -79 -150 -144 -22 -48 -24 -62 -23 -231 1
-194 5 -217 55 -288 42 -59 135 -107 209 -107 111 0 212 64 256 162 22 50 24
65 24 233 0 177 0 181 -28 237 -63 129 -213 189 -343 138z m151 -146 c64 -30
70 -50 70 -225 0 -173 -6 -196 -61 -229 -58 -37 -133 -19 -168 40 -13 23 -16
58 -16 187 0 174 4 187 64 224 38 23 67 24 111 3z"/>
<path d="M2090 4780 c-11 -11 -22 -30 -25 -42 -3 -13 -5 -173 -3 -356 l3 -334
24 -19 c32 -26 73 -24 99 4 20 22 22 33 22 160 l0 137 94 0 c79 0 97 3 120 21
36 28 36 80 0 108 -23 18 -41 21 -120 21 l-94 0 0 85 0 85 134 0 c120 0 136 2
160 21 36 28 36 80 0 108 -25 20 -40 21 -210 21 -170 0 -186 -2 -204 -20z"/>
<path d="M2696 4779 l-26 -20 0 -354 c0 -352 0 -354 22 -375 24 -22 58 -26 88
-10 29 16 40 66 40 191 l0 119 93 0 c60 1 98 5 109 14 43 32 38 103 -8 125
-14 6 -63 11 -109 11 l-85 0 0 85 0 85 133 0 c141 1 159 6 175 51 11 28 -1 66
-26 85 -12 10 -65 13 -198 14 -169 0 -183 -1 -208 -21z"/>
<path d="M3285 4775 l-25 -24 0 -350 0 -350 26 -20 c25 -20 40 -21 211 -21
182 0 184 0 208 25 30 29 32 64 6 96 -18 23 -26 24 -160 27 l-141 4 0 84 0 84
95 0 c90 0 98 2 122 26 20 20 24 31 19 57 -11 55 -36 67 -142 67 l-94 0 0 85
0 85 135 0 c131 0 137 1 160 25 14 13 25 36 25 50 0 14 -11 37 -25 50 -24 25
-26 25 -210 25 -184 0 -186 0 -210 -25z"/>
<path d="M3889 4781 l-24 -19 -3 -351 -3 -351 25 -25 c25 -25 26 -25 214 -25
184 0 189 1 210 23 29 31 28 72 -3 102 -23 24 -29 25 -160 25 l-135 0 0 85 0
85 94 0 c79 0 97 3 120 21 34 27 35 71 1 104 -22 23 -32 25 -120 25 l-95 0 0
85 0 85 135 0 c131 0 137 1 160 25 14 13 25 36 25 50 0 14 -11 37 -25 50 -24
25 -26 25 -208 25 -167 0 -187 -2 -208 -19z"/>
<path d="M435 3833 c-35 -9 -87 -54 -101 -89 -10 -25 -14 -86 -14 -242 l0
-209 -120 -319 -120 -319 0 -105 c0 -80 5 -114 19 -145 31 -69 102 -120 209
-151 9 -3 12 -190 12 -894 l0 -890 -135 0 c-131 0 -137 -1 -160 -25 -30 -29
-32 -64 -6 -96 l19 -24 2522 0 2522 0 19 24 c26 32 24 67 -6 96 -23 24 -29 25
-160 25 l-135 0 0 890 c0 704 3 891 12 894 107 31 178 82 209 151 14 31 19 65
19 145 l0 105 -120 319 -120 319 0 209 c0 236 -5 258 -66 304 l-37 29 -2121 1
c-1167 1 -2130 0 -2141 -3z m4215 -308 l0 -165 -45 0 c-76 0 -115 -29 -115
-84 0 -42 38 -65 114 -68 l69 -3 88 -235 c49 -129 89 -238 89 -242 0 -5 -1030
-8 -2290 -8 -1259 0 -2290 3 -2290 8 0 4 40 113 89 242 l88 235 1913 3 c1476
1 1916 5 1928 14 44 37 33 109 -20 127 -22 8 -608 11 -1914 11 l-1884 0 0 165
0 165 2090 0 2090 0 0 -165z m-4090 -1008 c0 -58 -16 -81 -73 -105 -41 -18
-152 -15 -190 4 -58 30 -67 43 -67 101 l0 53 165 0 165 0 0 -53z m480 0 c0
-58 -16 -81 -73 -105 -71 -30 -220 -2 -246 46 -12 23 -15 95 -4 105 3 4 78 7
165 7 l158 0 0 -53z m480 0 c0 -58 -16 -81 -73 -105 -71 -30 -220 -2 -246 46
-12 23 -15 95 -4 105 3 4 78 7 165 7 l158 0 0 -53z m480 0 c0 -43 -4 -57 -22
-73 -36 -32 -75 -44 -139 -44 -108 0 -169 41 -169 113 0 24 3 47 7 50 3 4 78
7 165 7 l158 0 0 -53z m480 0 c0 -59 -19 -86 -73 -106 -81 -31 -227 2 -248 56
-10 28 -12 87 -2 96 3 4 78 7 165 7 l158 0 0 -53z m488 12 c5 -55 -12 -84 -60
-108 -49 -23 -147 -29 -195 -10 -54 20 -73 47 -73 106 l0 53 163 -2 162 -3 3
-36z m480 -6 c4 -55 -9 -77 -61 -102 -49 -24 -148 -29 -194 -9 -57 24 -73 47
-73 105 l0 53 163 -2 162 -3 3 -42z m480 0 c4 -56 -11 -81 -61 -104 -48 -21
-151 -25 -194 -7 -57 24 -73 47 -73 105 l0 53 163 -2 162 -3 3 -42z m480 0 c4
-56 -11 -81 -61 -104 -48 -21 -151 -25 -194 -7 -57 24 -73 47 -73 105 l0 53
163 -2 162 -3 3 -42z m482 -6 c0 -58 -9 -71 -67 -101 -38 -19 -149 -22 -190
-4 -57 24 -73 47 -73 105 l0 53 165 0 165 0 0 -53z m-4213 -218 c19 -12 53
-27 76 -34 l42 -12 5 -419 c3 -230 9 -427 13 -436 21 -41 114 -37 131 7 3 9 6
203 6 430 l0 413 38 12 c20 7 57 23 82 37 l44 24 65 -33 c62 -31 70 -33 176
-33 105 0 114 2 178 33 l67 33 36 -22 c19 -12 54 -27 77 -34 l42 -12 3 -612 2
-611 -405 0 -405 0 0 57 c0 44 -5 62 -22 80 -28 30 -78 31 -104 2 -18 -20 -19
-43 -22 -360 l-3 -339 -164 0 -165 0 2 891 3 890 52 18 c28 9 62 25 75 34 30
21 35 21 75 -4z m1405 -674 l3 -694 23 -23 23 -23 1057 -3 c756 -2 1065 1
1084 9 15 6 30 18 35 27 4 10 10 314 13 676 l5 659 42 12 c23 7 58 23 78 35
l37 23 40 -23 c23 -13 60 -28 82 -35 l41 -12 3 -892 2 -891 -1370 0 -1370 0 0
889 0 889 53 17 c28 9 63 25 77 35 14 11 28 20 32 20 4 0 9 -313 10 -695z
m544 663 c57 -32 63 -33 174 -33 116 1 159 12 222 57 13 10 28 6 80 -23 61
-33 66 -34 178 -34 110 0 118 1 179 32 l64 33 66 -33 c62 -30 72 -32 176 -32
104 0 113 2 176 33 l65 33 45 -24 c24 -14 61 -30 82 -37 l37 -12 0 -449 0
-449 -967 2 -968 3 -3 446 -2 447 102 4 c93 3 108 7 158 35 30 17 60 31 66 32
6 0 37 -14 70 -31z m1544 -1173 l0 -85 -967 2 -968 3 -3 83 -3 82 971 0 970 0
0 -85z m-2410 -440 l0 -205 -405 0 -405 0 0 205 0 205 405 0 405 0 0 -205z"/>
</g>
</svg>
