<?xml version="1.0" standalone="no"?>
<!DOCTYPE svg PUBLIC "-//W3C//DTD SVG 20010904//EN"
 "http://www.w3.org/TR/2001/REC-SVG-20010904/DTD/svg10.dtd">
<svg version="1.0" xmlns="http://www.w3.org/2000/svg"
 width="512.000000pt" height="512.000000pt" viewBox="0 0 512.000000 512.000000"
 preserveAspectRatio="xMidYMid meet">

<g transform="translate(0.000000,512.000000) scale(0.100000,-0.100000)"
fill="#000000" stroke="none">
<path d="M3800 5111 c-39 -13 -962 -549 -988 -574 -30 -27 -62 -89 -62 -118 0
-20 -3 -21 -67 -14 -110 12 -371 7 -486 -9 -564 -80 -1060 -372 -1394 -820
-143 -192 -234 -368 -313 -605 -42 -125 -55 -152 -102 -213 -114 -143 -193
-321 -224 -501 -23 -133 -15 -338 20 -472 50 -191 166 -386 314 -527 79 -76
107 -84 147 -43 42 41 33 68 -48 153 -140 147 -211 265 -263 437 -25 83 -28
103 -28 260 0 201 15 270 93 430 57 116 164 255 215 279 81 38 108 22 343
-215 212 -216 217 -222 202 -297 -5 -24 -35 -62 -101 -130 -127 -131 -152
-182 -153 -312 0 -87 3 -101 33 -165 30 -63 63 -100 375 -413 188 -189 368
-366 399 -392 78 -66 152 -93 253 -93 126 0 174 23 306 149 116 111 147 126
212 105 51 -17 443 -416 448 -456 8 -62 -2 -87 -54 -139 -106 -106 -274 -198
-433 -238 -126 -31 -332 -31 -458 0 -102 26 -226 81 -317 142 -38 26 -213 191
-430 407 -327 325 -369 363 -397 363 -42 0 -72 -31 -72 -73 0 -30 34 -66 373
-404 307 -306 388 -381 464 -431 106 -69 208 -114 342 -150 85 -22 115 -25
266 -25 151 0 181 3 266 25 175 47 321 122 450 229 35 29 70 46 135 65 240 69
470 187 689 353 196 149 498 502 498 583 0 41 -29 68 -75 68 -34 0 -42 -5 -71
-47 -217 -314 -446 -522 -745 -677 -77 -39 -259 -116 -277 -116 -3 0 -5 24 -5
53 0 37 -8 69 -25 102 -13 27 -23 50 -22 51 1 1 34 14 72 29 538 212 940 690
1055 1257 44 213 46 475 4 671 -7 37 -14 74 -14 82 0 7 43 38 95 68 52 31 95
54 95 53 0 -2 9 -39 20 -82 46 -186 63 -474 40 -664 -18 -141 -49 -278 -90
-402 -46 -135 -49 -170 -18 -192 30 -21 81 -20 101 2 23 25 102 268 126 387
61 305 54 623 -19 921 l-30 120 103 105 c191 195 309 410 373 684 13 54 17
142 21 387 5 355 5 361 -66 419 -20 17 -247 152 -504 300 -421 244 -473 271
-520 274 -29 3 -63 1 -77 -4z m519 -398 c245 -141 458 -265 474 -275 l27 -19
0 -257 c0 -287 -12 -389 -60 -534 -76 -227 -226 -438 -409 -576 -77 -58 -470
-292 -491 -292 -15 0 -384 215 -460 268 -94 67 -228 204 -292 302 -72 109
-109 183 -146 295 -51 154 -62 249 -62 537 0 256 0 258 23 272 78 52 925 535
936 536 8 0 215 -116 460 -257z m-1624 -462 l50 -6 3 -108 3 -108 -78 8 c-114
12 -366 8 -453 -6 -388 -65 -689 -218 -961 -490 -182 -183 -314 -383 -389
-588 -12 -35 -26 -63 -29 -63 -4 0 -27 9 -50 21 -24 11 -68 23 -97 26 -30 3
-54 10 -54 14 0 16 60 160 101 241 269 536 765 915 1349 1034 177 36 442 47
605 25z m-295 -486 c0 -131 1 -137 25 -160 13 -14 36 -25 50 -25 14 0 37 11
50 25 24 23 25 29 25 160 l0 135 58 -6 c31 -4 77 -10 102 -13 l45 -6 7 -60
c27 -216 141 -475 288 -658 133 -165 240 -248 564 -433 180 -103 192 -109 245
-108 38 0 70 7 99 23 24 12 47 20 50 17 9 -9 31 -155 31 -208 l1 -48 -135 0
c-122 0 -137 -2 -155 -20 -30 -30 -27 -83 6 -109 24 -19 40 -21 157 -21 l130
0 -7 -82 c-8 -98 -38 -241 -70 -335 -21 -61 -83 -212 -92 -222 -1 -2 -55 26
-118 63 -63 36 -125 66 -136 66 -28 0 -70 -44 -70 -73 0 -38 27 -64 134 -125
55 -31 101 -61 103 -67 5 -16 -111 -163 -199 -253 -74 -74 -242 -212 -260
-212 -3 0 -34 48 -68 108 -35 59 -70 113 -78 119 -23 18 -66 16 -90 -4 -42
-35 -37 -60 33 -182 36 -62 65 -116 65 -120 0 -8 -125 -62 -212 -92 l-67 -24
-163 161 c-150 147 -168 162 -222 178 -70 22 -146 16 -209 -16 -23 -11 -82
-60 -132 -108 -49 -48 -104 -95 -120 -103 -79 -40 -177 -29 -241 27 l-38 33
47 81 c52 89 59 130 27 162 -25 25 -74 26 -98 2 -10 -10 -33 -45 -52 -76 l-33
-58 -213 213 c-118 118 -214 216 -214 219 0 3 27 20 60 38 87 48 109 90 75
139 -30 43 -67 39 -163 -16 l-87 -51 -32 34 c-55 59 -68 156 -33 235 12 25 59
84 110 135 105 107 133 160 133 251 0 104 -24 141 -197 314 l-154 154 24 70
c31 91 85 207 96 207 5 0 55 -27 111 -60 118 -69 154 -75 186 -34 44 56 22 88
-110 164 -60 34 -109 66 -109 72 0 19 88 135 167 218 75 81 212 197 270 232
l29 16 59 -105 c81 -143 113 -166 169 -122 41 32 34 67 -35 191 -34 60 -60
110 -58 112 16 14 122 60 205 89 129 45 233 66 422 86 9 1 12 -32 12 -134z"/>
<path d="M3775 4674 c-177 -96 -207 -129 -168 -183 39 -51 61 -50 162 8 l92
52 292 -169 292 -169 0 -174 c0 -199 -10 -252 -76 -389 -83 -174 -191 -285
-398 -405 l-111 -65 -113 67 c-201 118 -307 223 -388 384 -66 133 -81 200 -86
400 l-5 177 63 37 c35 20 74 46 87 58 41 38 19 109 -38 122 -35 8 -207 -90
-238 -136 -24 -34 -24 -37 -19 -244 4 -191 6 -218 31 -300 60 -202 179 -383
333 -505 113 -90 326 -210 373 -210 47 0 261 120 373 210 153 122 275 306 334
505 24 82 27 109 30 300 5 207 4 210 -19 244 -17 26 -100 79 -343 219 -363
210 -372 214 -460 166z"/>
<path d="M4008 3973 c-68 -76 -138 -153 -156 -173 l-33 -35 -97 102 c-53 56
-108 106 -122 111 -54 20 -110 -28 -96 -82 8 -31 257 -297 291 -310 46 -18 70
1 258 214 154 173 187 216 187 240 0 41 -31 70 -75 70 -31 0 -44 -11 -157
-137z"/>
<path d="M1934 2956 c-105 -26 -194 -100 -240 -200 -38 -81 -29 -137 23 -157
46 -17 80 5 101 65 52 154 224 201 337 92 87 -83 82 -172 -16 -333 -31 -51
-200 -287 -326 -456 -75 -100 -103 -146 -103 -167 0 -87 13 -90 358 -90 278 0
290 1 316 21 33 26 36 79 6 109 -19 19 -33 20 -245 20 l-226 0 59 78 c126 166
284 394 322 464 77 144 86 248 31 364 -69 145 -244 229 -397 190z"/>
<path d="M2966 2950 c-67 -21 -123 -105 -420 -638 -105 -188 -113 -217 -70
-251 25 -20 39 -21 270 -21 l244 0 0 -135 c0 -131 1 -137 25 -160 13 -14 36
-25 50 -25 14 0 37 11 50 25 24 23 25 29 25 160 l0 135 45 0 c35 0 52 6 70 25
53 52 13 125 -70 125 l-45 0 0 320 c0 271 -2 326 -16 360 -26 65 -94 99 -158
80z m21 -757 c-2 -2 -79 -2 -170 -1 l-165 3 104 185 c58 102 133 232 167 290
l62 105 3 -289 c1 -159 1 -291 -1 -293z"/>
</g>
</svg>
