<?xml version="1.0" standalone="no"?>
<!DOCTYPE svg PUBLIC "-//W3C//DTD SVG 20010904//EN"
 "http://www.w3.org/TR/2001/REC-SVG-20010904/DTD/svg10.dtd">
<svg version="1.0" xmlns="http://www.w3.org/2000/svg"
 width="512.000000pt" height="512.000000pt" viewBox="0 0 512.000000 512.000000"
 preserveAspectRatio="xMidYMid meet">

<g transform="translate(0.000000,512.000000) scale(0.100000,-0.100000)"
fill="#000000" stroke="none">
<path d="M3125 4837 c-74 -25 -110 -49 -203 -141 -141 -138 -179 -220 -169
-372 8 -140 37 -185 253 -405 l184 -185 -58 -57 -57 -56 -75 60 c-160 129
-299 210 -430 250 -99 31 -230 32 -312 3 l-57 -21 -52 53 c-44 45 -50 54 -40
72 6 11 11 38 11 58 0 36 -11 49 -197 237 -109 109 -210 205 -225 213 -15 8
-42 14 -60 14 -30 0 -81 -48 -598 -565 l-565 -565 0 -45 0 -45 210 -210 c258
-259 263 -261 375 -154 l56 53 67 -67 68 -68 29 -145 c49 -242 110 -387 228
-544 l65 -87 -94 -94 -93 -93 -186 183 c-220 217 -265 245 -404 253 -152 10
-234 -27 -374 -170 -128 -131 -147 -174 -147 -327 0 -107 2 -119 29 -175 21
-41 62 -93 133 -166 l103 -105 -41 -40 c-79 -75 -103 -184 -61 -276 27 -60
620 -650 676 -673 54 -23 145 -21 193 4 21 10 54 35 72 55 19 20 39 36 45 36
5 0 55 -44 110 -98 68 -66 120 -108 161 -128 56 -27 68 -29 175 -29 152 0 197
20 322 142 146 143 185 227 175 379 -8 140 -37 185 -253 404 l-183 186 92 91
92 92 77 -73 c94 -90 132 -109 225 -114 64 -4 80 -1 137 26 83 39 148 104 189
189 31 64 34 68 75 75 97 16 222 119 257 212 16 41 19 44 65 49 144 17 285
161 298 305 4 51 5 53 56 78 121 60 201 183 201 309 -1 91 -15 118 -123 228
l-87 87 125 125 124 124 186 -183 c219 -216 264 -245 404 -253 152 -10 234 27
374 170 128 131 147 174 147 327 0 107 -2 119 -29 175 -21 41 -62 93 -133 166
l-103 105 41 40 c22 21 50 57 61 79 26 50 28 147 3 196 -24 47 -620 645 -670
671 -86 46 -199 22 -274 -56 -19 -20 -39 -36 -45 -36 -5 0 -55 44 -110 98
-135 131 -184 156 -321 159 -63 2 -115 -2 -140 -10z m209 -212 c42 -20 1282
-1262 1295 -1298 14 -36 14 -118 0 -154 -15 -40 -147 -172 -194 -194 -49 -23
-113 -24 -163 -4 -51 21 -1264 1233 -1292 1291 -24 48 -26 111 -5 162 19 44
148 178 190 198 40 18 130 18 169 -1z m873 -417 c156 -156 283 -288 283 -294
0 -5 -14 -23 -30 -39 l-30 -29 -292 292 -292 292 29 30 c16 16 33 30 39 30 6
0 138 -127 293 -282z m-2444 -16 l107 -107 -460 -460 -460 -460 -112 113 -113
112 455 455 c250 250 460 455 465 455 6 0 59 -48 118 -108z m285 -424 c88 -88
95 -93 135 -93 28 0 55 9 82 27 22 15 61 32 88 39 125 31 327 -64 561 -262 5
-5 -9 -28 -32 -53 -37 -40 -42 -51 -42 -93 l0 -47 326 -327 c367 -368 351
-344 275 -420 -42 -42 -86 -58 -110 -40 -35 26 -85 42 -109 36 -13 -3 -38 -20
-55 -36 -26 -27 -29 -35 -24 -75 4 -37 13 -55 46 -88 46 -47 51 -74 21 -124
-22 -35 -74 -72 -103 -72 -11 0 -39 18 -64 40 -39 34 -53 40 -90 40 -87 0
-133 -90 -83 -165 32 -48 26 -82 -24 -131 -55 -56 -97 -60 -141 -14 -50 52
-134 49 -170 -6 -22 -33 -19 -90 6 -126 12 -16 22 -40 22 -53 -1 -59 -77 -135
-137 -135 -27 0 -69 38 -362 332 -345 348 -398 408 -464 531 -56 103 -84 191
-122 380 l-32 162 -90 93 -90 93 339 339 c187 187 342 340 345 340 2 0 46 -42
98 -92z m1417 -308 l120 -120 -120 -120 c-66 -66 -124 -120 -130 -120 -5 0
-63 53 -127 117 l-118 118 122 122 c68 68 125 123 128 123 3 0 59 -54 125
-120z m-2611 -1320 c58 -28 1270 -1241 1291 -1292 20 -50 19 -114 -4 -163 -22
-47 -154 -179 -194 -194 -36 -14 -118 -14 -154 0 -36 13 -1278 1253 -1298
1295 -17 37 -20 120 -4 161 15 40 147 172 194 194 52 24 119 24 169 -1z m991
-300 l120 -120 -93 -92 -92 -93 -122 122 -123 123 90 90 c49 49 92 90 95 90 3
0 59 -54 125 -120z m-852 -868 c259 -260 278 -281 266 -300 -7 -12 -24 -26
-37 -33 -22 -12 -36 0 -307 271 -157 157 -285 289 -285 294 0 6 12 22 26 38
20 20 31 25 43 18 9 -5 141 -134 294 -288z"/>
</g>
</svg>
