<?xml version="1.0" standalone="no"?>
<!DOCTYPE svg PUBLIC "-//W3C//DTD SVG 20010904//EN"
 "http://www.w3.org/TR/2001/REC-SVG-20010904/DTD/svg10.dtd">
<svg version="1.0" xmlns="http://www.w3.org/2000/svg"
 width="512.000000pt" height="512.000000pt" viewBox="0 0 512.000000 512.000000"
 preserveAspectRatio="xMidYMid meet">

<g transform="translate(0.000000,512.000000) scale(0.100000,-0.100000)"
fill="#000000" stroke="none">
<path d="M2618 5104 c-30 -16 -58 -61 -58 -93 0 -11 18 -55 40 -98 84 -163 75
-238 -49 -412 -41 -58 -76 -148 -86 -221 -18 -134 76 -389 158 -428 62 -30
147 22 147 90 0 16 -19 68 -42 115 -35 70 -43 98 -46 154 -5 83 5 111 69 201
63 87 86 134 105 211 22 82 14 189 -20 286 -61 175 -135 241 -218 195z"/>
<path d="M1741 4659 c-40 -40 -40 -80 -1 -157 36 -72 37 -99 5 -143 -95 -130
-114 -188 -97 -289 21 -118 98 -230 158 -230 57 0 114 55 114 110 0 11 -13 46
-30 77 -42 78 -40 119 7 175 20 23 47 67 61 96 20 45 23 65 20 130 -10 195
-143 325 -237 231z"/>
<path d="M3449 4661 c-42 -42 -42 -90 -2 -159 38 -64 36 -110 -8 -163 -68 -83
-84 -124 -84 -220 0 -81 2 -91 40 -165 47 -92 84 -120 141 -109 20 3 46 17 59
31 38 40 37 71 -2 157 -23 52 -33 87 -29 102 3 13 28 53 55 88 57 77 77 141
67 229 -7 73 -55 177 -97 212 -44 37 -101 36 -140 -3z"/>
<path d="M4983 3938 c-17 -4 -41 -20 -52 -34 -21 -26 -21 -37 -21 -470 l0
-444 -109 0 -109 0 -4 158 c-3 153 -4 159 -35 224 -75 159 -216 250 -388 251
-107 0 -238 -53 -299 -122 l-20 -22 -35 34 c-138 130 -352 147 -516 42 -27
-18 -59 -42 -69 -54 l-20 -22 -35 34 c-138 130 -352 147 -516 42 -27 -18 -59
-42 -69 -54 l-20 -22 -35 34 c-138 130 -352 147 -516 42 -27 -18 -59 -42 -69
-54 l-20 -22 -35 34 c-158 149 -417 147 -577 -4 l-30 -29 -25 26 c-13 15 -41
37 -63 51 -157 100 -366 86 -507 -35 -48 -41 -114 -139 -124 -182 l-6 -28
-189 -4 -190 -3 -32 -33 -33 -32 -3 -124 -4 -123 -67 -5 c-40 -3 -78 -12 -94
-22 -36 -24 -52 -76 -37 -120 15 -48 52 -68 131 -74 l67 -5 4 -123 3 -124 33
-32 32 -33 180 -3 180 -4 0 -1022 c0 -644 4 -1043 10 -1077 37 -200 221 -349
430 -349 81 0 191 47 283 122 l27 22 33 -31 c70 -66 189 -113 288 -113 90 0
196 44 292 122 l27 22 33 -31 c70 -66 189 -113 288 -113 90 0 196 44 292 122
l27 22 33 -31 c70 -66 187 -113 283 -113 94 0 199 43 297 122 l27 22 33 -31
c70 -66 187 -113 283 -113 94 0 199 43 297 122 l27 22 33 -31 c68 -64 187
-113 277 -113 184 0 350 121 411 298 18 53 19 103 19 1263 l0 1207 178 4 c197
3 220 10 241 70 15 43 15 993 0 1036 -17 50 -69 75 -126 60z m-3828 -547 c51
-23 101 -79 114 -128 7 -26 11 -497 11 -1458 0 -1356 -1 -1422 -19 -1460 -37
-82 -107 -128 -196 -128 -98 0 -185 71 -205 167 -7 35 -9 505 -8 1461 l3 1410
22 42 c23 43 69 84 113 102 40 16 122 12 165 -8z m640 0 c51 -23 101 -79 114
-128 7 -26 11 -497 11 -1458 0 -1356 -1 -1422 -19 -1460 -37 -82 -107 -128
-196 -128 -98 0 -185 71 -205 167 -7 35 -9 505 -8 1461 l3 1410 22 42 c23 43
69 84 113 102 40 16 122 12 165 -8z m640 0 c51 -23 101 -79 114 -128 7 -26 11
-497 11 -1458 0 -1356 -1 -1422 -19 -1460 -37 -82 -107 -128 -196 -128 -98 0
-185 71 -205 167 -7 35 -9 505 -8 1461 l3 1410 22 42 c23 43 69 84 113 102 40
16 122 12 165 -8z m640 0 c51 -23 101 -79 114 -128 7 -26 11 -497 11 -1458 0
-1356 -1 -1422 -19 -1460 -76 -167 -297 -173 -384 -10 l-22 40 0 1440 0 1440
22 42 c23 43 69 84 113 102 40 16 122 12 165 -8z m640 0 c51 -23 101 -79 114
-128 7 -26 11 -497 11 -1458 0 -1356 -1 -1422 -19 -1460 -76 -167 -297 -173
-384 -10 l-22 40 0 1440 0 1440 22 42 c23 43 69 84 113 102 40 16 122 12 165
-8z m640 0 c51 -23 101 -79 114 -128 7 -26 11 -497 11 -1458 0 -1356 -1 -1422
-19 -1460 -76 -167 -297 -173 -384 -10 l-22 40 0 1440 0 1440 22 42 c23 43 69
84 113 102 40 16 122 12 165 -8z m-3715 -511 l0 -210 -105 0 -105 0 0 210 0
210 105 0 105 0 0 -210z"/>
</g>
</svg>
