<?xml version="1.0" standalone="no"?>
<!DOCTYPE svg PUBLIC "-//W3C//DTD SVG 20010904//EN"
 "http://www.w3.org/TR/2001/REC-SVG-20010904/DTD/svg10.dtd">
<svg version="1.0" xmlns="http://www.w3.org/2000/svg"
 width="512.000000pt" height="512.000000pt" viewBox="0 0 512.000000 512.000000"
 preserveAspectRatio="xMidYMid meet">

<g transform="translate(0.000000,512.000000) scale(0.100000,-0.100000)"
fill="#000000" stroke="none">
<path d="M2379 4640 c-816 -56 -1574 -429 -2137 -1053 -159 -176 -200 -233
-224 -311 -89 -291 186 -552 448 -426 43 22 76 54 232 232 325 371 801 664
1274 783 339 86 709 98 1046 34 377 -72 737 -237 1067 -488 94 -72 292 -262
470 -453 92 -98 134 -118 245 -118 216 0 370 232 302 456 -28 92 -106 189
-326 409 -230 229 -509 445 -575 445 -53 0 -85 -51 -65 -104 4 -9 45 -43 93
-76 153 -105 303 -231 451 -379 175 -176 265 -286 281 -344 34 -128 -48 -257
-163 -257 -69 0 -94 16 -180 117 -483 564 -1130 910 -1822 974 -157 14 -449 7
-596 -16 -642 -98 -1222 -425 -1663 -938 -60 -70 -124 -135 -141 -144 -66 -34
-153 -12 -199 49 -73 99 -63 192 35 315 83 105 311 337 428 435 899 757 2089
924 3134 439 49 -22 99 -41 112 -41 55 0 87 86 46 123 -28 26 -215 110 -357
162 -377 137 -827 202 -1216 175z"/>
<path d="M2415 3534 c-364 -30 -714 -151 -1020 -352 -150 -98 -269 -198 -408
-340 -140 -145 -172 -206 -171 -332 1 -150 64 -258 186 -319 51 -26 73 -31
132 -31 112 0 154 25 326 193 254 249 483 377 801 449 90 20 131 23 304 23
218 0 284 -10 464 -67 249 -79 452 -209 670 -429 132 -133 170 -154 286 -154
65 0 89 5 130 25 172 84 241 303 154 488 -29 62 -281 314 -409 409 -300 223
-626 361 -987 417 -103 16 -365 27 -458 20z m320 -154 c382 -36 751 -182 1055
-418 111 -87 306 -276 336 -328 64 -108 23 -256 -83 -300 -77 -33 -140 -8
-226 90 -68 77 -222 208 -327 278 -99 66 -314 170 -417 202 -191 59 -271 70
-508 70 -242 0 -333 -13 -520 -75 -270 -90 -556 -279 -751 -497 -67 -75 -97
-92 -162 -92 -130 0 -214 170 -148 299 9 17 58 74 108 127 444 464 1045 700
1643 644z"/>
<path d="M2440 2423 c-239 -26 -488 -136 -677 -300 -44 -38 -71 -72 -93 -117
-121 -244 61 -539 315 -513 68 7 127 33 190 85 57 48 156 102 233 127 56 18
72 36 72 83 0 29 -20 54 -53 65 -26 9 -163 -37 -230 -77 -32 -20 -85 -56 -118
-80 -33 -25 -76 -48 -95 -52 -102 -19 -204 81 -204 200 0 89 50 155 189 248
336 228 756 247 1106 52 95 -53 201 -137 232 -183 61 -91 26 -248 -67 -296
-16 -8 -51 -15 -78 -15 -41 0 -58 6 -98 35 -154 111 -279 172 -329 159 -52
-13 -73 -85 -35 -119 10 -9 53 -32 95 -50 41 -18 108 -58 148 -89 86 -66 138
-86 221 -86 128 0 228 65 288 188 30 61 33 75 33 157 0 78 -4 99 -29 153 -49
106 -197 226 -391 318 -187 88 -422 129 -625 107z"/>
<path d="M2455 1237 c-194 -65 -310 -248 -276 -435 48 -262 322 -403 554 -286
148 76 240 255 208 411 -37 187 -181 313 -366 320 -48 2 -96 -2 -120 -10z
m178 -148 c48 -13 112 -70 140 -123 48 -93 16 -226 -71 -292 -155 -119 -378
-6 -377 191 2 160 150 268 308 224z"/>
</g>
</svg>
