<?xml version="1.0" standalone="no"?>
<!DOCTYPE svg PUBLIC "-//W3C//DTD SVG 20010904//EN"
 "http://www.w3.org/TR/2001/REC-SVG-20010904/DTD/svg10.dtd">
<svg version="1.0" xmlns="http://www.w3.org/2000/svg"
 width="512.000000pt" height="512.000000pt" viewBox="0 0 512.000000 512.000000"
 preserveAspectRatio="xMidYMid meet">

<g transform="translate(0.000000,512.000000) scale(0.100000,-0.100000)"
fill="#000000" stroke="none">
<path d="M2444 4710 c-29 -5 -81 -20 -116 -33 -89 -32 -2082 -1171 -2136
-1221 -23 -21 -57 -68 -75 -105 l-32 -66 0 -725 0 -725 32 -65 c18 -36 49 -82
70 -102 37 -36 1973 -1151 2098 -1209 74 -33 193 -59 275 -59 79 0 198 25 268
56 110 48 2057 1168 2100 1207 23 22 57 69 75 106 l32 66 0 725 0 725 -32 65
c-18 36 -49 82 -71 103 -25 24 -412 251 -1062 622 -811 464 -1039 590 -1104
611 -91 28 -237 39 -322 24z m234 -165 c34 -8 86 -27 115 -41 89 -45 487 -275
487 -282 0 -3 -14 -26 -32 -52 l-32 -46 -178 104 c-99 57 -207 114 -242 127
-147 55 -326 55 -474 -1 -37 -14 -481 -267 -987 -562 -769 -449 -921 -542
-929 -565 -23 -66 -58 -42 939 -625 712 -415 949 -548 1010 -569 70 -23 96
-27 205 -27 109 0 135 4 205 27 62 20 295 152 1010 569 998 583 962 559 939
626 -8 22 -65 60 -309 202 -166 96 -349 203 -408 238 l-108 63 26 42 c14 23
29 48 33 55 10 16 830 -448 878 -496 70 -71 70 -193 -1 -265 -31 -31 -1968
-1144 -2066 -1187 -125 -54 -294 -49 -424 14 -134 65 -2009 1144 -2040 1175
-71 69 -71 193 1 263 26 26 1291 757 1913 1106 213 119 316 143 469 107z
m-198 -514 l0 -199 -47 -7 c-26 -4 -76 -18 -110 -30 -35 -13 -352 -193 -706
-400 -354 -206 -650 -375 -657 -375 -15 0 -310 172 -310 180 0 12 1688 991
1740 1009 97 34 90 48 90 -178z m245 179 c57 -20 425 -227 425 -239 0 -3 -5
-24 -11 -46 -6 -22 -13 -99 -17 -172 l-7 -131 -120 71 c-132 77 -234 121 -307
132 l-48 7 0 199 c0 160 3 199 13 199 8 0 40 -9 72 -20z m845 -147 c63 -36
145 -83 183 -105 l68 -39 -21 -29 c-29 -41 -79 -151 -97 -212 -9 -32 -17 -118
-20 -215 -3 -90 -8 -163 -10 -163 -3 0 -92 51 -199 113 l-194 112 0 141 c0 77
5 167 11 199 20 111 115 282 148 270 9 -4 68 -36 131 -72z m-845 -413 c59 -20
1265 -716 1265 -730 0 -13 -1205 -709 -1265 -731 -90 -33 -246 -32 -335 2 -63
25 -1252 712 -1258 727 -3 11 1192 707 1248 727 111 40 239 42 345 5z m1743
-449 c4 -13 -297 -184 -317 -178 -9 2 -83 43 -164 91 l-147 87 0 178 c0 98 2
180 6 183 6 7 618 -348 622 -361z m-4050 -399 l62 -36 0 -549 0 -549 -47 28
c-81 46 -137 86 -153 107 -37 52 -38 73 -39 590 l-1 509 58 -32 c31 -18 85
-49 120 -68z m4451 -937 c-19 -67 -47 -93 -171 -164 l-58 -32 0 548 0 548 118
67 117 67 3 -497 c2 -354 0 -508 -9 -537z m-3507 397 l713 -408 3 -548 c1
-303 -2 -546 -6 -544 -5 1 -329 185 -720 408 l-711 405 0 548 c-1 301 1 547 3
547 2 0 325 -184 718 -408z m3118 -139 l-1 -548 -710 -405 c-390 -223 -714
-407 -720 -408 -6 -2 -8 198 -7 544 l3 547 715 408 c393 225 716 409 717 409
2 0 3 -246 3 -547z m-2052 -428 c126 -27 263 -14 391 38 l61 25 0 -550 0 -549
-82 -39 c-163 -78 -317 -78 -475 0 l-83 41 0 548 0 549 61 -25 c33 -13 90 -31
127 -38z"/>
<path d="M2376 3424 c-75 -18 -160 -63 -222 -119 l-49 -44 57 -57 57 -57 38
34 c52 47 120 78 197 92 82 14 174 -7 266 -62 99 -59 179 -83 298 -89 l102 -5
0 82 0 81 -73 0 c-93 0 -163 20 -258 76 -131 76 -279 101 -413 68z"/>
<path d="M1736 3104 c-75 -18 -160 -63 -222 -119 l-49 -44 57 -57 57 -57 38
34 c52 47 120 78 197 92 82 14 174 -7 266 -62 99 -59 179 -83 298 -89 l102 -5
0 82 0 81 -73 0 c-93 0 -163 20 -258 76 -131 76 -279 101 -413 68z"/>
<path d="M2995 2869 c-65 -15 -126 -39 -195 -80 -85 -49 -156 -69 -247 -69
l-73 0 0 -80 0 -80 78 0 c107 0 218 30 311 84 42 25 103 52 135 61 115 33 244
2 335 -81 l42 -37 57 57 57 57 -49 44 c-122 109 -300 158 -451 124z"/>
</g>
</svg>
