<?xml version="1.0" standalone="no"?>
<!DOCTYPE svg PUBLIC "-//W3C//DTD SVG 20010904//EN"
 "http://www.w3.org/TR/2001/REC-SVG-20010904/DTD/svg10.dtd">
<svg version="1.0" xmlns="http://www.w3.org/2000/svg"
 width="512.000000pt" height="512.000000pt" viewBox="0 0 512.000000 512.000000"
 preserveAspectRatio="xMidYMid meet">

<g transform="translate(0.000000,512.000000) scale(0.100000,-0.100000)"
fill="#000000" stroke="none">
<path d="M196 4414 c-35 -11 -65 -32 -107 -73 -97 -97 -89 32 -89 -1526 0
-1558 -8 -1429 89 -1526 93 -92 63 -89 776 -89 604 0 613 0 639 21 36 28 36
80 0 108 -26 21 -35 21 -638 21 -592 0 -612 1 -644 20 -18 11 -41 34 -52 52
-20 33 -20 50 -18 1400 3 1364 3 1367 24 1395 11 15 36 36 55 45 32 17 156 18
2164 18 2008 0 2132 -1 2164 -18 62 -31 76 -61 79 -173 2 -54 1 -99 -2 -99 -4
0 -37 15 -74 34 -149 75 -343 114 -505 102 -451 -34 -817 -355 -913 -801 -17
-77 -22 -249 -11 -336 l8 -57 -34 -6 c-55 -10 -123 -60 -154 -113 -24 -41 -28
-59 -28 -118 1 -67 8 -92 48 -147 10 -16 -64 -93 -630 -660 -737 -739 -663
-642 -663 -874 0 -161 11 -206 66 -260 58 -59 94 -66 288 -62 179 4 198 9 269
77 63 59 71 82 77 216 l5 120 110 1 c132 1 165 14 229 85 54 60 65 102 58 217
-3 64 -1 91 8 97 6 4 58 7 115 6 123 -2 159 11 224 85 52 60 65 107 57 210 -9
110 -5 115 112 107 102 -7 147 4 196 48 l33 28 44 -22 c59 -29 148 -29 205 0
64 34 101 82 128 166 5 16 13 17 73 10 214 -25 412 7 585 93 37 19 70 34 73
34 3 0 4 -186 3 -414 -3 -401 -4 -415 -24 -443 -11 -15 -36 -36 -55 -45 -31
-17 -90 -18 -789 -18 -810 -1 -779 1 -799 -51 -11 -30 8 -83 34 -93 9 -3 357
-6 774 -6 643 0 765 2 808 15 63 19 135 81 171 149 l27 51 3 484 3 484 56 61
c117 126 202 285 246 456 32 129 30 349 -6 482 -43 164 -134 325 -252 448
l-43 45 -4 170 c-3 161 -5 173 -30 220 -31 59 -76 104 -138 136 l-45 24 -2165
2 c-1906 1 -2171 0 -2214 -13z m4069 -449 c322 -57 575 -282 671 -600 24 -80
27 -106 27 -235 0 -129 -3 -155 -26 -233 -102 -333 -370 -562 -712 -608 -95
-12 -189 -7 -295 17 l-66 15 -277 277 -277 277 -16 75 c-9 41 -16 122 -16 180
-2 525 471 925 987 835z m-791 -1474 c284 -285 289 -290 282 -323 -8 -42 -32
-66 -74 -74 -33 -7 -38 -2 -318 277 -156 156 -287 292 -290 302 -15 48 29 107
80 107 27 0 68 -37 320 -289z m-216 -234 c162 -162 163 -163 143 -182 -18 -16
-32 -17 -107 -11 -108 8 -157 -4 -205 -53 -49 -48 -62 -99 -53 -204 6 -80 6
-84 -21 -115 l-27 -33 -112 2 c-123 3 -154 -7 -199 -60 -40 -48 -50 -93 -44
-194 4 -86 4 -90 -22 -119 -26 -30 -27 -30 -147 -31 -116 -2 -122 -3 -157 -30
-62 -47 -77 -89 -77 -215 0 -100 -2 -110 -22 -129 -43 -38 -64 -43 -202 -43
-185 0 -179 -7 -174 186 l3 144 625 625 c344 344 627 625 630 625 3 0 78 -73
168 -163z"/>
<path d="M4267 3676 c-164 -59 -248 -237 -192 -406 22 -66 92 -142 162 -176
73 -36 184 -39 254 -7 137 62 218 210 189 347 -22 107 -80 181 -175 227 -49
24 -73 29 -130 29 -38 -1 -87 -7 -108 -14z m179 -152 c99 -47 119 -181 40
-260 -59 -59 -154 -65 -220 -13 -87 69 -73 223 25 272 43 21 111 21 155 1z"/>
<path d="M560 3997 c-47 -15 -116 -86 -129 -133 -6 -22 -11 -129 -11 -242 0
-202 0 -203 25 -227 13 -14 36 -25 50 -25 14 0 37 11 50 25 25 24 25 25 25
225 0 187 1 201 20 220 20 20 33 20 598 20 507 0 580 -2 600 -16 l22 -15 0
-578 c0 -643 5 -598 -70 -608 l-40 -6 0 60 c0 148 -53 280 -153 377 l-63 62
26 54 c36 80 36 201 -1 281 -37 78 -90 133 -163 169 -180 88 -381 16 -469
-168 -42 -89 -43 -190 -3 -277 l27 -59 -52 -50 c-104 -102 -152 -207 -164
-358 -7 -88 -8 -88 -35 -88 -15 0 -39 9 -54 21 l-26 20 0 220 0 220 -25 24
c-13 14 -36 25 -50 25 -14 0 -37 -11 -50 -25 l-25 -24 0 -229 0 -230 28 -53
c20 -39 41 -62 77 -84 l48 -30 616 0 c612 0 616 0 656 22 46 24 76 55 99 100
14 28 16 99 16 632 0 347 -4 610 -9 624 -16 40 -73 99 -116 118 -37 17 -80 19
-640 18 -410 -1 -611 -5 -635 -12z m727 -494 c21 -11 52 -39 68 -62 26 -37 30
-51 30 -111 0 -60 -4 -74 -30 -111 -69 -98 -202 -115 -291 -37 -49 43 -67 83
-67 148 0 62 17 101 61 143 61 58 152 70 229 30z m158 -537 c64 -65 96 -139
103 -241 l5 -85 -359 2 -359 3 3 72 c3 105 32 174 103 246 46 48 62 59 81 54
13 -3 53 -13 90 -22 76 -20 149 -15 213 14 47 22 59 17 120 -43z"/>
<path d="M471 2299 c-52 -21 -67 -78 -31 -117 l21 -22 733 0 c697 0 734 1 749
18 24 27 22 85 -4 108 -20 18 -48 19 -733 21 -444 1 -720 -2 -735 -8z"/>
<path d="M441 1944 c-26 -33 -27 -65 -2 -95 l19 -24 725 -3 c721 -2 724 -2
750 19 34 26 37 79 7 109 -20 20 -33 20 -749 20 l-730 0 -20 -26z"/>
</g>
</svg>
