<?xml version="1.0" standalone="no"?>
<!DOCTYPE svg PUBLIC "-//W3C//DTD SVG 20010904//EN"
 "http://www.w3.org/TR/2001/REC-SVG-20010904/DTD/svg10.dtd">
<svg version="1.0" xmlns="http://www.w3.org/2000/svg"
 width="512.000000pt" height="512.000000pt" viewBox="0 0 512.000000 512.000000"
 preserveAspectRatio="xMidYMid meet">

<g transform="translate(0.000000,512.000000) scale(0.100000,-0.100000)"
fill="#000000" stroke="none">
<path d="M3477 4744 c-65 -20 -129 -84 -152 -153 -15 -47 -15 -54 -1 -76 35
-53 93 -37 114 33 22 73 105 109 172 75 43 -22 60 -54 60 -117 0 -46 -3 -52
-55 -100 -62 -59 -75 -86 -75 -162 0 -43 -4 -56 -17 -60 -66 -20 -126 -57
-184 -111 l-66 -63 -1121 0 -1121 0 -58 -21 c-72 -28 -144 -94 -180 -168 l-28
-56 -3 -793 -3 -793 -37 8 c-20 4 -85 8 -144 8 -104 0 -107 -1 -145 -31 -77
-62 -73 -12 -73 -821 0 -485 3 -731 11 -750 14 -39 67 -91 104 -103 17 -6 53
-11 79 -12 40 -2 50 -7 61 -28 19 -36 73 -84 125 -111 l45 -24 1405 0 1405 0
55 26 c65 31 132 96 163 159 l22 45 3 743 2 742 281 0 c276 0 311 4 331 34 4
6 8 291 8 634 l0 622 133 0 c104 0 137 3 155 16 65 45 -18 216 -147 302 -41
27 -108 56 -203 87 -79 26 -180 65 -224 86 -74 35 -93 50 -205 169 -131 139
-186 182 -261 201 l-48 11 0 48 c0 44 3 50 44 84 58 47 86 106 86 180 0 32 -6
77 -12 100 -18 59 -84 121 -149 140 -64 19 -89 19 -152 0z m230 -689 c23 -10
93 -73 183 -164 169 -171 188 -183 427 -265 88 -30 174 -61 191 -70 38 -20
112 -89 112 -104 0 -8 -33 -12 -108 -12 -98 0 -111 2 -128 21 -10 12 -39 33
-64 48 l-45 26 -644 3 c-716 3 -700 4 -779 -63 l-40 -35 -106 0 c-58 0 -106 3
-106 6 0 17 46 66 88 93 27 17 122 56 212 86 252 86 298 115 465 299 109 120
152 146 242 146 35 0 80 -7 100 -15z m-561 -184 c-30 -33 -127 -78 -295 -136
-174 -60 -243 -97 -310 -167 -50 -52 -91 -134 -91 -182 0 -58 22 -66 177 -66
l133 0 0 -100 0 -100 -940 0 -940 0 0 293 c0 173 4 307 11 330 13 49 63 105
114 128 38 18 96 19 1099 19 1038 0 1059 0 1042 -19z m1113 -469 c19 -9 44
-30 55 -45 21 -28 21 -40 24 -618 l2 -589 -730 0 -730 0 2 589 c3 578 3 590
24 618 48 65 25 63 704 63 566 0 618 -1 649 -18z m-1499 -542 c0 -77 -2 -140
-5 -140 -3 0 -33 12 -67 26 -207 87 -470 97 -693 27 -237 -75 -431 -228 -567
-450 l-51 -83 -114 0 c-149 0 -153 -4 -153 -130 0 -49 -2 -90 -5 -90 -3 0 -22
11 -43 24 -21 13 -70 40 -110 60 l-72 36 0 430 0 430 940 0 940 0 0 -140z
m-221 -190 c41 -11 108 -36 148 -55 l73 -34 0 -115 0 -115 -77 49 c-114 72
-212 102 -351 108 -136 6 -219 -11 -337 -68 -150 -73 -250 -173 -325 -325 -22
-44 -48 -109 -57 -145 -23 -89 -23 -264 0 -349 54 -197 192 -367 370 -454 393
-191 853 -2 993 408 35 104 44 274 20 378 -9 38 -16 70 -16 73 0 3 44 3 98 2
l97 -3 12 -55 c17 -81 15 -259 -3 -348 -126 -617 -846 -919 -1369 -574 l-86
57 -30 90 c-36 107 -93 231 -154 335 l-44 75 -1 303 -2 302 32 53 c137 223
334 362 601 422 94 21 311 14 408 -15z m-42 -310 c76 -26 163 -82 221 -140 38
-38 42 -47 42 -92 0 -64 13 -86 55 -94 29 -5 36 -12 50 -53 9 -25 19 -76 22
-112 5 -61 4 -67 -18 -83 -42 -29 -75 -21 -132 33 -69 64 -104 81 -172 81 -68
0 -118 -23 -168 -79 -80 -88 -105 -89 -197 -7 -86 77 -168 93 -250 51 -14 -8
-50 -38 -81 -69 -45 -44 -63 -56 -89 -56 -55 0 -70 15 -70 68 1 251 185 489
435 564 85 25 265 19 352 -12z m-1119 -412 c1 -93 0 -168 -3 -168 -3 0 -37 32
-75 70 l-70 71 0 100 0 100 73 -3 72 -3 3 -167z m-798 -608 l0 -740 -32 0
c-17 0 -40 7 -50 17 -17 15 -18 51 -18 721 0 785 -4 742 67 742 l33 0 0 -740z
m200 705 c380 -129 712 -528 841 -1011 31 -114 32 -127 33 -316 l1 -197 -35
-36 c-19 -19 -50 -40 -70 -46 -22 -6 -166 -9 -392 -7 -344 3 -358 4 -385 24
-15 11 -38 36 -50 54 l-23 33 0 763 c0 420 1 764 3 764 2 0 36 -11 77 -25z
m2938 -748 l-3 -733 -24 -36 c-29 -41 -75 -75 -122 -88 -32 -9 -1829 -15
-1829 -6 0 2 10 25 21 51 20 45 21 61 17 245 l-3 197 92 -44 c51 -24 136 -56
190 -70 85 -23 118 -26 248 -26 130 0 164 4 250 27 289 76 529 273 660 541 79
161 98 246 99 430 1 83 -3 171 -7 198 l-8 47 211 0 210 0 -2 -733z m-1059 430
c61 -55 111 -77 175 -77 23 0 36 -5 36 -13 0 -7 -18 -51 -40 -97 -31 -63 -58
-100 -113 -155 -233 -232 -598 -232 -831 0 -65 64 -122 150 -141 213 -6 20 -3
22 37 22 58 1 115 28 160 78 78 87 111 90 189 17 65 -61 104 -79 169 -79 69 1
102 18 172 88 76 76 104 77 187 3z"/>
<path d="M1190 3727 c-60 -40 -74 -78 -79 -205 -5 -163 4 -215 42 -259 56 -63
52 -63 521 -63 275 0 435 4 453 11 15 5 42 24 60 41 44 43 57 105 51 259 -4
140 -17 176 -78 216 l-33 23 -452 0 -452 0 -33 -23z m920 -116 c17 -33 13
-243 -6 -269 l-15 -22 -414 0 c-363 0 -416 2 -429 16 -13 12 -16 40 -16 135 0
66 5 129 10 140 10 18 26 19 435 19 409 0 425 -1 435 -19z"/>
<path d="M966 1691 c-15 -17 -16 -56 -14 -443 l3 -425 27 -35 c34 -44 102 -73
153 -65 19 3 80 22 135 42 161 60 190 110 171 294 -13 123 -50 239 -112 347
-76 134 -256 304 -322 304 -13 0 -31 -8 -41 -19z m278 -384 c51 -104 72 -178
82 -287 5 -65 4 -78 -12 -97 -18 -20 -173 -83 -205 -83 -37 0 -39 16 -39 359
l1 336 64 -68 c44 -47 77 -96 109 -160z"/>
</g>
</svg>
