<?xml version="1.0" standalone="no"?>
<!DOCTYPE svg PUBLIC "-//W3C//DTD SVG 20010904//EN"
 "http://www.w3.org/TR/2001/REC-SVG-20010904/DTD/svg10.dtd">
<svg version="1.0" xmlns="http://www.w3.org/2000/svg"
 width="512.000000pt" height="512.000000pt" viewBox="0 0 512.000000 512.000000"
 preserveAspectRatio="xMidYMid meet">

<g transform="translate(0.000000,512.000000) scale(0.100000,-0.100000)"
fill="#000000" stroke="none">
<path d="M2470 5109 c-118 -23 -238 -119 -291 -233 -34 -73 -49 -153 -49 -273
l0 -83 -58 0 c-50 0 -62 -4 -83 -26 l-24 -26 0 -545 0 -545 28 -24 28 -24 539
0 539 0 28 24 28 24 0 545 0 545 -24 26 c-21 22 -33 26 -83 26 l-58 0 0 83
c-1 184 -39 297 -132 390 -103 103 -242 145 -388 116z m166 -174 c67 -20 126
-72 154 -137 19 -44 23 -72 24 -163 l1 -110 -255 0 -255 0 1 110 c1 133 23
196 88 251 68 59 153 76 242 49z m354 -1010 l0 -425 -430 0 -430 0 0 425 0
425 430 0 430 0 0 -425z"/>
<path d="M2455 4156 c-55 -25 -110 -81 -132 -134 -22 -53 -18 -155 7 -205 51
-100 120 -142 230 -142 110 0 179 42 230 142 25 50 29 152 7 205 -38 91 -138
158 -237 158 -37 0 -72 -8 -105 -24z m160 -171 c52 -51 16 -145 -55 -145 -44
0 -80 39 -80 85 0 46 36 85 80 85 19 0 40 -9 55 -25z"/>
<path d="M510 4185 l0 -85 85 0 85 0 0 85 0 85 -85 0 -85 0 0 -85z"/>
<path d="M857 4263 c-4 -3 -7 -42 -7 -85 l0 -78 85 0 85 0 0 85 0 85 -78 0
c-43 0 -82 -3 -85 -7z"/>
<path d="M1197 4264 c-4 -4 -7 -43 -7 -86 l0 -78 90 0 91 0 -3 83 -3 82 -80 3
c-45 1 -84 0 -88 -4z"/>
<path d="M1540 4185 l0 -85 85 0 86 0 -3 83 -3 82 -82 3 -83 3 0 -86z"/>
<path d="M3330 4185 l0 -85 85 0 85 0 0 85 0 85 -85 0 -85 0 0 -85z"/>
<path d="M3670 4185 l0 -85 85 0 85 0 0 85 0 85 -85 0 -85 0 0 -85z"/>
<path d="M4010 4185 l0 -85 85 0 85 0 0 85 0 85 -85 0 -85 0 0 -85z"/>
<path d="M4350 4185 l0 -85 85 0 85 0 0 85 0 85 -85 0 -85 0 0 -85z"/>
<path d="M4697 4263 c-4 -3 -7 -42 -7 -85 l0 -78 85 0 85 0 0 85 0 85 -78 0
c-43 0 -82 -3 -85 -7z"/>
<path d="M514 3917 c-3 -8 -4 -47 -2 -88 l3 -74 83 -3 82 -3 0 91 0 90 -80 0
c-58 0 -82 -4 -86 -13z"/>
<path d="M4694 3917 c-3 -8 -4 -47 -2 -88 l3 -74 83 -3 82 -3 0 91 0 90 -80 0
c-58 0 -82 -4 -86 -13z"/>
<path d="M510 3495 l0 -85 85 0 85 0 0 85 0 85 -85 0 -85 0 0 -85z"/>
<path d="M3330 3495 l0 -85 85 0 85 0 0 -169 0 -169 -222 -4 -223 -3 -75 -36
c-161 -78 -250 -225 -250 -415 l0 -54 -170 0 -170 0 0 54 c0 190 -89 337 -250
415 l-75 36 -418 3 c-364 3 -426 1 -475 -13 -113 -33 -189 -88 -249 -183 -43
-67 -61 -125 -69 -229 l-7 -83 -222 0 c-122 0 -246 -5 -275 -10 -170 -32 -308
-170 -340 -339 -14 -72 -13 -1450 0 -1521 35 -184 181 -319 373 -345 l47 -6 0
-72 c0 -84 21 -137 72 -189 66 -65 94 -73 268 -73 132 0 160 3 190 19 95 50
150 145 150 256 l0 60 509 0 508 0 7 -77 c10 -124 65 -206 163 -243 70 -26
274 -29 345 -4 102 34 162 121 174 251 l7 70 59 11 c85 16 160 54 221 111 l54
51 85 0 86 0 4 -77 c4 -87 22 -133 70 -182 97 -99 249 -104 350 -13 58 52 81
103 86 195 l5 77 128 0 129 0 0 -72 c0 -85 20 -138 72 -190 69 -69 158 -91
252 -64 110 32 173 118 183 249 l6 74 81 7 c45 3 104 12 132 21 106 31 220
139 265 252 l24 58 3 915 c3 679 0 929 -9 970 -25 116 -106 228 -204 283 l-40
23 -3 102 -3 102 -84 0 -85 0 0 -85 0 -85 -170 0 -170 0 0 170 0 170 85 0 85
0 0 85 0 85 -595 0 -595 0 0 -85z m850 -255 l0 -170 -255 0 -255 0 0 170 0
170 255 0 255 0 0 -170z m-2115 -364 c98 -45 155 -142 155 -263 l0 -53 -601 0
-602 0 7 77 c4 42 13 91 20 108 21 50 77 106 131 131 50 24 52 24 445 24 393
0 395 0 445 -24z m2730 0 c58 -27 99 -65 129 -121 20 -37 21 -57 24 -287 l3
-248 -858 0 -858 0 -19 52 c-47 132 -142 223 -278 267 l-38 13 0 57 c0 125 56
221 155 267 l50 24 820 0 820 0 50 -24z m-4115 -1427 l0 -941 -157 4 c-180 4
-222 17 -287 88 -67 74 -66 63 -66 856 0 688 1 715 20 767 24 65 80 121 146
147 40 16 75 19 197 20 l147 0 0 -941z m1710 1 l0 -940 -770 0 -770 0 0 940 0
940 770 0 770 0 0 -940z m536 913 c50 -27 97 -74 121 -122 17 -34 18 -87 21
-779 2 -739 2 -743 -19 -792 -12 -27 -41 -67 -64 -89 -62 -57 -119 -71 -287
-71 l-138 0 0 941 0 941 163 -4 c143 -3 167 -6 203 -25z m2024 -568 l0 -255
-855 0 -855 0 0 255 0 255 855 0 855 0 0 -255z m-2 -654 c3 -256 -5 -300 -63
-368 -19 -23 -56 -52 -83 -65 l-47 -23 -757 -3 -758 -3 0 339 c0 186 3 342 7
345 3 4 387 6 852 5 l846 -3 3 -224z m-1280 -691 c-5 -75 -29 -104 -84 -104
-55 0 -84 38 -84 110 l0 54 86 0 86 0 -4 -60z m772 20 c0 -112 -85 -167 -150
-98 -15 17 -20 35 -20 80 l0 58 85 0 85 0 0 -40z m-3502 -190 c-7 -92 -23
-104 -149 -108 -116 -4 -141 0 -169 30 -15 17 -20 35 -20 80 l0 58 171 0 171
0 -4 -60z m1712 28 c0 -61 -19 -107 -50 -123 -34 -17 -203 -21 -245 -5 -31 12
-55 63 -55 120 l0 40 175 0 175 0 0 -32z"/>
<path d="M1564 1853 c-10 -10 -78 -98 -151 -196 -97 -129 -133 -185 -133 -206
0 -20 37 -78 138 -212 76 -101 145 -190 154 -196 21 -18 62 -20 90 -4 13 7 85
96 161 197 139 188 150 211 125 257 -18 35 -248 340 -270 360 -12 10 -36 17
-58 17 -23 0 -46 -7 -56 -17z m135 -308 l71 -95 -71 -95 c-39 -52 -74 -95 -78
-95 -9 0 -141 178 -141 190 0 12 132 190 141 190 4 0 39 -43 78 -95z"/>
<path d="M4692 3498 l3 -83 83 -3 82 -3 0 86 0 85 -85 0 -86 0 3 -82z"/>
<path d="M510 3155 l0 -85 85 0 85 0 0 85 0 85 -85 0 -85 0 0 -85z"/>
<path d="M510 2815 l0 -85 85 0 85 0 0 85 0 85 -85 0 -85 0 0 -85z"/>
</g>
</svg>
