<?xml version="1.0" standalone="no"?>
<!DOCTYPE svg PUBLIC "-//W3C//DTD SVG 20010904//EN"
 "http://www.w3.org/TR/2001/REC-SVG-20010904/DTD/svg10.dtd">
<svg version="1.0" xmlns="http://www.w3.org/2000/svg"
 width="512.000000pt" height="512.000000pt" viewBox="0 0 512.000000 512.000000"
 preserveAspectRatio="xMidYMid meet">

<g transform="translate(0.000000,512.000000) scale(0.100000,-0.100000)"
fill="#000000" stroke="none">
<path d="M1420 5114 c-167 -21 -319 -67 -475 -144 -158 -78 -284 -170 -426
-310 -202 -200 -357 -434 -439 -665 -189 -534 -32 -1197 441 -1860 45 -63 88
-120 95 -126 11 -9 28 1 79 41 l65 52 -49 61 c-75 95 -215 314 -281 440 -117
222 -197 445 -236 659 -25 133 -25 394 0 508 38 175 108 336 219 500 220 327
526 557 854 642 100 26 138 30 248 31 143 1 214 -12 339 -65 159 -68 297 -169
496 -364 80 -78 155 -147 167 -153 52 -27 69 -17 212 122 208 203 336 299 507
378 128 61 219 81 354 81 418 1 835 -252 1120 -679 169 -255 232 -452 234
-733 1 -296 -63 -545 -226 -870 -125 -252 -271 -466 -475 -702 l-94 -108 57
-53 c31 -28 60 -53 64 -55 19 -7 279 312 398 489 383 571 530 1168 407 1644
-105 403 -421 813 -806 1044 -222 133 -537 216 -743 196 -210 -20 -370 -81
-563 -211 -119 -81 -188 -138 -314 -261 l-96 -94 -38 43 c-69 77 -228 218
-325 288 -159 114 -280 173 -435 211 -78 19 -263 32 -335 23z"/>
<path d="M1571 4503 c-11 -10 -120 -157 -241 -327 -169 -238 -220 -316 -220
-339 0 -25 19 -49 109 -141 139 -140 132 -139 299 -27 l121 81 104 0 c88 0
106 -3 120 -18 15 -17 17 -65 17 -479 l0 -460 -87 -36 c-360 -149 -693 -430
-882 -742 -215 -355 -294 -783 -222 -1205 10 -58 17 -106 16 -107 0 -2 -44 23
-96 55 l-94 57 -5 185 c-5 179 -6 186 -32 231 -52 88 -122 129 -222 129 -115
0 -210 -68 -241 -174 -20 -68 -21 -678 -1 -714 7 -14 163 -118 371 -248 l359
-224 1943 0 1942 0 191 96 192 95 29 62 c51 110 71 207 72 352 2 152 -12 215
-75 343 -74 152 -238 299 -404 364 -143 55 -175 58 -663 58 -376 0 -450 2
-460 14 -10 12 -1 20 54 46 36 17 90 51 120 75 l54 44 155 -44 c85 -25 161
-45 168 -45 8 0 21 26 31 64 9 36 20 71 23 79 4 10 -26 23 -122 50 -70 20
-129 39 -132 41 -3 3 7 32 21 63 38 86 48 137 46 221 l-2 76 97 41 c54 23 98
44 99 46 5 12 -58 149 -68 149 -7 0 -37 -11 -67 -24 l-55 -25 -7 47 c-5 36
-38 100 -143 275 -75 125 -144 232 -154 238 -10 5 -32 9 -50 9 -28 0 -49 -17
-159 -125 -99 -98 -132 -125 -153 -125 l-27 0 0 538 0 538 58 57 58 57 62 0
c62 0 64 -1 182 -80 117 -79 150 -91 195 -73 25 9 215 300 215 328 0 24 -348
558 -379 582 -11 9 -65 12 -172 13 -139 0 -159 -2 -180 -19 -13 -10 -58 -87
-99 -170 l-74 -151 -461 0 -461 0 -69 142 c-39 78 -81 154 -93 170 l-24 28
-203 0 c-178 0 -205 -2 -224 -17z m418 -311 c60 -118 87 -162 106 -170 37 -17
1063 -17 1100 0 19 8 46 52 106 170 l80 158 79 0 80 0 140 -210 c77 -115 140
-212 140 -215 0 -5 -73 -118 -86 -134 -2 -2 -49 26 -105 63 -97 65 -105 68
-174 73 -138 11 -157 3 -263 -100 -52 -51 -100 -104 -108 -119 -12 -22 -14
-125 -14 -588 l0 -560 -107 0 -106 0 -128 125 c-119 117 -130 125 -166 125
-54 0 -67 -16 -213 -260 -107 -178 -124 -212 -128 -257 -2 -29 -6 -53 -7 -53
-2 0 -32 13 -68 29 l-65 29 -32 -75 c-17 -42 -28 -79 -23 -84 4 -4 49 -25 98
-46 l90 -39 5 -110 c5 -107 7 -114 50 -200 25 -49 46 -92 48 -95 1 -3 -62 -29
-140 -58 -79 -29 -147 -57 -151 -60 -13 -12 48 -156 64 -153 8 2 92 32 187 68
l173 64 33 -25 c39 -30 168 -90 214 -100 l32 -7 0 -265 0 -266 -249 7 -248 7
-7 -80 c-4 -45 -5 -85 -1 -91 4 -6 98 -10 256 -10 l249 0 0 -255 0 -255 -83 0
-83 0 -13 62 c-7 34 -21 78 -31 98 -28 54 -98 120 -160 149 -48 23 -70 26
-182 29 l-127 4 -7 66 c-33 324 -259 592 -569 676 -33 9 -111 19 -172 23
l-113 6 0 -87 0 -86 73 0 c157 -1 305 -56 416 -156 125 -113 187 -253 197
-443 3 -58 10 -116 16 -128 17 -34 60 -43 215 -43 100 0 153 -4 176 -14 39
-16 82 -61 96 -99 24 -61 84 -57 -787 -57 l-798 0 -309 193 -310 194 -3 274
c-1 151 0 284 3 297 15 62 94 84 140 37 25 -24 25 -26 25 -217 0 -133 4 -201
13 -218 17 -33 461 -300 500 -300 40 0 62 14 77 49 11 26 8 43 -19 133 -43
145 -59 227 -71 377 -18 221 6 422 75 627 157 471 536 839 1058 1028 81 30 78
2 75 611 l-3 535 -68 67 -67 68 -158 0 -157 0 -109 -73 -108 -74 -34 33 c-19
18 -33 38 -30 44 2 6 82 120 177 253 l173 242 122 0 123 0 80 -158z m781
-1786 c21 -14 62 -16 308 -16 l283 0 104 101 103 100 91 -151 c89 -148 91
-153 91 -214 l0 -63 -137 -58 c-76 -32 -140 -60 -142 -62 -7 -5 53 -145 64
-149 6 -3 57 16 113 40 l102 45 0 -53 c0 -61 -52 -176 -79 -176 -9 0 -45 9
-80 20 -36 11 -66 18 -67 17 -4 -4 -44 -144 -44 -154 0 -5 12 -13 27 -19 l28
-9 -49 -24 c-28 -12 -81 -29 -119 -37 -88 -19 -101 -26 -117 -64 -19 -46 -1
-76 109 -183 69 -67 106 -95 130 -100 18 -4 245 -7 503 -7 l469 0 72 -24 c108
-37 164 -72 247 -155 87 -88 130 -168 154 -285 25 -120 18 -215 -27 -345 l-21
-63 -148 -74 -148 -74 -388 0 -388 0 -32 98 c-27 84 -32 113 -32 197 l0 99 61
92 c65 99 96 122 141 105 14 -5 31 -23 38 -40 11 -28 9 -37 -24 -107 -52 -110
-50 -126 29 -204 l66 -65 229 -3 230 -3 0 85 0 86 -194 0 c-127 0 -197 4 -201
11 -4 5 2 32 14 58 31 74 36 123 17 182 -31 95 -91 150 -184 170 -66 14 -135
-1 -190 -41 -23 -16 -73 -77 -118 -145 l-79 -117 -3 -140 c-3 -128 -1 -148 22
-223 14 -46 26 -86 26 -89 0 -3 -67 -6 -150 -6 l-150 0 0 300 0 300 -85 0 -85
0 0 -300 0 -300 -130 0 -130 0 0 654 c0 643 0 654 -20 679 -13 16 -35 29 -58
33 -59 10 -152 36 -157 45 -3 4 16 15 42 25 27 10 49 18 51 19 7 5 -52 147
-63 151 -6 3 -53 -11 -105 -31 -111 -42 -111 -42 -166 70 -28 56 -35 81 -32
117 l3 45 100 -43 c55 -24 105 -43 110 -43 6 -1 24 33 42 75 l32 75 -52 23
c-29 12 -94 40 -144 61 l-93 39 0 59 c0 56 4 65 92 213 l93 154 85 -84 c47
-46 96 -91 110 -100z"/>
<path d="M2220 3585 l0 -85 85 0 85 0 0 85 0 85 -85 0 -85 0 0 -85z"/>
<path d="M2730 3585 l0 -85 85 0 85 0 0 85 0 85 -85 0 -85 0 0 -85z"/>
<path d="M2390 3245 l0 -85 170 0 170 0 0 85 0 85 -170 0 -170 0 0 -85z"/>
<path d="M2730 2135 l0 -85 85 0 85 0 0 85 0 85 -85 0 -85 0 0 -85z"/>
<path d="M3240 2135 l0 -85 85 0 85 0 0 85 0 85 -85 0 -85 0 0 -85z"/>
<path d="M2990 1875 l0 -85 85 0 85 0 0 85 0 85 -85 0 -85 0 0 -85z"/>
</g>
</svg>
