<?xml version="1.0" standalone="no"?>
<!DOCTYPE svg PUBLIC "-//W3C//DTD SVG 20010904//EN"
 "http://www.w3.org/TR/2001/REC-SVG-20010904/DTD/svg10.dtd">
<svg version="1.0" xmlns="http://www.w3.org/2000/svg"
 width="512.000000pt" height="512.000000pt" viewBox="0 0 512.000000 512.000000"
 preserveAspectRatio="xMidYMid meet">

<g transform="translate(0.000000,512.000000) scale(0.100000,-0.100000)"
fill="#000000" stroke="none">
<path d="M1445 4474 c-850 -252 -1094 -328 -1108 -345 -15 -19 -17 -49 -17
-289 0 -247 1 -270 19 -291 20 -24 74 -32 119 -16 l22 8 0 -1370 0 -1371 -55
0 c-46 0 -60 -4 -80 -25 -25 -24 -25 -26 -25 -215 0 -189 0 -191 25 -215 l24
-25 2191 0 2191 0 24 25 c25 24 25 26 25 215 0 189 0 191 -25 215 -20 21 -34
25 -80 25 l-55 0 0 849 c0 467 -3 857 -6 866 -10 25 -62 47 -95 40 -62 -14
-59 33 -59 -902 l0 -853 -1920 0 -1920 0 0 1394 0 1393 258 77 c141 42 573
170 960 284 l702 209 923 -274 c507 -150 939 -278 960 -284 l37 -10 0 -167 c0
-185 6 -205 59 -217 33 -7 85 15 95 40 3 9 6 80 6 157 0 129 1 140 18 133 9
-4 34 -9 54 -12 30 -4 41 -1 62 20 l26 26 0 269 c0 242 -2 272 -17 291 -14 17
-253 91 -1113 346 -602 179 -1104 324 -1115 324 -11 -1 -510 -147 -1110 -325z
m2117 -134 c541 -160 1004 -298 1031 -306 l47 -16 0 -155 c0 -143 -1 -155 -17
-151 -10 3 -478 142 -1040 308 l-1023 303 -1022 -303 c-563 -166 -1031 -305
-1041 -308 -16 -4 -17 8 -17 151 l0 156 83 25 c45 14 509 151 1032 306 522
155 952 283 954 286 3 3 11 2 17 0 7 -3 455 -136 996 -296z m1078 -3780 l0
-80 -2080 0 -2080 0 0 80 0 80 2080 0 2080 0 0 -80z"/>
<path d="M2911 3874 c-31 -40 -27 -81 11 -112 63 -54 89 -88 104 -140 20 -68
13 -121 -26 -190 -40 -69 -90 -102 -175 -112 -71 -9 -99 -26 -109 -66 -9 -33
11 -66 63 -105 96 -73 124 -201 67 -306 -53 -96 -115 -123 -285 -123 -139 0
-190 -14 -245 -67 -52 -51 -68 -87 -74 -165 -4 -61 -3 -68 21 -92 59 -58 137
-13 137 79 0 25 8 43 25 60 23 24 30 25 142 25 65 0 137 5 161 10 248 58 380
336 266 563 -13 27 -24 52 -24 57 0 4 13 13 30 20 40 17 123 106 153 167 88
174 40 379 -117 494 -51 38 -97 39 -125 3z"/>
<path d="M2562 3669 c-186 -36 -322 -201 -322 -390 0 -61 29 -171 54 -204 9
-11 16 -23 16 -26 0 -4 -28 -12 -62 -19 -132 -25 -233 -104 -291 -228 -31 -65
-32 -72 -35 -224 l-4 -157 26 -25 c30 -31 74 -34 107 -7 23 18 24 27 30 168 6
161 11 182 60 237 64 74 90 81 309 84 107 1 205 5 217 7 23 5 53 51 53 79 0 8
-10 27 -23 42 -18 21 -37 29 -81 35 -193 26 -283 244 -160 387 73 86 184 110
288 64 62 -28 81 -28 111 3 26 25 32 63 15 96 -15 27 -95 65 -165 78 -66 12
-82 12 -143 0z"/>
<path d="M4380 3129 c-14 -3 -369 -205 -789 -448 l-763 -441 -522 0 -523 0
-24 -26 c-23 -24 -24 -33 -27 -172 -4 -165 -10 -182 -68 -182 -56 0 -64 23
-64 188 0 138 -1 144 -25 167 l-24 25 -272 0 c-177 0 -285 -4 -310 -12 -51
-15 -114 -69 -142 -122 -22 -41 -22 -46 -22 -488 l0 -447 23 -23 23 -23 1437
-3 c790 -1 1452 0 1470 3 18 3 42 15 53 26 18 18 19 37 19 464 l0 446 -25 48
c-13 27 -37 59 -51 70 -16 13 -24 25 -18 30 5 5 203 120 439 255 237 136 438
257 448 268 30 35 20 69 -64 213 -108 186 -122 201 -179 184z m32 -251 c29
-49 35 -65 25 -74 -17 -16 -554 -324 -564 -324 -13 0 -83 124 -75 132 13 13
557 326 567 327 6 1 27 -27 47 -61z m-710 -437 l28 -49 -133 -76 -134 -77
-153 3 -153 3 244 142 c275 159 245 154 301 54z m-2262 -454 c0 -106 9 -145
45 -197 73 -105 244 -121 339 -32 51 48 66 95 66 215 l0 107 864 0 c858 0 863
0 890 -21 l26 -20 0 -220 0 -219 -1355 0 -1355 0 0 206 c0 208 4 234 39 261
11 9 77 12 229 13 l212 0 0 -93z m2230 -627 l0 -80 -1352 2 -1353 3 -3 78 -3
77 1356 0 1355 0 0 -80z"/>
</g>
</svg>
