<?xml version="1.0" standalone="no"?>
<!DOCTYPE svg PUBLIC "-//W3C//DTD SVG 20010904//EN"
 "http://www.w3.org/TR/2001/REC-SVG-20010904/DTD/svg10.dtd">
<svg version="1.0" xmlns="http://www.w3.org/2000/svg"
 width="512.000000pt" height="512.000000pt" viewBox="0 0 512.000000 512.000000"
 preserveAspectRatio="xMidYMid meet">

<g transform="translate(0.000000,512.000000) scale(0.100000,-0.100000)"
fill="#000000" stroke="none">
<path d="M1207 5039 c-304 -35 -565 -251 -657 -544 -32 -101 -39 -297 -15
-396 22 -88 57 -176 92 -232 16 -26 22 -45 17 -52 -5 -7 -30 -39 -57 -71 -56
-70 -116 -182 -148 -279 l-24 -70 -5 -749 -5 -749 -60 -17 c-95 -26 -135 -49
-208 -121 -78 -78 -111 -141 -128 -247 -40 -241 130 -477 371 -515 l68 -11 4
-154 3 -154 28 -24 c37 -32 87 -32 124 0 l28 24 3 156 3 156 115 0 114 0 0
-365 0 -365 -113 0 -114 0 -12 40 c-8 27 -21 45 -41 55 -36 19 -54 19 -90 0
-38 -20 -54 -70 -48 -157 5 -59 10 -74 32 -97 l26 -26 245 0 245 0 26 26 c21
22 27 39 31 91 l5 65 741 359 c407 197 742 358 746 357 3 -1 344 -166 756
-366 l750 -365 7 -58 c6 -43 15 -65 33 -84 l25 -25 245 0 245 0 27 28 28 27 3
428 3 428 68 10 c186 30 337 180 372 369 46 246 -132 488 -386 525 -38 5 -193
10 -342 10 -150 0 -273 1 -273 3 0 1 11 29 25 62 29 71 34 183 10 260 -29 99
-69 139 -439 444 -349 288 -352 291 -365 340 -7 27 -28 81 -46 120 -137 285
-433 458 -748 438 -122 -8 -192 -27 -307 -84 -159 -79 -306 -240 -371 -408
-16 -41 -30 -64 -33 -55 -13 37 -156 546 -156 556 0 6 25 28 55 47 107 72 219
205 272 325 67 152 84 349 44 507 -96 377 -460 629 -844 584z m237 -199 c299
-76 488 -371 436 -679 -46 -272 -307 -491 -585 -491 -215 0 -432 135 -529 328
-84 166 -86 348 -7 517 124 264 404 397 685 325z m-612 -1200 c63 -47 170
-101 253 -127 48 -14 89 -18 210 -16 83 1 163 3 179 5 l30 3 88 -305 c48 -168
90 -317 93 -331 6 -25 -6 -37 -130 -139 -75 -62 -140 -109 -145 -104 -4 5 -40
107 -79 226 -78 233 -87 248 -151 248 -38 0 -90 -47 -90 -82 0 -13 38 -138 85
-278 l85 -254 -38 -30 c-158 -127 -222 -266 -189 -416 8 -36 22 -82 31 -102
l16 -38 -245 0 -246 0 3 728 c4 810 0 764 75 901 30 56 99 151 109 151 2 0 27
-18 56 -40z m1948 -286 c194 -61 353 -237 395 -439 65 -312 -124 -618 -435
-700 -73 -19 -217 -19 -294 1 -149 38 -304 159 -374 291 -124 235 -83 514 102
699 78 77 134 114 221 145 124 43 253 44 385 3z m-954 -691 c13 -76 37 -150
73 -218 20 -38 37 -73 39 -77 2 -5 -39 -8 -91 -8 -111 0 -152 -12 -172 -51
-18 -34 -19 -50 -4 -83 23 -50 62 -58 265 -55 173 3 185 2 212 -18 72 -53 220
-114 310 -128 l42 -7 0 -59 0 -59 -567 0 c-550 0 -568 1 -609 20 -66 33 -114
114 -114 194 0 84 24 111 320 356 151 126 278 229 282 229 4 1 10 -16 14 -36z
m1821 -184 c147 -121 277 -233 289 -247 62 -79 56 -186 -14 -264 -64 -71 -39
-68 -667 -68 l-565 0 0 58 0 59 78 16 c81 18 175 58 254 108 l46 30 200 2
c184 2 202 4 222 22 33 30 42 62 29 102 -16 49 -55 63 -174 63 -52 0 -95 1
-95 3 0 1 18 37 39 80 34 68 56 135 76 230 3 15 7 27 9 27 3 0 125 -99 273
-221z m1138 -796 c93 -50 144 -137 145 -244 0 -120 -74 -219 -192 -254 -43
-12 -124 -15 -470 -15 -269 0 -426 -4 -439 -10 -29 -16 -51 -67 -44 -101 12
-56 45 -69 166 -69 l109 0 0 -270 c0 -148 -2 -270 -5 -270 -9 0 -1080 522
-1089 531 -6 5 78 9 213 9 140 0 230 4 243 11 31 17 50 71 37 107 -23 67 94
62 -1542 62 -1637 0 -1541 -4 -1629 63 -167 128 -113 405 92 468 14 4 1001 7
2195 6 l2170 -2 40 -22z m-2660 -702 c-6 -4 -217 -109 -470 -231 -253 -123
-490 -238 -527 -256 l-68 -34 0 265 0 265 537 0 c305 0 533 -4 528 -9z m2355
-356 l0 -365 -115 0 -115 0 0 365 0 365 115 0 115 0 0 -365z"/>
</g>
</svg>
