<?xml version="1.0" standalone="no"?>
<!DOCTYPE svg PUBLIC "-//W3C//DTD SVG 20010904//EN"
 "http://www.w3.org/TR/2001/REC-SVG-20010904/DTD/svg10.dtd">
<svg version="1.0" xmlns="http://www.w3.org/2000/svg"
 width="512.000000pt" height="512.000000pt" viewBox="0 0 512.000000 512.000000"
 preserveAspectRatio="xMidYMid meet">

<g transform="translate(0.000000,512.000000) scale(0.100000,-0.100000)"
fill="#000000" stroke="none">
<path d="M2245 5109 c-140 -21 -327 -96 -445 -180 -74 -52 -192 -170 -245
-244 -91 -128 -163 -306 -184 -459 -6 -42 -11 -189 -11 -326 l0 -249 -25 -37
c-38 -57 -59 -137 -51 -206 11 -110 68 -195 166 -247 51 -28 77 -34 145 -38
l82 -6 6 -111 c9 -174 52 -308 143 -449 48 -73 171 -203 224 -233 l31 -19 -3
-105 -3 -104 -42 -8 c-77 -13 -142 -64 -171 -134 l-13 -30 -562 -132 c-428
-100 -577 -139 -626 -163 -123 -61 -221 -189 -250 -327 -7 -35 -11 -254 -11
-653 l0 -600 25 -24 24 -25 2111 0 2111 0 24 25 25 24 0 600 c0 398 -4 618
-11 653 -28 136 -129 267 -250 327 -49 24 -198 63 -626 163 l-562 132 -13 30
c-29 70 -94 121 -171 134 l-42 8 -3 104 -3 105 31 19 c52 30 173 157 223 233
89 134 135 278 144 449 l6 111 82 6 c68 4 94 10 144 37 69 37 100 69 137 141
48 96 40 223 -21 313 l-25 37 0 252 c0 273 -11 379 -53 502 -99 288 -309 516
-586 634 -156 66 -208 74 -526 77 -159 1 -317 -2 -350 -7z m630 -164 c358 -63
647 -352 710 -710 10 -59 15 -153 15 -287 l0 -200 -22 6 c-13 3 -49 6 -80 6
l-58 0 0 54 c0 85 -17 99 -131 107 -52 3 -120 13 -151 23 -71 20 -168 86 -222
149 -38 45 -40 50 -26 72 96 152 130 215 130 238 0 55 -69 94 -119 68 -9 -5
-41 -51 -71 -101 -125 -211 -317 -360 -546 -421 -67 -19 -117 -23 -332 -28
-251 -6 -254 -6 -273 -30 -13 -16 -19 -39 -19 -77 l0 -54 -57 0 c-32 0 -68 -3
-80 -6 l-23 -6 0 200 c0 226 14 332 59 448 108 279 369 496 658 548 113 20
522 21 638 1z m22 -1037 c86 -72 215 -127 336 -143 l48 -6 -3 -427 -4 -427
-27 -80 c-38 -116 -91 -199 -182 -290 -91 -91 -175 -144 -290 -182 -71 -23
-96 -26 -215 -26 -119 0 -144 3 -215 26 -114 38 -198 90 -290 182 -91 91 -143
174 -182 290 l-27 80 -4 426 -3 426 203 6 c166 4 218 9 286 27 155 41 274 99
397 195 l57 44 34 -40 c19 -22 55 -59 81 -81z m-1217 -468 l0 -160 -55 0 c-71
0 -115 19 -149 62 -47 63 -47 142 1 199 36 42 76 58 146 59 l57 0 0 -160z
m1935 126 c89 -68 85 -190 -8 -260 -20 -15 -47 -22 -97 -24 l-70 -4 0 162 0
162 69 -4 c56 -3 75 -9 106 -32z m-1270 -1378 c142 -38 323 -34 473 11 l63 19
-3 -80 -3 -81 -113 -38 c-89 -30 -119 -36 -138 -28 -14 5 -43 9 -64 9 -21 0
-50 -4 -64 -9 -19 -8 -49 -2 -138 28 l-113 38 -3 83 c-3 76 -1 82 15 75 10 -4
50 -16 88 -27z m-133 -290 c117 -39 127 -44 120 -63 -4 -11 -7 -45 -7 -75 0
-30 3 -64 7 -75 7 -19 -3 -24 -123 -64 -190 -63 -209 -50 -209 139 0 116 9
152 44 168 31 15 29 16 168 -30z m861 31 c38 -17 47 -50 47 -169 0 -121 -9
-153 -51 -170 -24 -10 -45 -6 -158 31 -120 40 -130 45 -123 64 9 26 9 124 0
150 -7 19 3 24 115 62 139 47 138 47 170 32z m-458 -114 c50 -49 15 -135 -55
-135 -19 0 -40 9 -55 25 -16 15 -25 36 -25 55 0 19 9 40 25 55 15 16 36 25 55
25 19 0 40 -9 55 -25z m-757 -246 c17 -42 71 -98 116 -121 71 -37 137 -30 318
31 136 45 160 51 176 39 10 -7 89 -71 175 -143 l156 -130 1 -542 0 -543 -720
0 -720 0 0 373 c0 205 -5 411 -10 457 -17 138 -57 284 -121 448 -34 84 -59
156 -56 159 3 3 153 40 334 82 l328 77 6 -80 c3 -45 11 -93 17 -107z m1790
102 c161 -38 296 -72 299 -74 3 -3 -22 -75 -55 -159 -120 -306 -125 -336 -130
-855 l-4 -423 -399 0 -399 0 0 569 c0 313 -3 576 -6 584 -3 9 -52 54 -110 102
-57 48 -104 88 -104 90 0 2 53 -15 118 -37 189 -65 282 -55 364 42 43 49 58
98 58 183 l0 65 38 -9 c20 -5 169 -40 330 -78z m-2580 -263 c69 -173 106 -304
122 -428 5 -46 10 -250 10 -452 l0 -368 -320 0 -321 0 3 562 c3 548 4 564 24
609 28 60 76 114 132 146 36 22 229 78 278 82 6 1 39 -68 72 -151z m3166 126
c61 -15 128 -35 149 -46 60 -30 114 -85 144 -146 l28 -57 3 -562 3 -563 -322
0 -321 0 5 423 c4 438 7 471 53 622 21 68 136 355 142 355 3 0 55 -12 116 -26z"/>
<path d="M2426 4697 c-15 -15 -25 -40 -29 -74 -21 -178 -185 -320 -427 -372
-104 -22 -130 -40 -130 -93 0 -38 40 -78 78 -78 57 0 227 50 311 92 111 55
223 162 270 258 36 74 61 159 61 208 0 70 -85 108 -134 59z"/>
<path d="M2505 1095 c-16 -15 -25 -36 -25 -55 0 -19 9 -40 25 -55 49 -50 135
-15 135 55 0 41 -39 80 -80 80 -19 0 -40 -9 -55 -25z"/>
<path d="M2505 775 c-16 -15 -25 -36 -25 -55 0 -19 9 -40 25 -55 49 -50 135
-15 135 55 0 41 -39 80 -80 80 -19 0 -40 -9 -55 -25z"/>
<path d="M2505 455 c-50 -49 -15 -135 55 -135 41 0 80 39 80 80 0 41 -39 80
-80 80 -19 0 -40 -9 -55 -25z"/>
</g>
</svg>
