<?xml version="1.0" standalone="no"?>
<!DOCTYPE svg PUBLIC "-//W3C//DTD SVG 20010904//EN"
 "http://www.w3.org/TR/2001/REC-SVG-20010904/DTD/svg10.dtd">
<svg version="1.0" xmlns="http://www.w3.org/2000/svg"
 width="512.000000pt" height="512.000000pt" viewBox="0 0 512.000000 512.000000"
 preserveAspectRatio="xMidYMid meet">

<g transform="translate(0.000000,512.000000) scale(0.100000,-0.100000)"
fill="#000000" stroke="none">
<path d="M1261 4690 c-689 -231 -1255 -421 -1257 -423 -4 -3 42 -147 49 -153
2 -2 543 176 1203 396 659 220 1200 400 1201 400 2 0 2 -563 1 -1252 l-3
-1251 -160 -54 c-88 -29 -163 -53 -167 -53 -5 0 -8 167 -8 371 l0 371 -29 29
c-16 16 -38 29 -49 29 -11 0 -458 -133 -993 -296 -667 -203 -981 -303 -996
-317 l-23 -20 0 -703 0 -703 23 -24 c12 -14 215 -116 457 -231 239 -114 438
-210 442 -214 4 -4 -78 -45 -183 -92 -104 -47 -201 -96 -214 -109 -31 -30 -32
-72 -3 -105 13 -14 132 -77 276 -145 l253 -120 35 76 c19 42 33 77 32 78 -2 2
-74 36 -161 77 -87 41 -157 79 -156 84 3 9 314 154 331 154 5 0 197 -90 428
-200 241 -115 430 -200 447 -200 21 0 1614 673 1789 756 49 23 54 47 54 249 0
102 3 185 8 185 4 -1 218 -99 477 -220 l469 -219 -104 -48 c-58 -27 -392 -179
-742 -338 -351 -160 -638 -295 -638 -301 0 -10 59 -144 64 -144 1 0 377 171
836 380 495 225 842 388 853 401 9 12 17 34 17 49 0 15 -8 37 -17 49 -10 11
-295 149 -633 307 -338 157 -620 291 -627 296 -7 5 -362 160 -790 343 -429
184 -771 336 -763 339 8 3 67 23 131 45 l116 39 1204 -499 c662 -274 1217
-499 1232 -499 17 0 38 10 52 25 l25 24 0 1374 0 1374 -22 20 c-28 26 -2459
1033 -2490 1032 -13 0 -587 -189 -1277 -419z m1629 102 l235 -97 3 -1248 c1
-686 -1 -1247 -5 -1247 -5 0 -119 46 -255 102 l-248 102 0 1249 c0 1184 1
1248 18 1243 9 -3 123 -50 252 -104z m871 -360 l454 -188 3 -422 c2 -331 0
-422 -10 -422 -7 0 -66 21 -130 47 l-118 47 0 138 0 138 -80 0 -80 0 0 -134 0
-134 -245 -61 c-135 -33 -249 -61 -255 -61 -7 0 -10 207 -10 620 0 341 4 620
8 620 4 0 213 -85 463 -188z m853 -353 c122 -50 233 -98 249 -105 l27 -15 0
-1244 c0 -685 -3 -1245 -7 -1245 -5 0 -118 46 -253 103 l-245 102 -3 1248 c-1
686 1 1247 5 1247 4 0 106 -41 227 -91z m-816 -839 l-3 -74 -225 -56 c-124
-31 -238 -60 -253 -64 l-28 -7 3 83 3 82 245 62 c135 33 249 58 253 54 4 -4 7
-40 5 -80z m308 16 l109 -44 3 -77 c3 -89 20 -87 -144 -21 l-109 44 -3 77 c-3
89 -20 87 144 21z m-306 -596 l0 -329 -42 -11 c-24 -6 -59 -15 -78 -21 -19 -5
-38 -9 -43 -9 -4 0 -6 149 -5 332 l3 332 65 17 c112 29 100 65 100 -311z m300
262 l115 -47 3 -329 c2 -261 0 -327 -10 -323 -7 2 -66 26 -130 52 l-118 47 0
324 c0 253 3 324 13 324 6 -1 64 -22 127 -48z m-640 -345 l0 -333 -72 -17
c-40 -10 -79 -17 -85 -17 -10 0 -13 73 -13 329 l0 329 78 20 c42 11 80 20 85
21 4 1 7 -149 7 -332z m-1510 -6 l0 -329 -31 -11 c-18 -6 -36 -11 -40 -11 -5
0 -9 69 -9 153 0 167 -7 193 -55 216 -27 13 -45 8 -298 -75 -169 -56 -278 -97
-293 -111 -24 -22 -24 -25 -24 -207 l0 -184 -70 -21 c-38 -12 -76 -24 -85 -27
-13 -5 -15 15 -15 159 0 159 -1 167 -23 193 -17 20 -33 27 -56 26 -18 0 -149
-40 -291 -87 -208 -69 -264 -92 -280 -112 -18 -24 -20 -41 -20 -207 l0 -181
-78 -23 c-43 -12 -81 -22 -85 -22 -4 0 -7 148 -7 328 l0 329 188 57 c103 32
493 151 867 266 374 114 686 208 693 209 9 1 12 -71 12 -328z m-250 -289 l0
-118 -157 -47 c-87 -26 -161 -47 -165 -47 -5 0 -8 49 -8 109 l0 109 163 55
c89 31 163 56 165 56 1 1 2 -52 2 -117z m2352 -179 l168 -67 0 -143 c0 -79 -4
-143 -9 -143 -5 0 -168 66 -362 146 -194 80 -364 150 -377 155 -14 5 -22 12
-19 15 8 9 378 102 407 103 14 1 100 -29 192 -66z m-3194 -80 l-3 -116 -140
-43 c-77 -24 -150 -45 -162 -49 -23 -5 -23 -5 -23 108 l0 112 153 52 c83 28
158 52 165 52 10 1 12 -26 10 -116z m1662 -142 l465 -200 -45 -19 c-25 -11
-355 -156 -735 -322 -379 -166 -697 -304 -705 -307 -14 -4 -1120 516 -1144
538 -5 4 11 13 35 20 24 8 400 122 834 255 435 133 799 240 810 238 11 -2 229
-93 485 -203z m868 -372 c105 -45 191 -83 189 -85 -7 -7 -1505 -647 -1525
-652 -15 -3 -78 22 -187 74 -91 44 -165 82 -165 85 0 5 1470 654 1490 658 3 1
92 -35 198 -80z m-2306 -474 l863 -412 3 -157 c1 -86 -1 -156 -5 -156 -10 0
-1725 820 -1740 832 -10 8 -13 53 -13 164 0 131 2 153 15 148 8 -3 403 -192
877 -419z m2628 98 l0 -158 -778 -332 c-427 -183 -785 -335 -794 -339 -17 -6
-18 6 -18 152 l0 159 783 337 c430 185 788 336 795 337 9 1 12 -37 12 -156z"/>
<path d="M990 4182 l-765 -257 -18 -35 c-16 -32 -17 -74 -15 -552 l3 -516 24
-26 c16 -17 35 -26 55 -26 29 0 1505 486 1552 511 12 6 27 22 33 36 8 16 11
184 11 544 l0 521 -29 29 c-19 19 -39 29 -58 28 -15 0 -372 -116 -793 -257z
m710 -356 l0 -414 -663 -221 c-364 -122 -665 -221 -670 -221 -4 0 -6 186 -5
413 l3 412 660 222 c363 122 663 222 668 222 4 1 7 -185 7 -413z"/>
<path d="M1238 3763 l-147 -147 -115 37 c-65 21 -123 34 -133 30 -17 -6 -248
-157 -267 -173 -6 -6 48 -99 80 -139 2 -2 53 29 113 69 l110 72 108 -36 c59
-20 121 -36 137 -36 25 0 58 28 208 177 l178 177 -57 58 c-32 32 -60 58 -63
58 -3 0 -71 -66 -152 -147z"/>
</g>
</svg>
