<?xml version="1.0" standalone="no"?>
<!DOCTYPE svg PUBLIC "-//W3C//DTD SVG 20010904//EN"
 "http://www.w3.org/TR/2001/REC-SVG-20010904/DTD/svg10.dtd">
<svg version="1.0" xmlns="http://www.w3.org/2000/svg"
 width="512.000000pt" height="512.000000pt" viewBox="0 0 512.000000 512.000000"
 preserveAspectRatio="xMidYMid meet">

<g transform="translate(0.000000,512.000000) scale(0.100000,-0.100000)"
fill="#000000" stroke="none">
<path d="M829 5097 c-139 -47 -236 -151 -269 -288 -5 -24 -103 -838 -216
-1809 -187 -1599 -205 -1771 -196 -1828 22 -133 104 -242 229 -304 l68 -33
902 -3 903 -2 0 -368 c0 -346 1 -369 20 -399 33 -55 61 -63 230 -63 166 0 206
9 236 54 9 15 20 41 23 59 l7 32 366 3 366 2 7 -32 c10 -45 30 -75 68 -98 28
-18 51 -20 187 -20 176 0 209 10 242 71 16 31 18 64 18 396 l0 362 328 3 327
3 68 33 c125 62 207 171 229 304 9 56 3 130 -56 633 -36 314 -69 580 -71 593
-8 32 -41 62 -69 62 -39 0 -76 -36 -76 -75 0 -19 30 -285 66 -592 38 -324 63
-574 59 -596 -13 -86 -93 -181 -173 -205 -26 -8 -137 -12 -336 -12 l-296 0 0
95 0 95 240 0 c264 0 286 4 332 58 14 17 28 46 32 64 5 29 -371 3282 -390
3371 -8 37 -51 87 -91 103 -26 11 -164 14 -733 14 l-701 0 -24 -25 c-32 -31
-32 -69 0 -100 l24 -25 689 0 690 0 6 -42 c3 -24 89 -752 191 -1618 102 -866
188 -1592 191 -1612 l6 -38 -230 0 -230 0 -4 178 c-5 154 -8 187 -30 254 -38
116 -92 204 -177 289 -85 85 -172 138 -289 177 -67 22 -94 26 -207 26 -114 0
-140 -4 -210 -27 -147 -48 -277 -144 -362 -265 -25 -37 -49 -71 -53 -75 -4 -4
-23 19 -43 51 -91 147 -277 273 -457 308 -361 71 -719 -156 -811 -514 -15 -59
-19 -110 -19 -239 l0 -163 -361 0 -361 0 6 38 c3 20 89 746 191 1612 102 866
188 1594 191 1618 l6 42 690 0 689 0 24 25 c32 31 32 69 0 100 l-24 25 -701 0
c-569 0 -707 -3 -733 -14 -40 -16 -83 -66 -91 -103 -18 -82 -396 -3343 -391
-3370 7 -41 50 -92 92 -109 26 -12 182 -14 848 -14 l815 0 0 -95 0 -95 -871 0
c-639 0 -882 3 -911 12 -80 24 -160 119 -173 205 -6 38 397 3526 415 3592 21
77 94 147 176 170 55 15 3293 15 3348 0 86 -24 166 -105 180 -184 4 -19 60
-492 126 -1051 111 -954 120 -1018 141 -1040 24 -25 58 -31 89 -14 37 20 38
54 9 305 -16 132 -71 601 -123 1041 -86 738 -96 806 -120 860 -53 115 -135
187 -254 224 -63 20 -99 20 -1726 20 l-1661 -1 -66 -22z m1413 -3030 c90 -33
157 -77 223 -148 60 -66 117 -174 134 -257 7 -36 11 -292 11 -782 l0 -730
-105 0 -104 0 -3 738 -3 737 -28 60 c-36 77 -110 147 -185 175 -76 29 -205 25
-270 -9 -66 -34 -128 -97 -159 -160 -25 -52 -27 -67 -31 -213 l-4 -158 -104 0
-104 0 0 153 c0 169 10 222 61 325 38 79 141 185 221 230 132 75 310 90 450
39z m1195 18 c157 -37 294 -142 366 -282 67 -128 67 -126 67 -930 l0 -723
-110 0 c-60 0 -110 3 -110 6 0 4 20 24 45 46 65 57 89 108 90 188 0 85 -31
151 -92 193 l-43 31 0 116 0 116 45 37 c64 54 89 107 90 187 0 82 -32 151 -92
195 l-41 30 -3 175 c-4 166 -5 178 -31 225 -64 122 -167 185 -304 186 -97 1
-174 -33 -242 -105 -76 -80 -92 -135 -92 -311 l0 -145 -111 0 -112 0 5 163 c6
170 13 204 66 317 16 34 56 84 102 131 142 144 321 198 507 154z m-32 -372
c30 -17 72 -65 84 -96 6 -16 11 -89 11 -163 l0 -134 -185 0 -185 0 0 135 c0
116 3 142 20 175 46 91 168 130 255 83z m-1251 -7 c24 -14 52 -42 66 -68 23
-39 25 -56 28 -180 l4 -138 -192 0 -192 0 4 138 c2 111 7 144 22 176 44 89
171 124 260 72z m1435 -550 c56 -29 67 -102 22 -147 l-29 -29 -411 0 -411 0 0
95 0 95 400 0 c328 0 406 -3 429 -14z m-89 -421 l0 -95 -370 0 -370 0 0 95 0
95 370 0 370 0 0 -95z m111 -283 c39 -43 39 -84 0 -123 l-29 -29 -411 0 -411
0 0 95 0 96 411 -3 411 -3 29 -33z"/>
<path d="M1755 4196 c-11 -8 -39 -32 -63 -55 -47 -45 -94 -72 -160 -92 -45
-13 -82 -49 -82 -80 0 -10 11 -30 23 -45 18 -21 32 -27 60 -26 54 2 154 47
220 98 l59 45 51 -39 c64 -49 127 -81 192 -98 59 -16 192 -18 254 -3 59 13
153 61 206 105 l45 36 51 -41 c99 -79 192 -110 324 -111 126 0 216 31 322 112
l51 39 59 -45 c66 -51 166 -96 220 -98 28 -1 42 5 60 26 12 15 23 35 23 45 0
31 -37 67 -82 80 -66 20 -113 47 -160 92 -62 59 -78 69 -116 69 -44 0 -65 -12
-134 -76 -80 -73 -146 -97 -258 -92 -102 4 -175 34 -242 102 -52 52 -77 66
-118 66 -41 0 -66 -14 -118 -66 -67 -68 -140 -98 -242 -102 -112 -5 -178 19
-258 92 -31 29 -67 58 -79 64 -30 16 -84 15 -108 -2z"/>
<path d="M1755 3578 c-11 -6 -40 -32 -65 -57 -55 -54 -129 -90 -213 -101 -70
-10 -97 -33 -97 -81 0 -44 31 -69 88 -69 95 0 213 47 300 118 l42 34 53 -40
c103 -79 199 -112 321 -112 127 0 215 31 323 111 l53 40 52 -40 c117 -87 213
-116 354 -109 122 7 209 42 316 129 l26 22 44 -35 c87 -71 206 -118 301 -118
56 0 87 25 87 69 0 48 -27 71 -97 81 -84 11 -159 47 -213 102 -55 54 -79 68
-120 68 -42 0 -64 -13 -132 -76 -74 -67 -142 -94 -243 -94 -101 0 -169 27
-243 94 -68 63 -90 76 -132 76 -42 0 -64 -13 -132 -76 -74 -67 -142 -94 -243
-94 -101 0 -169 27 -243 94 -31 29 -67 58 -79 64 -28 15 -82 15 -108 0z"/>
<path d="M1771 2969 c-14 -5 -49 -32 -78 -60 -76 -72 -142 -99 -259 -108 -107
-7 -124 -18 -124 -76 0 -56 28 -70 134 -70 132 1 236 40 327 122 l38 34 53
-43 c110 -89 256 -131 393 -111 89 13 204 64 264 118 l42 38 32 -30 c178 -169
474 -174 670 -11 l48 40 38 -35 c91 -82 195 -121 327 -122 106 0 134 14 134
70 0 58 -17 69 -124 76 -117 9 -183 36 -259 108 -95 90 -134 90 -235 0 -88
-79 -151 -103 -262 -103 -106 0 -170 26 -258 107 -93 86 -135 85 -229 -4 -80
-75 -148 -103 -253 -103 -110 0 -176 25 -257 99 -80 72 -111 84 -162 64z"/>
</g>
</svg>
