<?xml version="1.0" standalone="no"?>
<!DOCTYPE svg PUBLIC "-//W3C//DTD SVG 20010904//EN"
 "http://www.w3.org/TR/2001/REC-SVG-20010904/DTD/svg10.dtd">
<svg version="1.0" xmlns="http://www.w3.org/2000/svg"
 width="512.000000pt" height="512.000000pt" viewBox="0 0 512.000000 512.000000"
 preserveAspectRatio="xMidYMid meet">

<g transform="translate(0.000000,512.000000) scale(0.100000,-0.100000)"
fill="#000000" stroke="none">
<path d="M876 5105 c-49 -17 -103 -68 -127 -120 -18 -39 -19 -117 -19 -2205 0
-1375 4 -2178 10 -2200 13 -48 63 -106 113 -132 32 -16 66 -22 143 -26 l102
-5 4 -121 c5 -139 20 -181 88 -238 96 -83 244 -72 324 23 48 57 56 88 56 219
l0 120 990 0 990 0 0 -120 c0 -131 8 -162 56 -219 35 -42 116 -81 170 -81 90
0 173 51 217 135 17 32 22 63 25 161 l4 121 102 5 c77 4 111 10 143 26 50 26
100 84 113 132 6 22 10 825 10 2200 0 2073 -1 2167 -19 2205 -23 51 -89 111
-138 124 -26 8 -551 11 -1678 11 -1369 -1 -1646 -3 -1679 -15z m2432 -2332
l-3 -2198 -1193 0 -1194 0 -19 24 c-19 23 -19 71 -19 2173 l0 2149 25 24 24
25 1191 0 1190 0 -2 -2197z m907 2172 l25 -24 0 -2149 c0 -2101 0 -2150 -19
-2173 l-19 -24 -371 -3 -371 -3 0 2201 0 2200 365 0 366 0 24 -25z m-2795
-4635 c0 -104 -1 -112 -25 -135 -31 -32 -75 -32 -112 -1 -27 23 -28 28 -31
135 l-4 111 86 0 86 0 0 -110z m2448 -1 c-3 -107 -4 -112 -31 -135 -37 -31
-81 -31 -112 1 -24 23 -25 31 -25 135 l0 110 86 0 86 0 -4 -111z"/>
<path d="M1236 4745 c-49 -17 -103 -68 -127 -120 -17 -37 -19 -74 -19 -532 0
-480 1 -494 20 -513 30 -30 83 -27 109 6 17 22 21 41 21 105 l0 79 860 0 860
0 -2 -402 -3 -403 -67 -3 -68 -3 0 197 c0 282 -8 294 -204 294 -112 0 -117 -1
-146 -27 -43 -38 -49 -78 -50 -286 l0 -178 -62 3 -63 3 -5 213 -5 214 -33 29
c-32 28 -34 29 -148 29 -196 0 -204 -12 -204 -294 l0 -196 -65 0 -65 0 0 196
c0 282 -8 294 -204 294 -112 0 -117 -1 -146 -27 -43 -38 -49 -78 -50 -285 l0
-178 -65 0 -65 0 0 194 c0 180 -1 195 -21 220 -26 33 -79 36 -109 6 -20 -20
-20 -33 -20 -869 l0 -849 28 -53 c20 -39 41 -62 77 -84 l48 -30 835 -3 c529
-1 847 1 870 8 49 13 107 62 135 113 l22 42 3 1435 c2 1028 0 1450 -8 1487
-16 72 -60 129 -123 159 l-52 24 -825 -1 c-676 0 -832 -2 -864 -14z m1694
-155 c11 -11 22 -30 25 -42 3 -13 4 -158 3 -323 l-3 -300 -67 -3 -68 -3 0 197
c0 284 -7 294 -204 294 -112 0 -117 -1 -146 -27 -43 -38 -49 -78 -50 -286 l0
-178 -62 3 -63 3 -5 213 -5 214 -33 29 c-32 28 -34 29 -148 29 -197 0 -204
-10 -204 -294 l0 -196 -65 0 -65 0 0 196 c0 284 -7 294 -204 294 -112 0 -117
-1 -146 -27 -43 -38 -49 -78 -50 -285 l0 -178 -65 0 -65 0 0 320 0 321 25 24
24 25 811 0 c793 0 810 0 830 -20z m-1310 -501 l0 -170 -47 3 -48 3 -3 168 -2
167 50 0 50 0 0 -171z m520 1 l0 -170 -45 0 -45 0 0 170 0 170 45 0 45 0 0
-170z m530 -1 l0 -170 -47 3 -48 3 -3 168 -2 167 50 0 50 0 0 -171z m-1050
-960 l0 -170 -47 3 -48 3 -3 168 -2 167 50 0 50 0 0 -171z m520 1 l0 -170 -45
0 -45 0 0 170 0 170 45 0 45 0 0 -170z m530 -1 l0 -170 -47 3 -48 3 -3 168 -2
167 50 0 50 0 0 -171z m288 -721 l-3 -403 -67 -3 -67 -3 -3 211 -3 212 -37 34
-38 34 -112 0 c-94 0 -118 -3 -145 -20 -54 -33 -58 -47 -61 -268 l-4 -203 -61
3 -62 3 -5 211 c-4 162 -8 215 -19 228 -31 37 -67 46 -181 46 l-110 0 -38 -34
-37 -34 -3 -211 -3 -211 -64 0 -64 0 -3 211 -3 211 -37 34 -38 34 -112 0 c-94
0 -118 -3 -145 -20 -54 -33 -58 -47 -61 -267 l-4 -203 -64 0 -64 0 0 405 0
405 860 0 860 0 -2 -402z m-1338 -239 l0 -170 -47 3 -48 3 -3 168 -2 167 50 0
50 0 0 -171z m520 1 l0 -170 -45 0 -45 0 0 170 0 170 45 0 45 0 0 -170z m530
-1 l0 -170 -47 3 -48 3 -3 168 -2 167 50 0 50 0 0 -171z m289 -405 c-6 -138
89 -124 -862 -124 l-811 0 -23 22 c-20 19 -23 31 -23 105 l0 83 861 0 861 0
-3 -86z"/>
<path d="M1697 1296 c-57 -21 -103 -61 -128 -113 -20 -41 -23 -63 -23 -153 0
-118 14 -159 75 -218 61 -59 94 -63 501 -60 350 3 364 4 403 25 89 48 124 117
125 247 0 49 -6 107 -12 130 -16 54 -90 128 -144 144 -61 18 -745 16 -797 -2z
m778 -161 c22 -21 25 -33 25 -103 0 -64 -4 -85 -19 -103 l-19 -24 -355 -3
-355 -3 -29 25 c-27 23 -28 29 -28 106 0 77 2 83 28 106 l28 24 350 0 350 0
24 -25z"/>
<path d="M3630 4233 c-19 -17 -35 -44 -40 -68 -13 -54 -12 -501 0 -546 5 -19
24 -48 41 -65 l30 -29 171 -3 c187 -4 212 1 253 50 l25 30 0 284 c0 394 14
374 -262 374 l-188 0 -30 -27z m330 -343 l0 -221 -112 3 -113 3 -3 218 -2 217
115 0 115 0 0 -220z"/>
<path d="M3680 3410 c-16 -16 -20 -33 -20 -80 0 -72 21 -100 74 -100 48 0 76
37 76 100 0 63 -28 100 -76 100 -21 0 -42 -8 -54 -20z"/>
<path d="M3910 3408 c-15 -17 -20 -35 -20 -78 0 -69 23 -100 75 -100 52 0 75
31 75 100 0 43 -5 61 -20 78 -28 30 -82 30 -110 0z"/>
<path d="M3685 3115 c-21 -20 -25 -34 -25 -83 0 -48 4 -62 23 -80 54 -51 127
-8 127 73 0 75 -30 114 -88 115 -7 0 -24 -11 -37 -25z"/>
<path d="M3915 3115 c-21 -20 -25 -34 -25 -80 0 -46 4 -60 25 -80 33 -34 77
-33 104 1 32 40 29 126 -4 159 -13 14 -36 25 -50 25 -14 0 -37 -11 -50 -25z"/>
<path d="M3607 2792 c-24 -27 -22 -85 4 -108 19 -17 39 -19 241 -19 219 0 220
0 239 24 23 28 24 69 3 99 -15 22 -19 22 -243 22 -208 0 -229 -2 -244 -18z"/>
</g>
</svg>
