<?xml version="1.0" standalone="no"?>
<!DOCTYPE svg PUBLIC "-//W3C//DTD SVG 20010904//EN"
 "http://www.w3.org/TR/2001/REC-SVG-20010904/DTD/svg10.dtd">
<svg version="1.0" xmlns="http://www.w3.org/2000/svg"
 width="512.000000pt" height="512.000000pt" viewBox="0 0 512.000000 512.000000"
 preserveAspectRatio="xMidYMid meet">

<g transform="translate(0.000000,512.000000) scale(0.100000,-0.100000)"
fill="#000000" stroke="none">
<path d="M812 5100 c-156 -41 -292 -148 -364 -286 -73 -138 -68 27 -68 -2254
0 -2281 -5 -2116 68 -2254 46 -88 145 -189 229 -234 34 -18 96 -41 139 -52 75
-20 117 -20 1744 -20 1627 0 1669 0 1744 20 43 11 105 34 139 52 84 45 183
146 229 234 73 138 68 -27 68 2254 0 2281 5 2116 -68 2254 -46 88 -145 189
-229 234 -34 18 -96 41 -139 52 -75 20 -116 20 -1748 19 -1612 0 -1674 -1
-1744 -19z m3451 -145 c154 -40 263 -142 309 -288 16 -52 18 -98 18 -408 l0
-349 -2030 0 -2030 0 0 349 c0 310 2 356 18 408 45 144 154 247 305 288 81 21
3326 22 3410 0z m327 -2750 l0 -1555 -322 0 c-317 0 -322 0 -345 -22 -33 -30
-31 -80 3 -107 26 -20 38 -21 342 -21 l314 0 -6 -32 c-28 -140 -169 -274 -324
-307 -75 -16 -3309 -16 -3384 0 -155 33 -296 167 -324 307 l-7 32 1571 0
c1153 0 1578 3 1596 11 35 16 50 63 31 99 -8 15 -22 30 -30 34 -9 3 -727 6
-1596 6 l-1579 0 0 1555 0 1555 2030 0 2030 0 0 -1555z"/>
<path d="M1119 4746 c-240 -64 -319 -354 -145 -528 50 -49 96 -73 167 -86 192
-35 369 113 369 308 0 147 -99 274 -239 307 -68 15 -92 15 -152 -1z m147 -155
c55 -25 87 -71 92 -136 12 -149 -154 -234 -269 -138 -90 76 -72 220 33 272 53
26 90 26 144 2z"/>
<path d="M1979 4747 c-154 -43 -245 -167 -237 -322 8 -151 109 -266 259 -293
183 -34 353 100 367 288 6 85 -15 152 -68 219 -71 90 -214 138 -321 108z m152
-160 c134 -71 110 -266 -38 -306 -137 -38 -252 117 -180 243 25 45 93 86 142
86 18 0 52 -10 76 -23z"/>
<path d="M3010 4737 c-28 -15 -53 -38 -67 -63 -21 -37 -23 -51 -23 -232 0
-212 4 -228 60 -276 54 -45 81 -47 563 -44 505 3 488 1 544 75 l28 36 3 196
c3 222 -1 239 -71 295 l-39 31 -477 3 -476 3 -45 -24z m958 -294 c2 -162 2
-163 -20 -168 -13 -3 -214 -4 -448 -3 l-425 3 -3 155 c-1 85 0 160 2 167 4 11
92 13 448 11 l443 -3 3 -162z"/>
<path d="M2400 3575 c-8 -2 -49 -9 -90 -15 -167 -27 -408 -129 -545 -230 -77
-57 -93 -96 -57 -138 35 -43 60 -38 171 34 222 142 427 204 681 204 440 0 839
-231 1064 -615 216 -370 216 -846 -1 -1220 -355 -614 -1153 -803 -1741 -412
-230 153 -401 378 -486 637 -46 144 -60 232 -60 390 0 200 42 376 129 550 30
59 48 87 128 204 32 46 35 88 7 116 -30 30 -76 26 -111 -11 -43 -46 -111 -153
-162 -254 -248 -493 -170 -1092 196 -1515 178 -205 433 -363 695 -430 204 -52
480 -52 684 0 384 99 715 368 892 726 99 202 139 375 139 609 0 234 -40 407
-139 609 -187 378 -535 648 -954 741 -68 15 -398 30 -440 20z"/>
<path d="M2360 3215 c-406 -87 -721 -398 -807 -798 -27 -124 -24 -334 6 -451
96 -373 354 -640 726 -753 84 -25 102 -27 275 -27 173 0 191 2 275 27 311 95
552 306 670 587 255 604 -103 1281 -747 1414 -95 20 -307 20 -398 1z m450
-168 c112 -37 164 -62 246 -118 140 -97 268 -258 325 -409 26 -69 59 -221 59
-277 l0 -42 -47 22 c-39 18 -66 22 -148 22 -100 0 -100 0 -197 -49 -92 -46
-101 -48 -156 -44 -42 4 -81 18 -142 49 -84 44 -86 44 -190 44 l-105 0 -94
-47 c-128 -65 -162 -65 -291 -1 -94 48 -96 48 -195 48 -82 0 -109 -4 -147 -22
l-48 -22 0 42 c0 56 33 208 59 277 94 248 318 453 579 529 100 29 105 30 267
26 127 -2 161 -7 225 -28z m-804 -986 c161 -80 256 -81 406 -7 76 38 102 46
148 46 46 0 72 -8 148 -46 150 -74 245 -73 406 7 115 57 201 52 290 -16 19
-14 19 -16 1 -80 -82 -303 -351 -554 -665 -620 -91 -19 -268 -19 -358 0 -266
55 -498 238 -615 483 -19 39 -43 101 -52 137 -21 75 -19 77 60 115 68 33 138
27 231 -19z"/>
</g>
</svg>
