<?xml version="1.0" standalone="no"?>
<!DOCTYPE svg PUBLIC "-//W3C//DTD SVG 20010904//EN"
 "http://www.w3.org/TR/2001/REC-SVG-20010904/DTD/svg10.dtd">
<svg version="1.0" xmlns="http://www.w3.org/2000/svg"
 width="512.000000pt" height="512.000000pt" viewBox="0 0 512.000000 512.000000"
 preserveAspectRatio="xMidYMid meet">

<g transform="translate(0.000000,512.000000) scale(0.100000,-0.100000)"
fill="#000000" stroke="none">
<path d="M2695 4915 c-79 -28 -145 -124 -145 -210 0 -119 105 -225 224 -225
116 0 226 110 226 225 0 56 -24 110 -70 155 -66 67 -148 86 -235 55z m130
-160 c14 -13 25 -36 25 -50 0 -14 -11 -37 -25 -50 -13 -14 -36 -25 -50 -25
-14 0 -37 11 -50 25 -14 13 -25 36 -25 50 0 14 11 37 25 50 13 14 36 25 50 25
14 0 37 -11 50 -25z"/>
<path d="M1943 4382 c-251 -90 -273 -432 -35 -549 81 -40 183 -40 264 0 107
53 163 144 163 267 0 85 -21 142 -74 203 -72 81 -213 117 -318 79z m168 -154
c41 -23 79 -84 79 -128 0 -73 -78 -150 -151 -150 -47 0 -108 38 -130 80 -38
71 -13 157 57 197 49 29 96 29 145 1z"/>
<path d="M2826 4050 c-57 -22 -118 -78 -149 -135 -29 -54 -31 -183 -3 -235 49
-93 154 -160 250 -160 111 0 229 86 260 190 32 109 11 197 -67 275 -83 83
-187 106 -291 65z m155 -145 c37 -20 69 -70 69 -110 0 -62 -63 -125 -125 -125
-61 0 -125 63 -125 123 0 63 62 127 123 127 15 0 41 -7 58 -15z"/>
<path d="M4375 3435 c-14 -13 -25 -36 -25 -50 0 -14 11 -37 25 -50 23 -24 29
-25 154 -25 152 0 161 -4 161 -81 l0 -49 -222 0 c-132 0 -239 -5 -263 -11 -25
-7 -58 -29 -86 -58 -56 -55 -69 -95 -69 -212 0 -133 -1 -133 202 -139 l163 -5
3 -138 3 -137 -261 2 -261 3 -22 65 c-72 214 -297 339 -518 287 l-56 -14 -27
53 c-32 61 -124 152 -184 183 -98 50 -212 63 -316 36 -33 -9 -60 -14 -61 -13
-1 2 -13 23 -25 48 -47 94 -162 200 -216 200 -37 0 -74 -37 -74 -76 0 -29 8
-40 57 -78 73 -58 108 -111 127 -194 23 -102 60 -115 162 -59 53 29 67 32 139
32 67 0 88 -5 130 -27 84 -44 143 -123 159 -211 9 -47 37 -77 73 -77 14 0 51
12 82 28 46 22 69 27 131 27 91 0 150 -24 207 -83 42 -43 81 -117 69 -130 -13
-12 -411 -14 -601 -3 -527 32 -911 140 -1418 399 l-228 117 26 22 c30 26 113
53 165 53 59 0 132 -27 190 -70 29 -22 61 -40 70 -40 28 0 61 31 80 76 29 66
59 102 122 145 31 21 60 48 63 60 10 31 -13 76 -47 90 -27 11 -36 10 -77 -12
-47 -25 -140 -109 -159 -144 -10 -19 -11 -19 -49 -1 -163 79 -354 51 -493 -72
-45 -40 -46 -40 -80 -25 -19 8 -95 34 -168 59 -231 77 -487 133 -722 156 -135
13 -200 0 -272 -55 -103 -78 -138 -162 -138 -324 0 -97 2 -106 25 -128 22 -22
33 -25 107 -26 46 0 101 -3 122 -7 l40 -7 72 -288 c44 -177 79 -296 89 -308
40 -43 125 -11 125 49 0 15 -29 141 -64 280 l-64 254 46 -7 c107 -15 286 -59
422 -105 169 -56 301 -114 478 -209 486 -262 1005 -420 1557 -473 74 -7 279
-12 476 -13 327 0 348 1 368 19 28 25 29 86 1 111 -18 17 -48 18 -377 20 -374
2 -488 10 -739 51 -421 68 -739 177 -1189 405 -148 75 -322 157 -385 182 -271
107 -550 169 -869 192 l-93 7 4 64 c3 52 9 70 34 100 17 21 47 47 68 57 36 19
46 20 151 9 413 -43 818 -170 1205 -378 496 -266 964 -402 1495 -433 93 -6
480 -7 929 -4 816 7 813 7 872 -39 37 -30 64 -93 64 -155 l0 -52 -450 -3
c-447 -3 -450 -3 -471 -25 -27 -26 -28 -77 -3 -104 16 -18 35 -19 316 -19 164
0 298 -2 298 -4 0 -28 -157 -666 -175 -709 -38 -95 -86 -165 -161 -237 -80
-76 -165 -127 -269 -161 -68 -23 -81 -23 -515 -26 -245 -2 -455 -5 -467 -8
-13 -3 -30 -19 -39 -36 -13 -26 -13 -36 -3 -60 6 -16 17 -33 23 -37 6 -4 78
-9 160 -12 l149 -5 84 -190 c52 -116 96 -202 114 -220 29 -29 32 -30 143 -33
129 -4 170 8 199 57 14 25 17 57 17 210 0 179 0 181 23 185 12 3 51 10 87 16
199 35 400 173 518 353 82 126 87 142 215 687 l52 225 134 5 c127 5 134 6 153
30 18 23 20 36 16 150 -5 144 -20 190 -88 264 -44 47 -128 96 -167 96 l-23 0
0 415 c0 447 -1 457 -53 514 -46 50 -90 61 -245 61 -139 0 -144 -1 -167 -25z
m315 -680 l0 -275 -60 0 -60 0 0 143 c0 164 -13 205 -76 253 -36 28 -42 29
-166 32 l-128 4 0 34 c0 24 8 43 25 59 l24 25 221 0 220 0 0 -275z m-920
-2265 l0 -151 -57 3 -57 3 -63 140 c-34 77 -63 143 -63 148 0 4 54 7 120 7
l120 0 0 -150z"/>
<path d="M540 1910 c-11 -11 -20 -33 -20 -50 0 -44 147 -624 177 -700 74 -184
220 -343 398 -432 48 -24 150 -60 207 -72 l26 -6 4 -182 c3 -207 11 -233 73
-262 30 -14 58 -17 151 -14 108 3 115 4 141 30 16 16 64 110 113 220 l86 193
441 5 c416 5 442 6 462 24 28 25 28 77 0 102 -20 18 -51 19 -738 24 -634 5
-723 8 -773 23 -131 38 -236 104 -326 202 -100 110 -129 181 -222 555 -86 348
-91 360 -151 360 -16 0 -38 -9 -49 -20z m1189 -1277 c0 -5 -28 -71 -63 -148
l-62 -140 -62 -3 -62 -3 0 151 0 150 125 0 c69 0 125 -3 124 -7z"/>
</g>
</svg>
