<?xml version="1.0" standalone="no"?>
<!DOCTYPE svg PUBLIC "-//W3C//DTD SVG 20010904//EN"
 "http://www.w3.org/TR/2001/REC-SVG-20010904/DTD/svg10.dtd">
<svg version="1.0" xmlns="http://www.w3.org/2000/svg"
 width="512.000000pt" height="512.000000pt" viewBox="0 0 512.000000 512.000000"
 preserveAspectRatio="xMidYMid meet">

<g transform="translate(0.000000,512.000000) scale(0.100000,-0.100000)"
fill="#000000" stroke="none">
<path d="M2023 5110 c-32 -13 -91 -105 -113 -179 -26 -83 -26 -189 0 -272 18
-58 42 -99 136 -230 62 -87 80 -200 49 -307 -9 -29 -39 -81 -70 -123 -47 -61
-55 -79 -55 -115 0 -35 5 -47 31 -68 38 -32 86 -34 123 -5 31 25 105 126 136
189 35 69 50 137 50 228 0 135 -36 234 -130 357 -70 90 -90 137 -90 212 0 51
6 73 35 129 50 96 46 148 -15 179 -32 17 -54 18 -87 5z"/>
<path d="M1447 4870 c-38 -30 -93 -148 -107 -230 -22 -132 14 -254 115 -386
97 -125 123 -225 91 -336 -15 -51 -28 -75 -110 -193 -22 -31 -26 -47 -22 -74
13 -83 106 -114 167 -55 52 49 128 172 149 242 58 186 24 353 -107 527 -61 80
-93 151 -93 204 0 42 23 111 54 160 22 35 27 52 22 80 -11 73 -100 107 -159
61z"/>
<path d="M2545 4856 c-76 -81 -118 -233 -97 -356 15 -88 41 -141 125 -258 37
-52 71 -110 76 -130 39 -145 25 -198 -96 -378 -41 -60 -42 -94 -4 -136 24 -28
36 -33 71 -32 48 2 72 21 137 111 114 160 140 356 71 528 -13 30 -56 101 -96
157 -40 57 -77 121 -83 143 -18 64 -5 136 36 210 30 54 36 72 31 100 -9 45
-48 75 -99 75 -32 0 -46 -6 -72 -34z"/>
<path d="M60 3353 c-19 -10 -40 -29 -47 -43 -20 -39 -18 -973 2 -1142 59 -509
276 -940 650 -1296 l118 -111 -362 -3 -363 -3 -29 -33 c-34 -38 -38 -85 -14
-197 40 -191 173 -364 347 -450 163 -80 37 -75 1858 -75 1821 0 1695 -5 1858
75 176 87 307 259 348 455 22 107 15 166 -25 202 l-31 28 -477 0 -477 0 114
108 c120 113 226 235 300 345 l45 67 193 0 c202 0 286 11 407 52 315 108 556
388 624 725 19 92 21 137 21 510 0 386 -1 410 -20 440 -13 21 -31 35 -57 42
-24 7 -189 11 -440 11 l-403 0 0 113 c0 128 -9 154 -60 180 -33 16 -103 17
-1132 15 -1090 -3 -1097 -3 -1124 -24 -53 -39 -56 -105 -7 -150 l26 -24 1048
0 1049 0 0 -430 c0 -237 -5 -474 -11 -528 -62 -575 -367 -1080 -841 -1396
l-85 -56 -963 0 -963 0 -85 57 c-474 315 -779 820 -841 1395 -6 54 -11 291
-11 528 l0 430 354 0 353 0 26 24 c49 45 46 111 -7 150 -26 20 -41 21 -429 24
-368 2 -405 1 -437 -15z m4860 -835 c0 -184 -5 -362 -11 -398 -25 -160 -101
-304 -218 -420 -112 -109 -232 -174 -379 -205 -87 -19 -327 -20 -319 -2 3 6
23 51 43 98 l38 87 105 4 c85 4 120 10 176 33 143 57 247 154 311 290 45 97
54 160 54 379 0 282 7 276 -317 276 l-203 0 0 95 0 95 360 0 360 0 0 -332z
m-402 -215 c-3 -136 -6 -153 -31 -208 -58 -126 -187 -215 -311 -215 -36 0 -38
1 -33 28 2 15 14 81 26 147 12 66 24 182 28 258 l6 137 160 0 159 0 -4 -147z
m-303 -1787 c-43 -142 -189 -272 -343 -305 -75 -16 -3229 -16 -3304 0 -154 33
-300 163 -343 305 l-13 44 2008 0 2008 0 -13 -44z"/>
<path d="M1392 3355 c-38 -16 -66 -71 -56 -110 19 -75 110 -100 165 -46 39 40
40 89 2 130 -35 36 -68 44 -111 26z"/>
<path d="M3584 2490 c-40 -16 -64 -59 -64 -114 0 -28 -7 -98 -14 -156 -38
-283 -154 -540 -339 -752 -35 -41 -69 -83 -76 -95 -35 -66 17 -143 96 -143 64
0 270 261 370 469 86 181 135 360 155 568 13 136 7 174 -33 207 -31 27 -58 31
-95 16z"/>
<path d="M2814 1170 c-12 -4 -31 -21 -44 -37 -17 -22 -21 -36 -17 -68 14 -98
140 -117 186 -28 40 79 -42 167 -125 133z"/>
</g>
</svg>
