<?xml version="1.0" encoding="UTF-8"?>
<svg version="1.1" viewBox="0 0 2048 2048" width="1280" height="1280" xmlns="http://www.w3.org/2000/svg">
<path transform="translate(30)" d="m0 0h1987v2l5 1 10 6 8 8 5 9 3 7v193l-2 1-5 10-8 9-7 5-13 4-7 1h-43v1752l-3 14-8 12-7 6-9 5-8 3h-33l-1-2-17-5-13-6-12-7-13-11-8-7-18-18-7-8-12-12-10-6-6-2h-12l-8 2-8 5-10 9-10 10-1 2h-2l-2 4-8 8-1 2h-2v2h-2v2l-11 9-14 11-17 9-18 6-10 3h-45l-1-2-18-5-17-8-10-7-11-9-10-9-9-9-7-8-21-21-11-5-4-1h-11l-10 3-6 4-3 1v2l-8 7-2 3h-2v2h-2v2h-2v2h-2l-2 4-8 8-1 2h-2l-2 4-9 8-11 9-14 9-12 6-19 6-6 2h-34l-1-2-12-6-9-9-5-9-3-8v-18l5-15 61-122 9-17 10-21 10-19 9-19 10-19 128-256 9-17 11-23 9-17 11-23 10-19 24-48 8-17 3-5-1-4-15-13-14-11-14-12-10-8-22-22-7-6-20-20-7-8-11-13-9-11-12-14-11-14-10-14-22-32-10-15-15-27-14-25-8-16-19-42-9-22-12-36-9-28-12-51-7-34-106-583-2-1h-351l-3 10-7 40-9 49-13 72-72 396-8 42-14 60-23 69-17 39-11 24-13 25-13 23-11 19-8 12-9 13-22 32-9 11-11 13-9 11-12 14-9 11-34 34-7 6-12 12-11 9-32 26-7 6h-2l4 10 318 636 6 16v17l-4 11-6 8-5 5-5 4-12 6h-35l-1-2-18-5-17-8-14-10-15-13-12-12-7-8-20-20-11-5-4-1h-11l-10 3-8 6-3 3h-2l-2 4-18 18-1 2h-2l-2 4-8 8-11 9-12 9-17 9-27 9h-46l-1-2-15-4-16-7-11-7-10-8-11-9-7-8-13-13v-2h-2l-7-8-7-7-9-6-10-3h-11l-10 3-6 4-27 27-7 8-7 7-11 9-12 9-16 8-13 5-15 4h-28l-12-5-6-4-7-6-7-11-3-12v-1754h-45l-16-4-11-8-7-8-4-8v-2l-2-1v-193l6-12 8-10 11-7zm118 85-62 1v84h1876v-84l-97-1zm23 171v982l7 6 14 7 29 9 20 5 49 8 16 2 59 4 7-1 14-11 26-20 14-11 8-8 2-1v-2l4-2 11-11 8-7 9-9 2-1v-2h2l14-16v-2h2l7-8 5-6v-2h2l18-22 26-36 12-18 12-21 14-24 8-15 9-20 14-31 10-28 12-36 11-45 7-32 10-56 14-76 10-56 14-76 10-56 23-126 21-116 2-13zm1118 0 3 21 23 126 74 407 7 37 14 59 13 38 9 26 9 20 16 35 11 21 8 13 16 28 13 18 12 17 11 15 8 10 12 14 9 10 7 8 12 14 9 9 8 7 16 15 7 7 8 7 14 11 18 14 13 10 8 6 20-1 43-3 25-3 42-7 22-6 26-8 14-7 7-6 1-8v-973l-1-1zm-1118 1079v596l4-1 9-10 5-5 11-10 12-9 14-8 16-6 14-3 8-1h27l17 3 16 5 19 10 10 8 13 11 14 14 7 8 18 18 12 6 11 1 9-1 10-5 10-9 13-13 7-8 5-5v-2h2l5-5 11-10 16-11 14-7 11-4 14-3 8-1h27l17 3 8 2-2-6-20-41-235-470-3-1-47-3-44-5-38-7-17-4-37-11zm1705 0-42 12-29 6-30 5-38 4-46 3-10 19-60 120-9 17-11 23-9 17-9 19-9 17-142 284v2l18-4 9-1h27l17 3 13 4 16 8 10 6 14 12 8 7 7 7 7 8 23 23 8 4 12 2 13-2 9-5 33-33 7-8 13-11 13-9 16-8 11-4 14-3 8-1h26l17 3 13 4 19 9 11 8 14 12 10 9 7 8h2v-596z"/>
<path transform="translate(114,2047)" d="m0 0 2 1z"/>
<path transform="translate(2018)" d="m0 0 2 1z"/>
<path transform="translate(2047,29)" d="m0 0"/>
<path transform="translate(2020,1)" d="m0 0"/>
<path transform="translate(26,1)" d="m0 0"/>
<path transform="translate(27)" d="m0 0"/>
</svg>
