<?xml version="1.0" encoding="UTF-8"?>
<svg version="1.1" viewBox="0 0 2048 2048" width="1280" height="1280" xmlns="http://www.w3.org/2000/svg">
<path transform="translate(37,431)" d="m0 0h1972l14 2 10 5 6 5 7 11 2 3v241l-3 3-7 10-10 6-6 2-7 1-90 1-11-1-1 864-2 10-5 9-4 5-12 6-11 2h-163l-12-3-10-7-6-10-3-10v-403h-683l-15-2-10-5-7-7-5-10-2-8-1-27v-403l-602-1v821l-1 46-3 10-7 10-9 6-14 3h-159l-11-2-10-6-8-11-3-9-1-9v-859h-103l-12-3-10-7-8-12-1-3v-239l8-13 6-5 9-5zm36 72-1 1-1 28v116l2 1h1898l2-4v-141l-1-1zm1367 214v42h-160l-1-39h-244v160h648l2-2v-161zm-1233 3v821h80v-821zm1554 0-1 20v801h81v-821zm-725 231-1 1v159h649l1-16v-143l-1-1h-243l-1 4v29l-1 2-159 1-1-35-1-1z" fill="#010101"/>
</svg>
