<?xml version="1.0" standalone="no"?>
<!DOCTYPE svg PUBLIC "-//W3C//DTD SVG 20010904//EN"
 "http://www.w3.org/TR/2001/REC-SVG-20010904/DTD/svg10.dtd">
<svg version="1.0" xmlns="http://www.w3.org/2000/svg"
 width="512.000000pt" height="512.000000pt" viewBox="0 0 512.000000 512.000000"
 preserveAspectRatio="xMidYMid meet">

<g transform="translate(0.000000,512.000000) scale(0.100000,-0.100000)"
fill="#000000" stroke="none">
<path d="M966 5105 c-56 -20 -107 -65 -136 -121 l-25 -48 0 -2402 0 -2402 30
-44 c50 -71 96 -88 240 -88 133 0 178 13 227 66 27 30 158 338 158 372 0 11
-9 31 -21 46 l-20 26 -235 0 -234 0 0 1310 0 1310 797 0 797 0 -32 -33 c-39
-40 -42 -78 -7 -112 43 -44 68 -34 164 60 l87 85 195 0 194 0 -130 -130 -130
-130 -122 0 c-110 0 -125 -2 -143 -20 -12 -12 -20 -33 -20 -54 0 -46 37 -76
93 -76 l40 0 -56 -59 c-65 -67 -72 -97 -32 -136 39 -40 69 -33 136 32 l59 56
0 -40 c0 -82 79 -125 130 -71 18 19 20 35 20 143 l0 120 130 130 130 130 0
-194 0 -195 -85 -87 c-94 -96 -104 -121 -60 -164 34 -35 72 -32 112 7 l33 32
0 -957 0 -957 -760 0 -761 0 -26 -26 c-20 -20 -24 -31 -19 -57 13 -65 -15 -62
563 -67 l526 -5 52 -127 c62 -151 73 -169 122 -199 35 -22 48 -24 184 -24 143
0 146 1 186 28 22 15 49 45 61 66 l22 39 0 1141 c0 627 4 1141 8 1141 5 0 21
-13 37 -30 45 -47 114 -34 129 25 9 36 -12 70 -98 155 l-76 74 0 188 c0 104 3
188 8 188 4 0 65 -57 135 -128 l127 -127 0 -123 c0 -109 2 -124 20 -142 22
-22 60 -26 90 -10 20 11 40 60 40 99 0 23 6 20 68 -42 75 -74 113 -86 152 -47
38 38 27 75 -45 150 l-66 67 48 6 c78 8 111 77 60 125 -21 20 -34 22 -143 22
l-119 0 -130 130 -130 130 174 0 175 0 87 -85 c96 -94 121 -104 164 -60 35 34
33 74 -6 111 l-30 29 96 5 c91 5 98 7 121 33 29 34 30 56 3 91 -20 25 -24 26
-120 26 -54 0 -99 4 -99 8 0 5 14 21 30 37 38 36 40 76 4 112 -41 41 -74 27
-174 -72 l-85 -85 -168 0 c-92 0 -167 3 -167 8 0 4 57 65 128 135 l127 127
122 0 c113 0 124 2 143 22 52 56 2 128 -88 128 -23 0 -19 6 41 69 74 76 85
113 47 151 -39 39 -77 27 -152 -47 -62 -62 -68 -65 -68 -42 0 39 -20 88 -40
99 -30 16 -68 12 -90 -10 -18 -18 -20 -33 -20 -143 l0 -122 -128 -128 c-70
-70 -131 -127 -135 -127 -4 0 -7 75 -7 168 l0 168 76 74 c109 108 123 142 79
185 -34 35 -74 33 -110 -5 -16 -17 -32 -30 -37 -30 -4 0 -8 45 -8 99 0 96 -1
100 -26 120 -35 27 -57 26 -91 -3 -26 -23 -28 -30 -33 -121 l-5 -96 -29 30
c-37 39 -77 41 -111 6 -44 -43 -34 -68 60 -164 l85 -87 0 -175 0 -174 -130
130 -130 130 0 121 c0 113 -1 122 -23 142 -54 51 -127 10 -127 -71 l0 -40 -60
58 c-55 52 -64 57 -93 51 -18 -3 -40 -16 -49 -27 -31 -37 -22 -66 39 -130 l56
-59 -40 0 c-56 0 -93 -30 -93 -76 0 -21 8 -42 20 -54 18 -18 33 -20 143 -20
l122 0 128 -128 c70 -70 127 -131 127 -135 0 -4 -84 -7 -188 -7 l-188 0 -74
76 c-108 109 -142 123 -185 79 -35 -34 -33 -74 5 -110 17 -16 30 -32 30 -37 0
-4 -357 -7 -792 -6 l-793 3 -3 800 c-2 586 1 807 9 828 25 60 -31 57 1148 57
l1080 0 28 -24 28 -24 5 -230 c5 -208 7 -232 24 -251 25 -27 86 -29 109 -3 15
16 17 49 17 258 0 269 -5 289 -75 357 -73 71 -6 67 -1224 67 -906 -1 -1103 -3
-1135 -15z m304 -4751 c0 -11 -72 -179 -82 -191 -7 -9 -42 -13 -109 -13 -127
0 -129 2 -129 121 l0 89 160 0 c88 0 160 -3 160 -6z m1980 -87 c0 -59 -4 -97
-12 -105 -13 -13 -195 -17 -214 -4 -6 4 -30 51 -52 105 l-40 97 159 0 159 0 0
-93z"/>
<path d="M1275 4416 c-59 -27 -77 -46 -104 -106 -19 -42 -21 -65 -21 -310 0
-302 4 -317 79 -382 111 -94 266 -61 337 72 17 31 19 64 22 280 4 285 -2 327
-55 390 -69 80 -164 101 -258 56z m141 -151 l25 -25 -3 -245 c-3 -214 -5 -246
-20 -261 -25 -25 -77 -22 -100 5 -16 21 -18 45 -18 264 0 233 1 241 22 264 28
30 63 29 94 -2z"/>
<path d="M1272 2929 c-51 -26 -95 -76 -111 -128 -14 -48 -15 -521 -1 -572 13
-45 70 -112 110 -129 l30 -12 0 -148 c0 -129 2 -151 19 -171 26 -32 86 -32
112 0 17 20 19 42 19 171 l0 147 39 26 c22 15 53 48 68 74 l28 48 3 249 c4
269 -2 315 -45 378 -54 80 -182 111 -271 67z m147 -155 c20 -25 21 -39 21
-256 0 -270 -5 -288 -77 -288 -60 0 -63 15 -63 287 0 230 1 244 20 263 29 29
74 26 99 -6z"/>
</g>
</svg>
