<?xml version="1.0" standalone="no"?>
<!DOCTYPE svg PUBLIC "-//W3C//DTD SVG 20010904//EN"
 "http://www.w3.org/TR/2001/REC-SVG-20010904/DTD/svg10.dtd">
<svg version="1.0" xmlns="http://www.w3.org/2000/svg"
 width="512.000000pt" height="512.000000pt" viewBox="0 0 512.000000 512.000000"
 preserveAspectRatio="xMidYMid meet">

<g transform="translate(0.000000,512.000000) scale(0.100000,-0.100000)"
fill="#000000" stroke="none">
<path d="M2465 5095 c-25 -24 -25 -26 -25 -215 0 -189 0 -191 25 -215 l24 -25
596 0 595 0 0 -160 0 -160 -1088 -2 -1088 -3 -76 -37 c-91 -45 -147 -103 -191
-196 l-32 -67 -3 -382 -3 -383 25 -25 25 -25 431 0 431 0 24 25 c24 23 25 29
25 160 l0 135 1240 0 1240 0 0 -75 c0 -67 3 -79 25 -100 24 -25 26 -25 215
-25 189 0 191 0 215 25 l25 24 0 551 0 551 -25 24 c-24 25 -26 25 -215 25
-189 0 -191 0 -215 -25 -22 -21 -25 -33 -25 -100 l0 -75 -160 0 -160 0 0 160
0 160 95 0 c88 0 98 2 120 25 25 24 25 26 25 215 0 189 0 191 -25 215 l-24 25
-1011 0 -1011 0 -24 -25z m1935 -215 l0 -80 -900 0 -900 0 0 80 0 80 900 0
900 0 0 -80z m-240 -400 l0 -160 -160 0 -160 0 0 160 0 160 160 0 160 0 0
-160z m800 -560 l0 -440 -80 0 -80 0 0 75 c0 67 -3 79 -25 100 l-24 25 -1351
0 -1351 0 -24 -25 c-24 -23 -25 -29 -25 -160 l0 -135 -320 0 -320 0 0 296 c0
204 4 310 12 338 16 55 99 138 154 154 32 9 413 12 1633 12 l1592 0 24 25 c22
21 25 33 25 100 l0 75 80 0 80 0 0 -440z"/>
<path d="M1225 2935 l-25 -24 0 -991 0 -991 25 -24 c32 -33 78 -33 110 0 l25
24 0 991 0 991 -25 24 c-15 16 -36 25 -55 25 -19 0 -40 -9 -55 -25z"/>
<path d="M1625 2935 l-25 -24 0 -991 0 -991 25 -24 c32 -33 78 -33 110 0 l25
24 0 991 0 991 -25 24 c-15 16 -36 25 -55 25 -19 0 -40 -9 -55 -25z"/>
<path d="M2025 2935 l-25 -24 0 -991 0 -991 25 -24 c32 -33 78 -33 110 0 l25
24 0 991 0 991 -25 24 c-15 16 -36 25 -55 25 -19 0 -40 -9 -55 -25z"/>
<path d="M750 2424 c-142 -38 -257 -153 -293 -294 l-14 -54 -58 -13 c-243 -55
-414 -307 -378 -558 14 -100 65 -204 137 -282 l57 -62 -16 -53 c-9 -29 -19
-93 -22 -143 -22 -375 285 -696 666 -695 47 0 114 7 148 15 l62 15 58 -58
c100 -100 227 -173 369 -214 63 -18 105 -22 209 -22 159 -1 229 16 373 86 82
40 120 66 186 129 l84 79 63 -15 c90 -21 220 -19 313 5 209 53 392 219 462
418 46 134 52 249 18 392 l-16 65 56 58 c131 137 174 330 114 512 -53 160
-198 293 -362 330 -49 11 -49 11 -63 66 -41 163 -194 290 -369 306 -57 5 -64
4 -88 -20 -31 -31 -34 -75 -8 -107 14 -17 35 -25 81 -31 142 -20 224 -106 240
-250 9 -89 21 -101 111 -110 135 -15 236 -83 292 -197 29 -59 33 -76 33 -147
-1 -127 -45 -209 -162 -296 -46 -34 -53 -44 -53 -73 0 -19 9 -55 20 -81 120
-280 -55 -615 -359 -685 -75 -17 -211 -8 -284 20 -67 25 -98 21 -130 -17 -111
-134 -209 -205 -343 -249 -78 -25 -104 -29 -204 -29 -82 0 -132 6 -174 19
-138 42 -262 123 -340 223 -59 74 -83 82 -160 54 -75 -28 -210 -38 -285 -22
-302 65 -481 405 -362 684 38 88 30 111 -61 173 -94 65 -144 175 -136 302 11
176 138 303 322 321 96 9 108 20 117 110 16 144 98 230 240 250 46 6 67 14 81
31 26 32 23 76 -7 105 -29 29 -79 32 -165 9z"/>
</g>
</svg>
