<?xml version="1.0" standalone="no"?>
<!DOCTYPE svg PUBLIC "-//W3C//DTD SVG 20010904//EN"
 "http://www.w3.org/TR/2001/REC-SVG-20010904/DTD/svg10.dtd">
<svg version="1.0" xmlns="http://www.w3.org/2000/svg"
 width="512.000000pt" height="512.000000pt" viewBox="0 0 512.000000 512.000000"
 preserveAspectRatio="xMidYMid meet">

<g transform="translate(0.000000,512.000000) scale(0.100000,-0.100000)"
fill="#000000" stroke="none">
<path d="M3652 5105 c-230 -50 -424 -242 -478 -473 -24 -99 -15 -265 18 -354
71 -189 208 -324 398 -392 l85 -31 510 -5 510 -5 57 -27 c162 -76 252 -266
204 -432 -22 -75 -40 -103 -175 -266 l-111 -135 -73 0 c-88 -1 -129 -20 -207
-99 l-54 -56 -81 0 c-157 -1 -542 -62 -581 -93 -34 -26 -30 -82 7 -110 27 -19
27 -19 203 7 216 32 451 52 490 42 16 -4 46 -24 66 -44 35 -36 43 -60 247
-762 296 -1014 290 -990 274 -999 -7 -5 -41 -11 -76 -14 -82 -8 -177 -47 -247
-102 -61 -48 -150 -164 -168 -221 l-12 -34 -1612 0 -1613 0 -27 -21 c-30 -23
-35 -72 -12 -105 14 -19 46 -19 1695 -24 l1681 -5 25 -26 c14 -14 28 -42 32
-62 5 -32 1 -41 -30 -72 l-35 -35 -2200 0 -2201 0 10 30 c16 45 84 116 137
142 45 22 57 23 364 28 344 5 339 5 353 62 6 22 1 33 -23 58 l-30 30 -232 0
c-198 0 -231 2 -227 14 12 30 122 205 193 307 270 385 626 733 1029 1005 440
297 994 541 1564 688 96 25 180 51 188 58 7 7 15 28 19 45 5 26 1 37 -19 57
-32 32 -44 32 -170 1 -657 -165 -1299 -453 -1763 -791 -71 -52 -135 -97 -142
-100 -9 -4 -37 16 -75 54 -34 33 -75 67 -92 75 -195 96 -394 -101 -301 -298
13 -27 44 -70 69 -94 l46 -44 -111 -121 c-217 -237 -386 -465 -540 -723 -50
-84 -97 -153 -103 -153 -6 0 -39 -14 -72 -30 -121 -61 -217 -200 -230 -333 -5
-61 -4 -67 20 -91 l26 -26 2259 0 c2515 0 2313 -6 2390 69 55 54 76 104 76
181 0 47 -6 76 -21 106 -20 38 -77 96 -119 120 -19 11 -19 12 0 48 55 104 156
171 279 185 40 5 86 15 102 24 60 31 105 101 105 162 0 12 -101 370 -225 795
-124 425 -228 784 -231 797 -5 19 4 35 50 83 31 32 65 78 76 102 23 52 26 125
5 175 l-15 36 51 61 c221 266 248 308 274 418 28 121 13 244 -46 360 -40 78
-144 184 -219 220 -113 56 -134 58 -633 58 -513 0 -549 4 -654 66 -158 95
-242 238 -243 415 0 142 43 249 141 346 28 28 77 65 109 82 115 61 109 61 843
61 l668 0 24 25 c14 13 25 36 25 50 0 14 -11 37 -25 50 l-24 25 -678 -1 c-533
0 -691 -4 -741 -14z m982 -2286 c37 -29 36 -76 -3 -113 l-28 -27 -52 53 -51
53 30 28 c36 32 68 34 104 6z m-3410 -1080 c31 -28 56 -55 56 -59 0 -5 -25
-30 -56 -57 l-57 -48 -48 53 c-59 64 -66 107 -23 141 41 32 67 26 128 -30z"/>
<path d="M3870 2295 c-265 -62 -537 -148 -785 -247 -203 -81 -598 -276 -662
-327 -206 -163 -217 -473 -24 -654 69 -65 160 -107 248 -113 55 -5 751 36
1463 86 168 12 226 36 274 113 54 87 51 108 -64 582 -56 231 -109 434 -117
450 -21 42 -62 84 -103 105 -60 31 -115 32 -230 5z m183 -154 c19 -19 217
-808 217 -866 0 -20 -8 -39 -24 -54 -22 -21 -40 -24 -232 -36 -115 -8 -230
-16 -255 -18 l-47 -4 -4 82 c-5 90 -23 133 -71 169 -28 20 -40 21 -411 24
l-382 3 -34 -23 c-66 -46 -75 -67 -78 -199 l-4 -119 -42 0 c-110 0 -226 84
-261 189 -36 109 1 245 84 310 49 39 276 157 446 232 278 123 536 212 840 290
194 50 225 52 258 20z m-493 -916 c0 -44 -4 -67 -12 -70 -7 -2 -128 -11 -268
-20 -140 -8 -288 -18 -327 -22 l-73 -6 0 92 0 91 340 0 340 0 0 -65z"/>
</g>
</svg>
