<?xml version="1.0" standalone="no"?>
<!DOCTYPE svg PUBLIC "-//W3C//DTD SVG 20010904//EN"
 "http://www.w3.org/TR/2001/REC-SVG-20010904/DTD/svg10.dtd">
<svg version="1.0" xmlns="http://www.w3.org/2000/svg"
 width="512.000000pt" height="512.000000pt" viewBox="0 0 512.000000 512.000000"
 preserveAspectRatio="xMidYMid meet">

<g transform="translate(0.000000,512.000000) scale(0.100000,-0.100000)"
fill="#000000" stroke="none">
<path d="M257 4366 c-58 -21 -114 -62 -147 -108 -63 -87 -60 -9 -60 -1502 0
-901 4 -1376 11 -1406 14 -62 63 -135 114 -170 87 -60 87 -60 898 -60 l739 0
-28 -32 c-37 -45 -64 -106 -64 -149 0 -45 42 -129 78 -156 59 -43 75 -44 782
-41 662 3 676 3 715 24 47 25 94 94 102 152 7 51 -10 101 -53 157 l-34 45 738
0 c810 0 810 0 897 60 53 36 101 110 115 175 7 34 10 486 8 1425 -3 1374 -3
1375 -24 1421 -30 63 -79 116 -138 147 l-51 27 -2280 2 c-1900 2 -2286 0
-2318 -11z m4580 -117 c38 -14 83 -57 99 -96 12 -27 14 -261 14 -1398 0 -1206
-2 -1370 -15 -1402 -21 -50 -42 -72 -90 -94 -38 -18 -128 -19 -2285 -19 -2157
0 -2247 1 -2285 19 -48 22 -69 44 -90 94 -13 32 -15 196 -15 1401 0 940 3
1373 11 1393 14 37 57 82 94 99 25 11 423 13 2282 14 1567 0 2260 -3 2280 -11z
m-1623 -3205 c75 -85 83 -118 41 -159 l-24 -25 -671 0 -671 0 -24 25 c-42 41
-34 74 41 159 l66 76 588 0 588 0 66 -76z"/>
<path d="M4156 3988 c-9 -12 -16 -31 -16 -42 0 -25 495 -524 528 -532 33 -9
72 20 72 54 0 22 -46 73 -258 285 -274 274 -291 286 -326 235z"/>
<path d="M4502 3974 c-42 -29 -29 -62 56 -147 58 -58 84 -77 104 -77 32 0 63
39 54 68 -8 25 -160 172 -178 172 -7 0 -24 -7 -36 -16z"/>
<path d="M2250 1030 c-11 -11 -20 -29 -20 -40 0 -38 35 -60 95 -60 60 0 95 22
95 60 0 38 -35 60 -95 60 -42 0 -60 -5 -75 -20z"/>
<path d="M2720 1030 c-11 -11 -20 -29 -20 -40 0 -38 35 -60 95 -60 60 0 95 22
95 60 0 38 -35 60 -95 60 -42 0 -60 -5 -75 -20z"/>
</g>
</svg>
