<?xml version="1.0" encoding="UTF-8"?>
<svg version="1.1" viewBox="0 0 2048 2048" width="1280" height="1280" xmlns="http://www.w3.org/2000/svg">
<path transform="translate(321)" d="m0 0h1406v2l7 1 16 6 14 8 9 7 10 9 10 13 9 17 5 16 2 13 1 22v1820l-2 30-5 18-8 16-6 9-8 10-10 9-14 9-15 7-18 6h-1405v-2l-21-7-14-8-10-8-8-7-12-16-8-15-5-16-3-21v-1848l3-22 6-18 9-16 9-11 5-5 10-9 15-9 11-5 10-3h5zm35 68-21 1-11 4-8 7-6 10-2 7v1854l4 11 7 9 9 5 12 3h1369l12-3 9-6 7-10 3-12v-1849l-2-9-6-10-7-6-9-4-5-1z"/>
<path transform="translate(407,136)" d="m0 0h1233l10 2 9 5 5 4 6 9 2 6 1 7v1707l-2 13-6 10-9 8-7 3-17 2h-1221l-12-2-10-5-7-7-6-12-1-5v-1715l3-10 7-10 10-7zm37 69v1638h1159l1-3v-1528l-1-107z"/>
<path transform="translate(1357,649)" d="m0 0h16l9 4 8 6 6 9 3 8v14l-4 10-7 9-4 5h-2v2h-2v2h-2v2h-2v2l-8 7-641 641-1 2h-2v2h-2v2h-2v2l-8 7-9 8-9 5-4 1h-16l-9-4-7-5-7-11-3-9v-9l3-10 7-11 682-682 11-7z"/>
<path transform="translate(780,281)" d="m0 0h13l11 4 10 9 5 9 2 6v12l-3 9-6 9-4 5h-2l-2 4-229 229-13 10-10 4h-16l-9-4-8-7-6-9-3-10v-7l3-11 6-9 213-213 5-6 7-6 5-6 6-5 5-5 9-8z"/>
<path transform="translate(1494,1477)" d="m0 0h17l12 6 5 4 6 9 3 10v10l-3 9-7 11-240 240-9 6-7 3-5 1h-10l-10-3-9-7-7-10-3-11 1-11 4-10 8-10 238-238 11-7z"/>
<path transform="translate(1730)" d="m0 0"/>
</svg>
