<?xml version="1.0" encoding="UTF-8"?>
<svg version="1.1" viewBox="0 0 2048 2048" width="1280" height="1280" xmlns="http://www.w3.org/2000/svg">
<path transform="translate(378,165)" d="m0 0h1289l22 2 23 5 21 7 18 8 17 10 14 10 13 11 19 19 12 16 13 21 8 17 7 20 5 20 3 24v134l-3 52-5 48-7 48-8 43-9 40-12 46-14 46-15 43-16 42-11 26-11 25-12 26-12 25-10 19-14 27-12 22-20 34-14 23-12 19-29 44-8 11-14 20-13 18-14 19-9 12-16 21-13 16-7 9-11 13-9 11-13 15-5 6h-2l-2 4-7 7-7 8-36 36-8 7-13 12-11 9-14 12-13 10-19 14-19 13-19 12-24 14-28 15-28 13-30 12-36 12-38 10-34 7-39 6-42 4-51 2-463 1-18 4-15 6-11 7-9 7-8 9-7 12-6 14-6 8-8 7-8 4-7 2h-15l-10-3-9-6-7-7-7-14-1-4v-13l5-16 8-16 7-12 9-12 15-16 14-11 15-10 16-8 12-5 15-5 18-4 16-2 476-1 29-2 28-4 22-5 30-10 23-11 19-12 11-9 12-11 8-8 10-13 9-14 10-19 9-25 5-19 4-23 2-23v-31l-3-24-5-22-7-21-9-20-10-18-12-17-9-10-7-8-12-12-14-11-14-10-19-11-18-8-24-8-22-5-16-2-29-2-12-4-8-6-7-7-6-12-1-4v-16l4-12 8-10 9-7 11-4 65-12 55-12 49-12 48-13 47-14 37-12 32-11 45-17 27-11 30-13 20-9 35-17 31-16 24-14 14-8 19-12 21-14 17-12 21-16 13-11 10-8 14-13h2v-2l8-7 17-17 7-8 11-13 13-18 13-20 12-21 16-32 13-33 9-27 6-24 3-19v-109l-4-20-6-16-8-16-9-12-9-10-12-10-16-10-17-7-14-4-13-2-202-1h-890l-201 1-17 3-18 6-15 8-10 7-14 12-13 16-10 18-7 19-3 18-1 11v1315l2 18 4 16 7 17 7 12 9 12 7 8 11 9 10 7 15 8 21 7 11 2 11 1h1275l21-2 16-4 16-7 16-9 13-11 9-9 9-12 6-10 7-17 4-15 2-11 1-121v-543l1-13 5-12 6-8 7-6 10-5 4-1h17l11 4 9 6 8 10 4 9 1 4v678l-3 23-6 23-8 21-8 16-9 15-9 12-12 14-14 14-14 11-15 10-12 7-18 8-21 7-23 5-16 2-19 1h-1265l-20-1-24-4-19-5-20-8-16-8-15-9-13-10-10-9-8-7-13-14-12-16-9-15-8-16-5-12-6-18-5-26-2-26v-1312l2-25 5-25 8-24 10-21 11-18 10-13 13-15 7-7 11-9 13-10 20-12 19-9 21-7 18-4 13-2zm1362 567m-1 1-35 35-8 7-10 9-11 9-17 14-19 14-23 16-18 12-24 15-22 13-18 10-28 15-34 17-26 12-37 16-27 11-34 13-29 10-41 14-39 12-42 12-45 12 2 4 13 9 16 13 13 12 15 15 9 11 11 14 9 13 9 15 12 23 9 21 7 21 6 24 4 24 2 20v40l-3 32-5 28-7 26-7 21-8 18-1 3 5-2 20-12 16-11 14-10 13-10 16-13 14-12 10-9 8-7 35-35v-2l3-1 7-8 11-12 9-11 9-10 11-14 11-13 12-16 14-18 14-19 13-18 12-17 14-20 10-15 11-17 15-23 14-23 14-24 13-23 15-28 11-21 11-23 13-28 13-30 14-35 12-32 14-43 11-37z"/>
</svg>
