<?xml version="1.0" standalone="no"?>
<!DOCTYPE svg PUBLIC "-//W3C//DTD SVG 20010904//EN"
 "http://www.w3.org/TR/2001/REC-SVG-20010904/DTD/svg10.dtd">
<svg version="1.0" xmlns="http://www.w3.org/2000/svg"
 width="512.000000pt" height="512.000000pt" viewBox="0 0 512.000000 512.000000"
 preserveAspectRatio="xMidYMid meet">

<g transform="translate(0.000000,512.000000) scale(0.100000,-0.100000)"
fill="#000000" stroke="none">
<path d="M945 5107 c-158 -61 -222 -233 -140 -373 49 -83 126 -123 238 -124
l67 0 0 -85 0 -85 -56 0 c-48 0 -59 -4 -85 -29 l-29 -29 0 -285 c0 -272 1
-285 21 -311 11 -14 29 -26 40 -26 17 0 19 -7 19 -57 -1 -96 -54 -180 -144
-225 -163 -81 -326 -233 -409 -380 -55 -97 -101 -231 -116 -341 -7 -53 -11
-431 -11 -1145 0 -1184 -2 -1143 66 -1282 27 -55 57 -95 113 -150 87 -87 164
-131 277 -160 72 -19 112 -20 654 -20 642 0 653 1 791 71 90 45 205 162 252
256 71 144 68 90 65 1338 -3 1119 -3 1120 -25 1198 -29 101 -91 233 -147 311
-70 98 -200 214 -297 266 -147 79 -209 159 -209 274 0 39 3 46 19 46 11 0 29
12 40 26 20 26 21 38 21 314 l0 288 -31 26 c-25 21 -41 26 -85 26 l-54 0 0 85
0 85 305 0 c330 0 359 -4 369 -53 3 -12 7 -70 8 -129 3 -97 6 -109 27 -132
l24 -26 207 0 207 0 24 26 c23 25 24 30 23 177 -1 142 -3 158 -30 237 -70 200
-219 339 -420 390 -74 19 -112 20 -818 19 -542 0 -749 -4 -771 -12z m1550
-173 c198 -51 324 -227 325 -456 l0 -38 -84 0 -83 0 -7 73 c-8 88 -43 165 -94
207 -73 61 -66 60 -849 60 l-714 0 -24 25 c-41 40 -31 104 20 133 15 8 216 11
735 12 615 0 724 -2 775 -16z m-875 -409 l0 -85 -170 0 -170 0 0 85 0 85 170
0 170 0 0 -85z m170 -425 l0 -170 -340 0 -340 0 0 170 0 170 340 0 340 0 0
-170z m-80 -410 c0 -76 35 -173 86 -240 39 -51 94 -92 215 -160 125 -70 247
-206 309 -344 68 -150 64 -66 67 -1280 3 -742 0 -1116 -7 -1150 -34 -167 -169
-301 -334 -336 -36 -7 -236 -10 -627 -8 -568 3 -575 3 -629 25 -111 46 -207
142 -253 253 l-22 55 -3 1075 c-2 746 0 1099 8 1152 35 248 180 455 405 578
173 94 254 205 263 361 l5 79 258 0 259 0 0 -60z"/>
<path d="M1380 2639 c-235 -26 -434 -197 -507 -434 -16 -54 -18 -101 -18 -490
0 -328 3 -443 14 -485 41 -169 167 -324 321 -398 99 -47 163 -62 263 -62 255
1 486 171 569 420 21 62 22 85 26 480 4 474 0 509 -69 649 -109 221 -348 348
-599 320z m253 -207 c123 -61 211 -177 237 -311 6 -30 10 -212 10 -420 0 -399
-6 -448 -57 -543 -14 -26 -50 -71 -80 -99 -249 -236 -657 -98 -712 242 -14 83
-14 724 -1 809 25 157 132 285 285 342 39 14 72 18 151 16 90 -3 107 -7 167
-36z"/>
<path d="M3926 5106 c-100 -38 -167 -133 -167 -240 0 -74 16 -118 62 -171 99
-113 278 -112 380 2 45 49 63 101 62 173 -1 94 -54 180 -137 222 -52 26 -148
33 -200 14z m139 -179 c39 -33 39 -91 1 -123 -73 -64 -172 21 -125 107 22 42
85 50 124 16z"/>
<path d="M4349 4597 c-243 -69 -331 -370 -162 -557 25 -28 69 -63 97 -78 45
-24 62 -27 151 -27 118 0 171 20 243 93 67 66 96 139 96 237 0 95 -28 167 -93
238 -77 83 -224 125 -332 94z m133 -167 c114 -32 159 -160 93 -261 -29 -45
-79 -69 -143 -69 -126 0 -204 138 -140 251 40 72 110 101 190 79z"/>
<path d="M3448 4090 c-93 -18 -186 -114 -202 -207 -3 -21 -6 -118 -6 -216 0
-198 6 -225 60 -247 34 -14 36 -28 19 -112 -25 -115 -77 -186 -235 -321 -61
-52 -135 -122 -165 -155 -64 -71 -129 -189 -161 -292 l-23 -75 -3 -957 c-3
-1066 -5 -1037 64 -1178 46 -93 160 -210 251 -258 128 -67 169 -72 623 -72
372 0 413 2 484 20 110 28 190 73 272 155 76 76 119 143 155 245 l24 65 3 935
c3 1003 2 1031 -47 1171 -54 152 -123 240 -320 408 -160 137 -211 215 -227
354 -6 52 -6 52 29 69 53 25 60 59 55 284 -3 189 -3 191 -33 250 -36 70 -97
116 -175 133 -56 12 -383 13 -442 1z m449 -193 c28 -27 28 -28 28 -170 l0
-142 -255 0 -255 0 -3 132 c-3 153 7 186 61 202 17 6 114 9 214 8 l183 -2 27
-28z m-57 -524 c1 -104 54 -253 124 -344 19 -25 96 -98 170 -163 147 -126 199
-185 241 -270 62 -127 59 -74 63 -1086 2 -670 0 -942 -8 -985 -33 -168 -154
-299 -317 -340 -53 -14 -123 -16 -470 -13 -402 3 -409 3 -466 27 -109 43 -205
139 -249 248 l-23 58 -3 937 c-3 1040 -4 1019 63 1154 44 91 87 138 245 274
139 119 183 172 230 272 31 67 60 178 60 236 l0 32 170 0 170 0 0 -37z"/>
<path d="M3590 2214 c-204 -40 -364 -186 -415 -379 -21 -81 -21 -349 0 -430
23 -87 62 -152 135 -226 101 -102 214 -151 353 -151 148 -1 265 47 367 151 70
71 110 141 135 236 21 81 20 322 -1 415 -36 158 -170 305 -330 360 -58 21
-193 34 -244 24z m163 -179 c100 -26 187 -99 231 -194 19 -41 21 -63 21 -221
0 -163 -2 -178 -23 -222 -72 -143 -215 -220 -368 -196 -107 17 -203 88 -251
187 -26 53 -28 65 -31 216 -3 146 -2 165 19 219 23 63 87 141 144 176 36 22
126 48 170 49 17 1 56 -6 88 -14z"/>
</g>
</svg>
