<?xml version="1.0" standalone="no"?>
<!DOCTYPE svg PUBLIC "-//W3C//DTD SVG 20010904//EN"
 "http://www.w3.org/TR/2001/REC-SVG-20010904/DTD/svg10.dtd">
<svg version="1.0" xmlns="http://www.w3.org/2000/svg"
 width="512.000000pt" height="512.000000pt" viewBox="0 0 512.000000 512.000000"
 preserveAspectRatio="xMidYMid meet">

<g transform="translate(0.000000,512.000000) scale(0.100000,-0.100000)"
fill="#000000" stroke="none">
<path d="M1985 5106 c-125 -40 -207 -137 -222 -266 -5 -44 -3 -54 17 -75 l23
-25 379 0 378 0 0 -175 0 -175 -58 0 c-80 0 -138 -31 -169 -90 -22 -42 -23
-51 -23 -302 l0 -258 -88 0 c-108 0 -147 -17 -179 -80 -22 -42 -23 -56 -23
-266 0 -237 1 -234 -49 -234 -35 0 -140 -61 -181 -106 -23 -25 -54 -71 -68
-102 l-27 -57 0 -1310 0 -1310 27 -57 c37 -79 98 -142 177 -181 l66 -32 785 0
785 0 66 32 c79 39 140 102 177 181 l27 57 0 1310 0 1310 -27 57 c-14 31 -45
77 -68 102 -41 45 -146 106 -181 106 -50 0 -49 -3 -49 234 0 210 -1 224 -22
266 -33 63 -72 80 -180 80 l-88 0 0 258 c0 252 -1 260 -23 303 -32 59 -84 89
-159 89 l-58 0 0 340 0 341 -25 24 -24 25 -438 -1 c-324 0 -448 -4 -478 -13z
m815 -421 l0 -295 -45 0 -45 0 0 220 0 221 -25 24 -24 25 -376 0 -376 0 20 29
c12 16 40 38 63 50 41 20 57 21 426 21 l382 0 0 -295z m249 -449 c8 -9 11 -85
9 -252 l-3 -239 -300 0 -300 0 -3 240 c-1 132 0 245 2 252 8 20 579 19 595 -1z
m291 -851 l0 -215 -592 2 -593 3 -3 200 c-1 110 0 205 2 212 4 10 126 13 596
13 l590 0 0 -215z m211 -382 c40 -21 61 -40 84 -77 l30 -49 0 -1291 0 -1291
-28 -47 c-18 -31 -44 -57 -75 -75 l-47 -28 -765 0 -765 0 -47 28 c-31 18 -57
44 -75 75 l-28 47 0 1290 0 1290 27 47 c28 46 74 82 126 98 15 5 360 9 768 9
l740 1 55 -27z"/>
<path d="M2345 2211 c-22 -10 -52 -31 -67 -47 -59 -63 -58 -48 -58 -706 0
-566 2 -605 19 -643 23 -49 64 -89 113 -109 55 -24 741 -24 796 0 49 20 90 60
113 109 17 38 19 77 19 645 0 568 -2 607 -19 645 -10 22 -31 52 -47 67 -61 57
-71 58 -466 58 -332 0 -366 -2 -403 -19z m779 -142 l26 -20 0 -589 0 -589 -26
-20 c-26 -20 -38 -21 -375 -21 -336 0 -350 1 -369 20 -20 20 -20 33 -20 610 0
577 0 590 20 610 19 19 33 20 369 20 337 0 349 -1 375 -21z"/>
<path d="M3963 4842 c-107 -38 -179 -110 -210 -209 -15 -47 -23 -57 -68 -82
-110 -62 -170 -161 -170 -281 0 -83 19 -129 81 -206 31 -39 32 -44 22 -80 -24
-90 15 -206 98 -284 77 -73 129 -94 239 -96 73 -1 97 -5 125 -23 81 -50 178
-62 270 -35 103 30 170 90 210 186 22 54 24 56 75 67 105 24 196 110 231 220
30 95 4 222 -60 298 -25 30 -26 35 -15 75 35 132 -40 285 -174 355 -45 24 -64
27 -142 27 -65 0 -98 -4 -120 -16 -30 -16 -31 -16 -72 18 -93 77 -219 102
-320 66z m185 -148 c31 -15 59 -39 73 -60 39 -63 70 -68 154 -24 31 17 71 30
89 30 122 0 205 -102 182 -222 -22 -116 -22 -114 27 -167 35 -37 47 -59 52
-94 21 -136 -56 -227 -191 -227 -59 0 -84 -24 -95 -89 -11 -71 -47 -123 -101
-150 -79 -38 -142 -25 -221 45 -42 39 -54 40 -114 18 -86 -33 -189 11 -232 98
-25 52 -26 86 -6 135 27 63 20 89 -34 139 -83 76 -100 139 -60 222 25 51 86
99 138 108 53 10 71 30 71 81 0 75 47 143 121 172 42 17 94 12 147 -15z"/>
<path d="M1667 4638 c-23 -18 -107 -167 -151 -270 -97 -227 -87 -398 28 -513
102 -101 224 -102 322 -1 142 145 123 369 -58 686 -52 91 -70 110 -103 110
-12 0 -29 -6 -38 -12z m83 -270 c64 -144 87 -298 56 -373 -16 -36 -67 -75
-101 -75 -34 0 -85 39 -101 75 -18 45 -18 132 2 209 16 64 92 236 104 236 4 0
22 -33 40 -72z"/>
<path d="M1247 3838 c-23 -18 -107 -167 -151 -270 -97 -227 -87 -398 28 -513
102 -101 224 -102 322 -1 142 145 123 369 -58 686 -52 91 -70 110 -103 110
-12 0 -29 -6 -38 -12z m83 -270 c64 -144 87 -298 56 -373 -16 -36 -67 -75
-101 -75 -34 0 -85 39 -101 75 -18 45 -18 132 2 209 16 64 92 236 104 236 4 0
22 -33 40 -72z"/>
<path d="M705 2746 c-57 -18 -82 -33 -133 -80 -40 -37 -102 -141 -102 -173 0
-6 -20 -21 -44 -33 -55 -26 -121 -96 -149 -158 -17 -36 -22 -66 -22 -127 0
-87 19 -142 70 -210 24 -31 27 -43 28 -127 2 -80 6 -101 30 -149 65 -134 232
-219 351 -179 34 11 40 10 59 -8 53 -48 108 -67 197 -67 77 1 91 4 148 35 72
38 134 102 157 163 15 39 20 43 74 59 204 61 298 331 176 508 -26 37 -28 48
-29 138 -1 115 -22 172 -89 240 -86 89 -214 123 -322 85 l-50 -18 -58 42 c-93
68 -197 89 -292 59z m158 -140 c18 -7 46 -30 62 -50 61 -75 74 -86 103 -86 16
0 41 9 55 20 65 52 135 62 204 31 82 -38 125 -150 89 -235 -27 -64 -21 -93 25
-134 68 -60 86 -132 53 -210 -34 -83 -109 -130 -185 -117 -34 6 -44 3 -65 -16
-16 -15 -24 -34 -24 -55 0 -69 -44 -132 -115 -165 -74 -34 -144 -19 -216 46
-44 39 -60 42 -115 19 -82 -34 -183 6 -224 91 -23 47 -23 57 -4 191 6 39 4 43
-49 95 -47 46 -56 61 -62 103 -15 99 44 191 139 215 50 12 66 32 66 82 0 125
148 223 263 175z"/>
</g>
</svg>
