<?xml version="1.0" encoding="UTF-8"?>
<svg version="1.1" viewBox="0 0 2048 2048" width="1280" height="1280" xmlns="http://www.w3.org/2000/svg">
<path transform="translate(1834,510)" d="m0 0h17l16 3 17 6 16 10 11 9 7 7 10 14 7 14 5 17 2 17v79l-2 9-6 9-7 6-11 4h-10l-11-4-7-6-5-8-2-6-1-11v-67l-2-14-7-13-7-6-10-5-7-2h-10l-37 7-340 69-28 6-10 5-9 8-6 12-2 11v121l3 5 24 24 7 8 14 14 3-1 12-12 13-8 8-4 16-5 53-11 193-39 23-4h17l16 4 13 7 9 7 9 9 7 11 5 12 2 8 1 13v164l-1 11-4 8-8 9-9 4-4 1h-10l-21-4h-24l-14 3-13 5-13 7-11 9-8 8-10 14-6 13-3 8v5l15 15 7 8 16 16 7 8 15 15v2h2l7 8 11 11v2h2l7 8 17 17 7 8 19 19 7 8 15 15 7 8 15 15v2h2l4 4 3-16 1-28v-431l1-12 6-12 8-7 10-4h11l11 4 8 7 5 8 2 8v458l-2 22-5 21-6 16-7 14 9 10 7 7v2h2l7 8 11 11v2h2l7 8 14 14 7 8 18 18 7 8 5 8 2 6v12l-4 9-6 8-8 5-7 2h-12l-9-4-9-7v-2h-2l-7-8-14-14v-2h-2l-7-8-18-18v-2h-2l-7-8-17-17-7-8-5 2-18 11-18 8-16 5-20 4-7 1h-27l-23-4-16-5-17-7-14-8-11-8-11-9-11-11v-2h-2l-12-16-10-18-8-19-5-19-2-13-1-15-1-143-11-11v-2h-2l-7-8-10-10-7-8-16-16v-2l-3-1-7-8-19-19-7-8-16-16-7-8-13-13-5-6-2-1v-2h-2v375l-2 18-5 20-8 20-9 16-11 15-14 15-13 11-17 11-19 9-18 6-20 4-8 1h-25l-20-3-21-6-18-8-14-8-17-13-18-18-13-18-11-21-8-24-3-16-1-11v-161l3-20 5-18 9-21 9-15 9-12 14-15 10-9 16-11 14-8 15-6 13-4 22-4 23-1v-228l-14-15-12-13-18-18-7-8-18-18-7-8-17-17-7-8-12-12-14-16-4-9v-13l4-10 7-8 6-4 5-2h16l10 5 10 9 4 4v2h2l7 8 13 13 7 8 15 15v2h2l7 8 13 13 2 3 1-63 3-18 4-12 8-16 9-12 6-7 8-7 10-7 16-8 17-5 365-74 36-7zm-57 329-256 52-10 3-8 6-6 8 3 5 25 25 7 8 16 16 7 8 14 14 1 2h2l2 4 17 17 7 8 17 17 7 8 19 19 3 4 4-1 8-14 8-10 12-14 8-7 13-10 17-10 16-7 20-6 19-3 22-1 1-1v-129l-2-7-4-4zm-373 62-1 206-4 9-5 7-7 4-8 3h-10l-20-4h-26l-14 3-13 5-11 6-9 7-10 9-8 10-8 14-6 15-3 19v153l3 17 6 16 8 14 9 10 5 5 9 8 16 9 14 5 17 3h18l16-3 16-6 15-9 9-7v-2l4-2v-2l3-1 8-11 8-15 5-16 2-12v-439l-7-8-11-11-7-8zm286 298-1 4v65l1 18 3 15 6 15 7 12 9 11 7 7 11 8 11 6 12 5 13 3 6 1h20l18-4 13-5 11-6-2-5-14-14-7-8-15-15-7-8-10-10-7-8-16-16-1-2h-2l-2-4-22-22-7-8-16-16-5-6h-2l-2-4-9-9z"/>
<path transform="translate(990)" d="m0 0h45l3 2 18 6 17 9 13 10 12 12 10 14 8 16 5 14 3 17v1647l-4 10-7 8-6 4-6 2h-15l-9-4-5-5-5-6-3-7-1-6-1-1637-2-10-7-14-9-10-12-7-10-3h-21l-12 4-11 7-8 9-5 8-4 13-1 22v1808l2 17 4 9 5 8 6 7 11 7 11 4 4 1h15l12-3 13-7 10-10 6-11 3-14 1-62 2-9 6-10 9-7 6-2 9-1 12 3 8 6 5 6 3 6 1 4v72l-3 17-5 15-9 17-8 11-9 10-13 11-16 9-17 7-14 4h-43v-2l-16-5-14-6-12-8-13-11-2-4h-2l-11-14-9-16-6-17-3-15-1-11v-1831l2-17 5-18 8-17 9-13 9-10 9-9 13-9 16-8 15-5z"/>
<path transform="translate(472,273)" d="m0 0h27l16 4 17 8 13 10 7 6v2h2v2h2l7 8 13 13 7 8 11 12 9 11 9 10 11 14 13 16 15 20 13 18 11 16 8 12 14 22 9 15 15 26 14 26 17 34 13 29 13 31 15 41 13 40 12 44 9 39 8 42 7 49 5 54 1 18 1 33v35l-1 35-3 41-3 30-7 49-7 38-9 39-9 34-9 30-15 44-15 38-12 27-12 26-17 34-13 23-14 24-11 18-9 14-8 12-13 19-9 12-14 19-13 16-8 10-11 13-9 11-12 13-7 8-5 6h-2l-2 4-27 27-14 9-16 7-18 4h-20l-15-3-13-5-14-8-11-9v-2h-2l-9-11-8-13-5-13-3-13-1-14 2-18 5-16 5-10 8-12 12-13 10-10 7-8 8-8 9-11 11-12 16-20 13-17 11-15 14-20 11-17 13-21 13-23 13-24 12-24 15-34 14-36 12-35 10-35 5-19 8-37 6-33 6-48 3-41 1-49-1-39-4-49-5-38-8-44-10-42-11-38-14-41-11-28-12-27-16-33-12-23-12-21-16-26-8-12-13-19-13-18-10-13-12-15-9-11-9-10-9-11-6-6v-2h-2l-7-8-13-13-7-8-7-9-8-14-4-11-3-12-1-17 3-20 6-16 9-15 12-13 11-9 17-9 14-4zm6 61-9 4-7 6-5 10-1 3v13l6 12 15 16 10 10 7 8 11 12 9 11 9 10 11 14 20 26 12 17 22 33 10 16 11 19 13 23 9 17 11 23 12 26 13 32 11 30 13 40 12 45 9 42 7 42 5 43 3 40 1 36v23l-1 36-3 39-5 44-8 47-9 41-13 47-12 36-11 30-9 22-13 29-11 23-9 17-6 11-15 27-10 16-14 22-16 23-7 10-10 13-13 17-13 16v2h-2l-9 11-9 10-7 8-15 16-9 9v2l-4 2-6 9-3 7v13l4 10 9 9 7 3 6 1h8l10-4 9-7 1-3 3-1 7-8 10-10v-2l3-1 7-8 10-11 9-11 11-12 13-17 14-18 11-15 21-30 10-16 12-19 15-26 14-26 19-38 17-39 15-39 12-36 8-26 10-38 9-41 8-47 5-41 4-55 1-48-1-45-4-53-6-47-8-45-10-45-14-49-12-36-11-30-12-29-13-29-16-32-12-23-14-24-8-14-11-17-9-14-16-23-13-18-10-13-20-25-24-28-14-15-7-7-7-8-13-13-8-4-3-1z"/>
<path transform="translate(293,456)" d="m0 0h17l13 2 15 5 16 9 10 9 8 7 7 8 11 11 7 8 12 14 11 13 13 17 10 13 12 17 14 21 12 19 14 25 9 16 15 30 13 30 14 36 11 34 11 40 8 37 7 43 4 35 2 31v76l-3 42-4 31-6 36-6 28-8 32-9 30-10 29-11 28-15 34-17 34-12 21-12 20-9 14-8 12-13 19-21 27-11 14-10 11-9 11-16 17-15 15-9 8-16 9-18 6-15 2h-10l-14-2-16-5-13-7-15-12v-2h-2l-11-14-8-16-4-12-2-13v-15l3-17 6-16 9-14 11-13 13-13 7-8 10-11 11-14 12-15 12-17 10-15 10-16 13-22 8-16 12-25 11-27 10-28 8-27 7-28 6-31 5-38 2-27v-64l-3-37-5-34-5-26-8-31-9-29-9-25-9-23-1-10 4-13 9-10 8-4 3-1h14l9 4 8 7 8 16 9 23 12 35 10 37 7 33 5 31 3 25 2 29 1 34-1 36-2 29-5 39-5 27-9 39-9 30-11 32-10 24-13 29-8 15-6 12-14 24-12 19-9 13-10 14-16 21-9 11-13 15-11 12-8 8-7 8-5 6-4 13 1 10 5 10 8 7 7 3 8 1 10-2 10-6 9-9 1-2h2v-2h2l2-4 10-10 6-8h2l2-4 9-10 11-14 14-18 14-20 10-15 12-19 13-23 10-19 12-24 11-25 13-34 11-33 9-33 8-36 7-44 4-41 1-17v-69l-3-40-5-38-6-33-8-34-9-31-11-33-11-28-8-18-9-20-10-19-9-17-16-27-20-30-10-14-13-17-11-14-9-10-9-11-14-15-12-13-8-6-10-3h-10l-10 4-7 6-5 11-1 10 3 10 6 9 12 12v2h2l7 8 10 11 9 11 14 17 9 13 4 9v14l-4 9-7 8-9 5-4 1h-13l-10-4-9-9-10-13-13-16-10-11-7-8-7-7-7-8-10-11-8-13-6-14-3-12-1-8v-14l3-17 4-12 8-15 9-11 9-9 10-7 16-8 15-4z"/>
<path transform="translate(115,639)" d="m0 0 17 1 17 4 16 8 11 8 12 11 2 4h2l7 8 11 12 9 11 13 17 10 14 15 23 15 26 12 24 12 28 12 34 10 37 6 31 4 29 2 23 1 21v22l-1 22-4 38-4 25-6 27-9 32-11 31-13 30-13 26-16 27-8 12-9 13-9 12-14 18-9 10-1 2h-2l-2 4-10 10-7 8-12 10-14 8-14 5-7 2-8 1h-21l-15-3-12-5-11-6-9-7-6-5v-2h-2l-10-13-8-15-5-16-1-7v-22l3-15 6-15 9-14 22-24 6-8h2l2-4 10-13 12-18 12-21 11-23 9-24 7-24 4-18 4-26 1-12v-49l-3-26-6-29-7-24-7-19-9-20-12-23-11-17-10-14-11-13-9-11-11-11-10-13-8-15-5-16-1-7v-22l3-15 7-17 8-12 11-12 11-9 17-9 13-4zm1 61-9 2-9 6-6 8-3 10v8l3 10 8 10 10 10 9 11 8 9 14 19 11 17 15 26 11 23 9 23 7 21 8 32 5 30 2 20 1 17v25l-3 36-5 30-6 25-7 22-9 24-9 20-10 19-11 18-8 12-10 14-9 11-11 13-12 13-7 8-4 11v10l4 10 7 8 6 4 6 2h12l12-5 20-20 9-11 11-13 14-19 10-15 9-15 10-18 8-16 10-22 11-30 10-36 6-31 4-31 1-14v-56l-4-38-7-36-9-33-7-20-11-27-9-19-12-22-13-21-14-20-11-14-9-11-12-13-11-12-9-6-5-2z"/>
</svg>
