<?xml version="1.0" standalone="no"?>
<!DOCTYPE svg PUBLIC "-//W3C//DTD SVG 20010904//EN"
 "http://www.w3.org/TR/2001/REC-SVG-20010904/DTD/svg10.dtd">
<svg version="1.0" xmlns="http://www.w3.org/2000/svg"
 width="512.000000pt" height="512.000000pt" viewBox="0 0 512.000000 512.000000"
 preserveAspectRatio="xMidYMid meet">

<g transform="translate(0.000000,512.000000) scale(0.100000,-0.100000)"
fill="#000000" stroke="none">
<path d="M1000 5065 c-116 -21 -229 -83 -316 -171 l-71 -73 -214 -3 c-236 -3
-254 -7 -318 -70 -55 -54 -75 -104 -75 -183 0 -109 48 -184 149 -231 46 -22
63 -24 203 -24 l152 0 0 -2095 c0 -2307 -5 -2141 61 -2164 23 -8 515 -11 1736
-11 1433 0 1709 2 1737 14 43 18 56 55 56 162 l0 84 309 0 310 0 28 24 28 24
3 1981 2 1981 68 0 c109 0 196 51 245 145 30 56 30 164 0 221 -53 100 -120
137 -256 142 l-98 4 -20 40 c-52 101 -184 190 -311 208 -36 6 -762 9 -1698 9
-1326 -1 -1649 -3 -1710 -14z m2970 -227 l-40 -73 0 -1592 0 -1593 -1625 0
-1625 0 0 1459 c0 950 4 1477 10 1512 34 179 181 324 353 349 29 4 708 8 1509
9 l1457 1 -39 -72z m496 36 c29 -14 57 -31 64 -39 11 -13 -11 -15 -175 -15
l-188 0 19 21 c39 43 127 71 194 62 19 -3 58 -16 86 -29z m-3937 -261 c-4 -21
-11 -59 -14 -85 l-6 -48 -140 0 -141 0 -29 29 c-38 38 -38 74 0 112 l29 29
155 0 155 0 -9 -37z m4392 8 c17 -18 29 -40 29 -56 0 -16 -12 -38 -29 -56
l-29 -29 -396 0 -396 0 0 85 0 85 396 0 396 0 29 -29z m-311 -2231 l0 -1920
-255 0 -255 0 0 1920 0 1920 255 0 255 0 0 -1920z m-682 -1152 l2 -168 -1625
0 -1625 0 0 170 0 170 1623 -2 1622 -3 3 -167z m-3 -683 l0 -340 -1620 0
-1620 0 -3 330 c-1 181 0 336 3 342 3 11 328 13 1622 11 l1618 -3 0 -340z"/>
</g>
</svg>
