<?xml version="1.0" encoding="UTF-8"?>
<svg version="1.1" viewBox="0 0 2048 2048" width="1280" height="1280" xmlns="http://www.w3.org/2000/svg">
<path transform="translate(22)" d="m0 0h2006l1 3 8 5 8 11 3 5v158l-3 3-6 9-9 7-9 3-6 1h-69v105l-3 11-6 9-8 7-8 3-4 1h-13l-10-4-10-9-5-9-2-7-1-75v-31l-134-1-1 142 9 3 15 9 11 9 5 5 9 10 10 17 6 16 3 16 1 12-2 19-5 17-8 16-1 1 25 8 38 17 16 9 14 10 13 10v2l4 2 8 8 11 14 7 11 8 16 5 16 3 21v78l-2 9-5 9-5 6-8 5-12 3h-70v299l-1 14-4 11-7 9-10 6-9 2-21 1h-794l-14-1-10-3-9-7-7-10-3-13v-308h-72l-11-3-9-7-7-10-3-10-1-28 1-57 3-17 6-18 9-17 10-14 11-12 10-10 12-9 15-10 10-6 33-15 16-6 43-12 35-6 30-4 63-4 13-2 9-5 8-9 3-9v-15l-3-9-5-7-9-6-5-2-13-1-12-4-8-6-7-8-3-7-2-7v-173h-133l-1 3-1 102-3 11-6 8-8 7-7 3-5 1h-12l-11-4-10-9-6-12-1-6v-105l-169 1-1 1091h1200l10 3 8 6 6 7 4 9 1 6v105h37l11 3 9 6 7 9 2 6h2v569l-3 3-6 8-7 6-6 3h-2v2h-2e3l-13-7-7-7-4-7-2-1v-2e3l8-13 7-6 6-2zm2e3 1m-1956 68v1910h612l1-660v-1139l-1-111zm683 0v67h1227v-67zm445 136-2 1v141l16 8 12 8 12 11 10 12 8 14 6 17 3 17v21l-3 15-4 13v2l12 2 16 1 52-7 57-3h36l13-2 8-3 6-4 5-5 4-6 3-11v-7l-3-10-6-10-10-7-6-2-12-1-14-5-10-9-4-7-2-7-1-177zm272 0-1 4v138l16 8 12 8 12 11 8 9 9 15 6 15 3 13 1 8v21l-2 12-6 18v2l11-1 27-4 24-2 43-2h14l21 1h33l18-4 9-5 5-4 5-8 2-6 1-10-2-10-4-8-5-6-10-6-17-3-11-3-8-6-6-7-4-9-1-179zm-52 341m239 0m-521 1-34 2-37 5-23 5-26 7-21 8-15 7-16 9-12 9-14 13-10 16-4 13-1 7v34l71 1 13 4 9 7 6 10 2 7 1 31v281l269 1 3-1v-253l1-59 4-11 6-8 5-4 8-4 8-2 69-1 1-1v-34l-3-14-6-12-8-10-8-8-12-9-19-11-17-8-25-9-38-10-35-5-21-2-21-1zm283 0 2 1 2 4 17 17 11 16 8 15 7 21 2 12v92l-4 9-7 9-9 5-6 2-7 1-67 1v272h166l2-1 1-311 2-8 6-10 7-6 8-4 8-2 69-1 1-8v-25l-2-14-7-14-8-10-9-9-14-10-15-9-25-11-22-7-31-8-29-5-34-3zm239 0 2 1 2 4 16 16 10 14 8 14 7 18 4 19 1 10v76l-3 11-6 10-9 7-9 3-8 1-67 1v271h169l1-308 3-12 6-9 7-6 9-4 6-1 70-1 1-10v-24l-4-17-5-10-7-10-9-9-10-8-20-12-22-10-16-6-34-9-36-6-33-3-13-1zm-861 818-44 1v66h1158l1-1v-65l-135-1zm1158 137-1202 1v476h1227v-477z"/>
<path transform="translate(861,1569)" d="m0 0h951l71 1 11 4 9 7 5 7 3 8 1 6v275l-2 11-5 10-7 7-8 4-7 2-13 1h-1015l-13-2-9-5-5-5-4-5-4-8-2-15v-234l1-39 3-10 7-10 9-6 9-3zm27 70v204h954l1-203-1-1z"/>
<path transform="translate(1308,1671)" d="m0 0h95l68 1 9 2 10 6 6 7 4 7 2 7v10l-3 10-6 9-9 7-9 3-7 1h-68v35l-2 10-4 8-7 8-12 6-5 1h-10l-10-3-8-6-7-8-4-12-1-14v-23l1-2h-71l-12-3-8-6-7-8-4-10-1-10 4-13 5-8 10-7 7-3 5-1z" fill="#010101"/>
<path transform="translate(437,989)" d="m0 0h107l13 2 8 4 8 7 5 8 2 6v16l-6 12-5 6-10 6-9 2-43 1h-29l1 6v53l-2 18-5 10-5 6-5 4-7 3-5 1h-14l-10-4-8-7-4-5-4-9-1-5-1-109 4-12 6-10 10-7z"/>
<path transform="translate(22,2047)" d="m0 0 2 1z"/>
<path transform="translate(2027,2047)" d="m0 0"/>
<path transform="translate(2047,21)" d="m0 0"/>
</svg>
