<?xml version="1.0" standalone="no"?>
<!DOCTYPE svg PUBLIC "-//W3C//DTD SVG 20010904//EN"
 "http://www.w3.org/TR/2001/REC-SVG-20010904/DTD/svg10.dtd">
<svg version="1.0" xmlns="http://www.w3.org/2000/svg"
 width="512.000000pt" height="512.000000pt" viewBox="0 0 512.000000 512.000000"
 preserveAspectRatio="xMidYMid meet">

<g transform="translate(0.000000,512.000000) scale(0.100000,-0.100000)"
fill="#000000" stroke="none">
<path d="M3225 5015 c-23 -22 -25 -32 -25 -112 l-1 -88 -86 -33 -86 -34 -56
55 c-62 60 -88 77 -122 77 -17 0 -91 -68 -264 -240 l-241 -240 -1027 0 -1028
0 -24 -25 c-25 -24 -25 -26 -25 -215 0 -189 0 -191 25 -215 20 -21 34 -25 80
-25 l55 0 0 -1680 0 -1680 -135 0 c-131 0 -137 -1 -160 -25 -25 -24 -25 -26
-25 -215 0 -189 0 -191 25 -215 l24 -25 1871 0 1871 0 24 25 c25 24 25 26 25
215 0 189 0 191 -25 215 -23 24 -29 25 -160 25 l-135 0 0 800 0 800 175 0
c173 0 176 0 200 25 23 22 25 32 25 112 l1 88 85 33 86 34 62 -61 c63 -60 99
-78 133 -67 10 3 130 118 266 254 177 178 247 254 247 271 0 34 -17 60 -77
122 l-55 56 34 86 33 86 88 1 c80 0 90 2 112 25 l25 24 0 351 0 351 -25 24
c-22 23 -32 25 -112 25 l-88 1 -33 85 -34 86 61 62 c60 63 78 99 67 133 -3 10
-118 130 -254 266 -178 177 -254 247 -271 247 -34 0 -60 -17 -122 -77 l-56
-55 -86 34 -86 33 -1 88 c0 80 -2 90 -25 112 l-24 25 -351 0 -351 0 -24 -25z
m615 -209 c0 -94 16 -115 115 -146 39 -13 100 -38 137 -56 98 -49 120 -46 190
23 l58 58 172 -173 173 -172 -58 -58 c-69 -70 -72 -92 -23 -190 18 -37 43 -98
56 -137 31 -99 52 -115 146 -115 l74 0 0 -240 0 -240 -74 0 c-94 0 -115 -16
-146 -115 -13 -38 -38 -100 -56 -137 -49 -97 -46 -122 21 -188 30 -30 55 -59
55 -65 0 -13 -322 -335 -335 -335 -6 0 -35 25 -65 55 -66 67 -91 70 -188 21
-37 -18 -98 -43 -137 -56 -99 -31 -115 -52 -115 -146 l0 -74 -240 0 -240 0 0
74 c0 94 -16 115 -115 146 -38 13 -100 38 -137 56 -97 49 -122 46 -188 -21
-30 -30 -59 -55 -65 -55 -13 0 -335 322 -335 335 0 6 25 35 55 65 67 66 70 91
21 188 -18 37 -43 99 -56 137 -31 99 -52 115 -146 115 l-74 0 0 240 0 240 74
0 c94 0 115 16 146 115 13 39 38 100 56 137 49 98 46 120 -23 190 l-58 58 173
172 172 173 58 -58 c70 -69 92 -72 190 -23 37 18 99 43 137 56 99 31 115 52
115 146 l0 74 240 0 240 0 0 -74z m-1421 -600 l33 -34 -34 -86 -33 -85 -88 -1
c-80 0 -90 -2 -112 -25 l-25 -24 0 -351 0 -351 25 -24 c22 -23 32 -25 112 -25
l88 -1 33 -86 34 -86 -55 -56 c-103 -106 -103 -118 15 -237 l92 -94 -172 0
-172 0 0 135 c0 131 -1 137 -25 160 l-24 25 -271 0 -271 0 -24 -25 -25 -24 0
-271 0 -271 25 -24 c23 -24 29 -25 160 -25 l135 0 0 -80 0 -80 -135 0 c-131 0
-137 -1 -160 -25 l-25 -24 0 -271 0 -271 25 -24 c23 -24 29 -25 160 -25 l135
0 0 -159 0 -159 -47 -7 c-103 -15 -196 -84 -243 -180 -23 -47 -25 -62 -28
-253 l-4 -202 -78 0 -78 0 -4 203 -3 202 -34 63 c-38 69 -80 110 -151 144 -66
32 -196 31 -265 -2 -64 -31 -124 -91 -155 -155 -23 -47 -25 -62 -28 -252 l-4
-203 -79 0 -79 0 0 1680 0 1680 760 0 760 0 0 80 0 80 -840 0 -840 0 0 80 0
80 993 0 993 0 33 -34z m-419 -1486 l0 -80 -55 0 c-78 0 -105 -27 -105 -105
l0 -55 -80 0 -80 0 0 160 0 160 160 0 160 0 0 -80z m746 -320 c106 -104 121
-104 225 -3 l56 55 86 -34 86 -33 1 -88 c0 -80 2 -90 25 -112 22 -23 32 -25
120 -25 l95 0 0 -800 0 -800 -240 0 -240 0 0 136 c0 78 -5 154 -12 178 -16 55
-99 138 -154 154 -94 28 -169 8 -239 -63 -66 -65 -75 -99 -75 -269 l0 -136
-240 0 -240 0 0 960 0 960 332 0 332 0 82 -80z m-906 -560 l0 -160 -80 0 -80
0 0 160 0 160 80 0 80 0 0 -160z m-712 -827 c64 -48 67 -57 70 -264 l3 -189
-160 0 -161 0 0 174 c0 100 5 187 11 203 14 37 47 72 84 89 40 19 119 12 153
-13z m712 -213 l0 -240 -80 0 -80 0 0 174 c0 100 5 187 11 203 20 53 82 102
132 103 16 0 17 -18 17 -240z m935 55 c24 -23 25 -29 25 -160 l0 -135 -80 0
-80 0 0 135 c0 131 1 137 25 160 15 16 36 25 55 25 19 0 40 -9 55 -25z m985
-535 l0 -80 -1760 0 -1760 0 0 80 0 80 1760 0 1760 0 0 -80z"/>
<path d="M3457 4549 c-128 -19 -291 -83 -406 -161 -82 -55 -222 -207 -272
-293 -103 -179 -134 -295 -133 -495 1 -205 39 -345 142 -510 58 -94 195 -233
288 -293 164 -106 324 -152 529 -152 195 1 313 33 490 134 109 62 263 217 326
326 102 177 133 294 133 495 0 201 -32 321 -133 495 -62 107 -208 254 -320
323 -189 116 -423 163 -644 131z m333 -172 c209 -57 368 -171 480 -344 89
-136 125 -259 125 -433 0 -174 -36 -297 -125 -433 -97 -149 -261 -279 -407
-322 l-23 -6 0 168 0 168 47 25 c65 34 162 135 199 206 55 104 69 159 69 274
0 115 -14 170 -69 274 -43 83 -139 176 -227 220 -85 43 -121 45 -154 11 l-25
-24 0 -224 0 -223 -40 -39 -40 -39 -40 39 -40 39 0 223 0 224 -25 24 c-33 34
-69 32 -154 -11 -88 -44 -184 -137 -227 -220 -55 -104 -69 -159 -69 -274 0
-115 14 -170 69 -274 37 -71 134 -172 199 -206 l47 -25 0 -168 0 -168 -22 6
c-147 43 -311 173 -408 322 -104 158 -151 372 -121 549 59 350 307 604 656
673 67 13 257 6 325 -12z m-324 -837 c136 -134 134 -134 271 3 l103 103 0 179
0 179 41 -39 c22 -22 57 -74 77 -114 35 -71 37 -81 37 -170 0 -87 -3 -102 -32
-163 -42 -89 -98 -148 -186 -194 -39 -20 -77 -45 -84 -53 -9 -12 -12 -80 -13
-243 l0 -228 -80 0 -80 0 0 228 c-1 163 -4 231 -13 243 -7 8 -45 33 -84 53
-88 46 -144 105 -186 194 -29 61 -32 76 -32 162 0 86 3 101 32 162 17 37 51
88 75 114 l43 47 5 -182 5 -182 101 -99z"/>
<path d="M745 3735 l-25 -24 0 -271 0 -271 25 -24 24 -25 271 0 271 0 24 25
25 24 0 271 0 271 -25 24 -24 25 -271 0 -271 0 -24 -25z m455 -295 l0 -160
-160 0 -160 0 0 160 0 160 160 0 160 0 0 -160z"/>
<path d="M1545 3735 l-25 -24 0 -271 0 -271 25 -24 24 -25 256 0 255 0 0 80 0
80 -200 0 -200 0 0 160 0 160 200 0 200 0 0 80 0 80 -255 0 -256 0 -24 -25z"/>
<path d="M745 2935 l-25 -24 0 -271 0 -271 25 -24 24 -25 271 0 271 0 24 25
25 24 0 271 0 271 -25 24 -24 25 -271 0 -271 0 -24 -25z m455 -295 l0 -160
-160 0 -160 0 0 160 0 160 160 0 160 0 0 -160z"/>
<path d="M745 2135 l-25 -24 0 -271 0 -271 25 -24 24 -25 271 0 271 0 24 25
25 24 0 271 0 271 -25 24 -24 25 -271 0 -271 0 -24 -25z m455 -295 l0 -160
-160 0 -160 0 0 160 0 160 160 0 160 0 0 -160z"/>
<path d="M2185 2295 c-25 -24 -25 -26 -25 -215 0 -257 -17 -240 240 -240 257
0 240 -17 240 240 0 257 17 240 -240 240 -189 0 -191 0 -215 -25z m295 -215
l0 -80 -80 0 -80 0 0 80 0 80 80 0 80 0 0 -80z"/>
<path d="M2800 2065 c0 -238 -13 -225 225 -225 l175 0 0 80 0 80 -120 0 -120
0 0 120 0 120 -80 0 -80 0 0 -175z"/>
<path d="M2185 1655 c-25 -24 -25 -26 -25 -215 0 -257 -17 -240 240 -240 257
0 240 -17 240 240 0 257 17 240 -240 240 -189 0 -191 0 -215 -25z m295 -215
l0 -80 -80 0 -80 0 0 80 0 80 80 0 80 0 0 -80z"/>
<path d="M2825 1655 c-25 -24 -25 -26 -25 -215 0 -257 -17 -240 240 -240 257
0 240 -17 240 240 0 257 17 240 -240 240 -189 0 -191 0 -215 -25z m295 -215
l0 -80 -80 0 -80 0 0 80 0 80 80 0 80 0 0 -80z"/>
</g>
</svg>
