<?xml version="1.0" standalone="no"?>
<!DOCTYPE svg PUBLIC "-//W3C//DTD SVG 20010904//EN"
 "http://www.w3.org/TR/2001/REC-SVG-20010904/DTD/svg10.dtd">
<svg version="1.0" xmlns="http://www.w3.org/2000/svg"
 width="512.000000pt" height="512.000000pt" viewBox="0 0 512.000000 512.000000"
 preserveAspectRatio="xMidYMid meet">

<g transform="translate(0.000000,512.000000) scale(0.100000,-0.100000)"
fill="#000000" stroke="none">
<path d="M610 5083 c-144 -92 -278 -132 -469 -140 l-134 -6 6 -146 c4 -117 11
-169 36 -265 37 -145 123 -327 208 -441 76 -103 201 -225 267 -262 45 -25 61
-28 141 -28 114 0 156 19 262 121 l78 74 447 -448 c247 -246 448 -449 448
-452 0 -3 -163 -113 -362 -245 -204 -135 -365 -249 -371 -262 -13 -28 -2 -67
25 -93 20 -18 35 -20 160 -20 l138 0 0 -438 0 -437 -179 -179 -179 -179 -79
26 c-112 36 -193 49 -313 49 -213 -1 -386 -62 -561 -199 l-71 -56 60 -60 60
-60 53 46 c65 57 159 107 259 139 64 20 96 23 215 23 131 -1 146 -3 228 -32
98 -35 178 -80 244 -137 l44 -39 60 59 60 59 -38 30 c-88 71 -99 43 87 229
l165 166 437 0 438 0 0 -195 c0 -178 -5 -217 -25 -185 -3 5 -38 19 -76 31
-103 31 -220 24 -311 -18 -241 -113 -321 -402 -172 -620 45 -66 451 -416 531
-458 49 -26 67 -30 133 -30 66 0 84 4 133 30 80 42 486 392 531 458 149 218
69 506 -172 620 -63 30 -74 32 -177 32 -96 0 -118 -3 -172 -26 l-63 -27 0 194
0 194 437 0 438 0 216 -216 217 -217 -39 -57 c-78 -114 -110 -219 -110 -360 0
-246 128 -453 346 -561 111 -54 202 -72 345 -66 183 7 311 61 434 183 114 115
174 248 183 410 11 183 -38 309 -196 507 -55 70 -101 131 -101 137 0 5 27 50
59 100 70 107 89 171 72 251 -14 62 -23 80 -69 131 -54 60 -103 81 -200 86
l-84 5 -67 -67 -67 -66 -64 65 -64 65 -66 0 c-123 0 -209 -44 -259 -132 -64
-111 -53 -200 39 -342 64 -99 66 -112 25 -146 -14 -12 -41 11 -226 196 l-209
209 0 437 0 438 138 0 c125 0 140 2 160 20 28 26 38 65 24 95 -7 15 -146 114
-373 266 l-362 241 478 478 478 478 19 -23 c15 -19 18 -41 18 -119 0 -108 11
-143 60 -200 63 -71 95 -81 265 -81 167 0 197 9 262 77 49 51 63 95 63 202 l0
94 88 120 c49 65 98 142 110 170 99 230 56 468 -118 642 -117 117 -243 170
-405 170 -157 0 -289 -54 -401 -165 -189 -187 -228 -480 -94 -698 17 -27 30
-51 30 -55 0 -10 -983 -992 -993 -992 -4 0 -83 50 -175 112 -92 61 -187 119
-212 129 l-45 17 -3 171 -2 171 30 0 c42 0 89 21 134 60 55 49 79 102 84 193
l5 77 69 0 c79 0 119 14 172 60 71 63 81 95 81 265 0 170 -10 202 -81 265 -53
46 -93 60 -172 60 l-69 0 -5 78 c-5 90 -29 143 -84 192 -61 53 -88 60 -244 60
-156 0 -183 -7 -244 -60 -55 -49 -79 -102 -84 -192 l-5 -78 -69 0 c-79 0 -119
-14 -172 -60 -71 -63 -81 -95 -81 -265 0 -170 10 -202 81 -265 53 -46 93 -60
172 -60 l69 0 5 -77 c5 -91 29 -144 84 -193 45 -39 92 -60 134 -60 l30 0 -2
-172 -3 -171 -39 -14 c-22 -7 -118 -65 -213 -128 -95 -63 -177 -115 -181 -115
-4 0 -216 209 -472 465 l-465 465 19 33 c133 229 191 422 198 662 l3 120 -135
7 c-190 9 -319 50 -485 152 l-41 24 -54 -35z m2085 -168 c24 -23 25 -29 25
-165 l0 -140 140 0 c136 0 142 -1 165 -25 24 -23 25 -30 25 -140 0 -110 -1
-117 -25 -140 -23 -24 -29 -25 -165 -25 l-140 0 0 -140 c0 -136 -1 -142 -25
-165 -23 -24 -31 -25 -135 -25 -104 0 -112 1 -135 25 -24 23 -25 29 -25 165
l0 140 -140 0 c-136 0 -142 1 -165 25 -24 23 -25 30 -25 140 0 110 1 117 25
140 23 24 29 25 165 25 l140 0 0 140 c0 136 1 142 25 165 23 24 31 25 135 25
104 0 112 -1 135 -25z m1985 -4 c176 -67 291 -259 262 -437 -14 -86 -46 -151
-127 -261 l-69 -93 -63 0 -63 0 0 89 0 89 30 12 c41 17 94 78 115 133 26 68
17 152 -21 213 -80 130 -269 154 -378 48 -49 -48 -68 -88 -74 -159 -7 -99 49
-198 134 -237 23 -11 24 -16 24 -100 l0 -88 -62 0 -63 1 -72 98 c-40 54 -82
119 -93 145 -101 226 28 493 270 561 71 19 177 13 250 -14z m-3928 -31 c101
-48 237 -88 330 -97 38 -3 71 -10 74 -14 8 -14 -24 -191 -51 -272 -54 -165
-153 -326 -281 -452 -130 -129 -186 -126 -325 14 -180 180 -297 423 -316 653
l-6 68 36 0 c93 0 262 47 376 105 36 18 69 34 73 34 3 1 44 -17 90 -39z m3840
-300 c25 -26 29 -36 24 -63 -15 -77 -116 -94 -152 -26 -18 36 -10 73 23 99 36
28 70 25 105 -10z m108 -685 c0 -46 -4 -60 -25 -80 -23 -24 -30 -25 -140 -25
-110 0 -117 1 -140 25 -21 20 -25 34 -25 80 l0 55 165 0 165 0 0 -55z m-1584
-936 l487 -324 -522 -3 c-286 -1 -756 -1 -1042 0 l-522 3 484 322 c266 176
491 324 499 327 8 3 41 4 72 3 57 -3 60 -5 544 -328z m354 -899 l0 -410 -495
0 -495 0 0 179 c0 221 -14 280 -87 362 -66 73 -145 109 -239 109 -132 0 -231
-57 -293 -170 l-36 -65 -3 -207 -3 -208 -85 0 -84 0 0 410 0 410 910 0 910 0
0 -410z m-1232 53 c15 -11 37 -35 50 -53 21 -31 22 -42 22 -221 l0 -189 -165
0 -165 0 0 163 c0 89 5 180 11 202 12 46 51 91 94 111 40 19 119 12 153 -13z
m2116 -563 l101 -99 102 101 102 102 40 -12 c50 -16 81 -54 81 -100 0 -27 -15
-59 -61 -129 l-62 -93 -206 0 -206 0 -59 90 c-47 73 -59 98 -59 131 0 59 43
101 112 108 8 0 60 -44 115 -99z m411 -527 c55 -70 114 -155 131 -189 144
-284 -42 -624 -364 -664 -268 -34 -494 106 -557 345 -27 107 -14 228 36 328
12 23 69 102 127 175 l105 132 211 0 211 -1 100 -126z m-2434 -49 c45 -14 69
-31 142 -102 l87 -86 83 81 c93 92 123 110 200 119 155 18 289 -97 290 -250 0
-66 -24 -133 -62 -174 -39 -40 -425 -369 -448 -380 -28 -15 -98 -15 -126 -1
-23 12 -432 361 -455 389 -32 37 -55 107 -56 165 0 48 6 71 29 114 65 118 181
165 316 125z"/>
<path d="M2476 3194 c-58 -21 -98 -56 -128 -110 -57 -106 -43 -210 40 -293
133 -132 355 -74 408 107 19 64 12 118 -24 186 -57 104 -183 152 -296 110z
m142 -177 c28 -26 29 -76 3 -108 -14 -18 -29 -24 -61 -24 -32 0 -47 6 -61 24
-26 32 -25 82 4 108 41 38 73 38 115 0z"/>
<path d="M2640 2055 l0 -245 330 0 330 0 0 245 0 245 -330 0 -330 0 0 -245z
m500 5 l0 -80 -165 0 -165 0 0 80 0 80 165 0 165 0 0 -80z"/>
<path d="M630 974 c-80 -17 -191 -71 -245 -118 l-40 -35 57 -57 57 -57 35 27
c20 15 62 39 94 54 50 24 69 27 162 27 93 0 112 -3 162 -27 32 -15 74 -39 94
-54 l35 -27 57 57 57 57 -40 35 c-87 75 -251 135 -370 133 -27 0 -79 -7 -115
-15z"/>
<path d="M681 649 c-181 -55 -236 -285 -99 -416 97 -93 260 -86 349 14 44 50
62 98 62 163 0 95 -51 178 -137 222 -46 23 -127 31 -175 17z m128 -185 c64
-81 -42 -182 -114 -109 -53 52 -18 135 56 135 29 0 42 -6 58 -26z"/>
</g>
</svg>
