<?xml version="1.0" standalone="no"?>
<!DOCTYPE svg PUBLIC "-//W3C//DTD SVG 20010904//EN"
 "http://www.w3.org/TR/2001/REC-SVG-20010904/DTD/svg10.dtd">
<svg version="1.0" xmlns="http://www.w3.org/2000/svg"
 width="512.000000pt" height="512.000000pt" viewBox="0 0 512.000000 512.000000"
 preserveAspectRatio="xMidYMid meet">

<g transform="translate(0.000000,512.000000) scale(0.100000,-0.100000)"
fill="#000000" stroke="none">
<path d="M2520 5109 c-14 -5 -574 -256 -1245 -556 -890 -398 -1227 -554 -1247
-575 l-28 -28 0 -525 0 -525 85 0 85 0 2 486 3 486 1193 535 1192 534 1193
-534 1192 -535 3 -486 2 -486 85 0 85 0 0 525 0 525 -27 28 c-21 21 -362 179
-1261 581 -678 303 -1245 554 -1260 556 -15 3 -38 0 -52 -6z"/>
<path d="M2485 4433 c-237 -35 -432 -205 -501 -438 -24 -81 -24 -229 0 -310
61 -206 215 -360 421 -421 81 -24 229 -24 310 0 206 61 360 215 421 421 17 56
26 237 12 250 -2 3 -31 0 -64 -5 -112 -20 -107 -17 -101 -55 17 -102 -38 -249
-123 -335 -166 -165 -434 -165 -600 0 -165 166 -165 434 0 600 111 110 255
146 432 107 15 -3 69 153 55 158 -61 19 -92 24 -157 28 -41 3 -88 3 -105 0z"/>
<path d="M2828 4143 l-268 -268 -55 55 -55 55 -60 -61 -61 -60 99 -97 c86 -84
104 -97 133 -97 30 0 60 27 344 310 l310 310 -60 60 -60 60 -267 -267z"/>
<path d="M4240 3153 c-38 -14 -55 -52 -140 -309 -99 -296 -102 -319 -52 -352
21 -13 55 -18 164 -20 l138 -4 0 -124 0 -124 -85 0 -85 0 0 -85 0 -85 255 0
255 0 0 85 0 85 -85 0 -85 0 0 124 0 124 146 4 c146 3 146 3 170 31 13 15 24
40 24 55 0 49 -170 545 -196 572 -24 25 -26 25 -217 27 -105 1 -199 -1 -207
-4z m362 -333 l56 -170 -219 0 c-120 0 -219 4 -219 8 0 6 88 274 105 320 3 8
35 12 112 12 l108 0 57 -170z"/>
<path d="M495 2876 c-59 -28 -107 -76 -132 -131 -16 -36 -19 -84 -23 -459 l-5
-419 -57 -20 c-108 -39 -204 -133 -251 -247 l-22 -55 -3 -743 -3 -743 30 -29
29 -30 192 0 c193 0 220 4 247 39 8 11 12 62 13 159 l0 142 1279 0 1280 0 3
-146 c3 -146 3 -146 31 -170 28 -24 32 -24 218 -24 205 0 243 8 254 53 3 12 4
355 3 762 l-3 740 -23 58 c-42 103 -153 205 -265 243 l-46 16 -3 426 -3 427
-27 46 c-15 25 -43 58 -62 73 -78 59 -8 56 -1360 56 l-1241 0 -50 -24z m2528
-158 c47 -24 46 -22 47 -440 l0 -398 -85 0 -85 0 0 188 c0 103 -5 204 -10 224
-17 59 -69 120 -129 151 l-55 27 -315 0 c-296 0 -319 -2 -361 -21 -60 -27 -98
-64 -126 -124 -23 -47 -24 -61 -24 -247 l0 -198 -84 0 -84 0 -4 198 c-4 220
-13 255 -79 321 -69 69 -77 71 -434 71 -357 0 -365 -2 -434 -71 -67 -66 -75
-101 -79 -321 l-4 -198 -84 0 -85 0 3 401 3 401 28 24 28 24 1215 0 c905 0
1221 -3 1237 -12z m-1512 -444 c23 -25 24 -31 27 -210 l4 -184 -347 0 -346 0
3 184 c3 179 4 185 27 210 l24 26 292 0 292 0 24 -26z m1194 1 c25 -24 25 -26
25 -210 l0 -185 -340 0 -340 0 0 185 c0 184 0 186 25 210 l24 25 291 0 291 0
24 -25z m553 -589 c53 -23 124 -101 140 -154 8 -25 12 -122 12 -276 l0 -236
-1620 0 -1620 0 0 228 c0 249 7 295 55 358 34 44 95 83 148 94 23 4 672 7
1442 7 1342 -2 1402 -3 1443 -21z m152 -1176 l0 -340 -85 0 -85 0 0 145 c0
142 -1 147 -25 170 l-24 25 -1399 0 -1399 0 -24 -26 c-23 -24 -24 -33 -27
-170 l-3 -144 -85 0 -84 0 0 340 0 340 1620 0 1620 0 0 -340z"/>
<path d="M3803 1865 c-24 -10 -34 -23 -42 -53 -8 -27 -10 -247 -9 -668 l3
-629 85 0 85 0 3 253 2 252 510 0 510 0 0 -255 0 -255 85 0 85 0 0 654 0 655
-24 28 -24 28 -619 2 c-511 2 -624 0 -650 -12z m1145 -412 l-3 -258 -507 -3
-508 -2 0 260 0 260 510 0 510 0 -2 -257z"/>
<path d="M4270 1455 l0 -85 170 0 171 0 -3 83 -3 82 -167 3 -168 2 0 -85z"/>
</g>
</svg>
