<?xml version="1.0" standalone="no"?>
<!DOCTYPE svg PUBLIC "-//W3C//DTD SVG 20010904//EN"
 "http://www.w3.org/TR/2001/REC-SVG-20010904/DTD/svg10.dtd">
<svg version="1.0" xmlns="http://www.w3.org/2000/svg"
 width="512.000000pt" height="512.000000pt" viewBox="0 0 512.000000 512.000000"
 preserveAspectRatio="xMidYMid meet">

<g transform="translate(0.000000,512.000000) scale(0.100000,-0.100000)"
fill="#000000" stroke="none">
<path d="M561 4570 c-150 -54 -256 -183 -281 -340 -14 -93 -14 -3346 1 -3426
22 -118 99 -214 205 -254 42 -15 79 -20 154 -20 120 0 186 21 253 81 45 39
107 144 107 181 0 17 52 18 1558 18 l1559 0 12 -43 c30 -101 104 -181 201
-218 72 -27 229 -27 304 1 76 29 139 88 178 168 l33 67 3 1685 c2 1137 -1
1708 -8 1755 -21 142 -111 265 -239 328 l-66 32 -1960 2 c-1925 2 -1961 2
-2014 -17z m4004 -100 c116 -56 185 -168 185 -300 0 -134 -62 -235 -177 -292
l-67 -33 -183 -3 c-131 -3 -185 -7 -192 -16 -8 -9 -12 -466 -13 -1467 l-3
-1454 -1552 -3 -1553 -2 0 1448 c0 1271 -2 1450 -15 1469 -14 20 -24 22 -203
25 l-187 3 -65 36 c-112 62 -170 161 -170 291 0 114 48 208 138 270 88 60 -41
57 2067 55 l1940 -2 50 -25z m-4037 -683 c65 -31 72 -32 225 -35 l157 -4 -2
-1488 -3 -1488 -30 -43 c-17 -24 -50 -57 -73 -73 -38 -27 -52 -31 -135 -34
-113 -5 -160 7 -216 55 -88 75 -81 -83 -81 1672 l0 1554 46 -43 c25 -23 75
-56 112 -73z m4206 -3024 c-20 -53 -93 -119 -148 -134 -23 -6 -83 -9 -133 -7
-83 3 -97 7 -135 34 -23 16 -56 49 -73 73 l-30 43 -3 1489 -2 1489 138 0 c190
0 277 28 362 115 l35 36 3 -1548 c2 -1397 1 -1552 -14 -1590z"/>
<path d="M1613 4085 c-17 -7 -36 -22 -42 -34 -7 -13 -11 -138 -11 -370 l0
-350 24 -28 24 -28 572 0 572 0 24 28 24 28 0 350 c0 232 -4 357 -11 371 -25
47 -43 48 -611 48 -430 -1 -539 -3 -565 -15z m1097 -405 l0 -320 -530 0 -530
0 0 320 0 320 530 0 530 0 0 -320z"/>
<path d="M3430 2075 l0 -445 -68 0 c-40 0 -73 -5 -80 -12 -15 -15 -17 -245 -2
-268 14 -23 571 -28 606 -5 23 15 24 20 24 139 0 89 -4 127 -13 134 -7 6 -44
12 -82 14 l-70 3 -3 443 -2 442 -45 0 -45 0 0 -445 0 -445 -60 0 -60 0 0 445
0 445 -50 0 -50 0 0 -445z m390 -590 l0 -55 -230 0 -230 0 0 55 0 55 230 0
230 0 0 -55z"/>
<path d="M1325 2353 c-46 -24 -76 -54 -96 -98 -17 -36 -19 -71 -19 -371 0
-322 1 -332 20 -345 16 -11 23 -33 32 -102 6 -49 17 -95 25 -103 21 -20 225
-20 246 0 8 8 19 54 25 103 9 69 16 91 32 102 19 13 20 24 20 348 0 359 -1
363 -54 421 -53 59 -165 80 -231 45z m161 -107 l34 -34 -2 -294 -3 -293 -107
-3 -108 -3 0 297 0 296 34 34 c28 28 42 34 76 34 34 0 48 -6 76 -34z m-12
-763 c-9 -73 -9 -73 -64 -73 -55 0 -55 0 -64 73 l-6 47 70 0 70 0 -6 -47z"/>
<path d="M2849 2342 c-25 -16 -57 -47 -70 -68 -24 -39 -24 -40 -27 -375 l-3
-335 24 -26 c19 -20 26 -42 31 -100 11 -115 15 -118 150 -118 80 0 117 4 124
13 6 7 16 53 23 102 9 73 16 94 35 112 l24 22 0 303 c0 167 -4 320 -9 341 -12
49 -45 98 -89 128 -26 17 -52 24 -101 27 -59 3 -71 0 -112 -26z m154 -73 c56
-29 57 -29 57 -352 l0 -298 -107 3 -108 3 0 298 0 299 33 29 c35 31 85 38 125
18z m13 -776 c-3 -21 -6 -48 -6 -60 0 -21 -5 -23 -55 -23 l-54 0 -6 38 c-14
91 -20 82 58 82 l70 0 -7 -37z"/>
</g>
</svg>
